%TF.GenerationSoftware,KiCad,Pcbnew,10.0.3*%
%TF.CreationDate,2026-06-17T16:59:09+03:00*%
%TF.ProjectId,RobotCar,526f626f-7443-4617-922e-6b696361645f,rev?*%
%TF.SameCoordinates,Original*%
%TF.FileFunction,Copper,L2,Bot*%
%TF.FilePolarity,Positive*%
%FSLAX46Y46*%
G04 Gerber Fmt 4.6, Leading zero omitted, Abs format (unit mm)*
G04 Created by KiCad (PCBNEW 10.0.3) date 2026-06-17 16:59:09*
%MOMM*%
%LPD*%
G01*
G04 APERTURE LIST*
G04 Aperture macros list*
%AMRoundRect*
0 Rectangle with rounded corners*
0 $1 Rounding radius*
0 $2 $3 $4 $5 $6 $7 $8 $9 X,Y pos of 4 corners*
0 Add a 4 corners polygon primitive as box body*
4,1,4,$2,$3,$4,$5,$6,$7,$8,$9,$2,$3,0*
0 Add four circle primitives for the rounded corners*
1,1,$1+$1,$2,$3*
1,1,$1+$1,$4,$5*
1,1,$1+$1,$6,$7*
1,1,$1+$1,$8,$9*
0 Add four rect primitives between the rounded corners*
20,1,$1+$1,$2,$3,$4,$5,0*
20,1,$1+$1,$4,$5,$6,$7,0*
20,1,$1+$1,$6,$7,$8,$9,0*
20,1,$1+$1,$8,$9,$2,$3,0*%
G04 Aperture macros list end*
%TA.AperFunction,ComponentPad*%
%ADD10R,1.700000X1.700000*%
%TD*%
%TA.AperFunction,ComponentPad*%
%ADD11C,1.700000*%
%TD*%
%TA.AperFunction,ComponentPad*%
%ADD12R,1.900000X1.900000*%
%TD*%
%TA.AperFunction,ComponentPad*%
%ADD13C,1.900000*%
%TD*%
%TA.AperFunction,ComponentPad*%
%ADD14RoundRect,0.250000X-0.350000X-0.625000X0.350000X-0.625000X0.350000X0.625000X-0.350000X0.625000X0*%
%TD*%
%TA.AperFunction,ComponentPad*%
%ADD15O,1.200000X1.750000*%
%TD*%
%TA.AperFunction,ComponentPad*%
%ADD16RoundRect,0.250000X0.350000X0.625000X-0.350000X0.625000X-0.350000X-0.625000X0.350000X-0.625000X0*%
%TD*%
%TA.AperFunction,Conductor*%
%ADD17C,0.200000*%
%TD*%
G04 APERTURE END LIST*
D10*
%TO.P,TB_ESP1,1,D0_1*%
%TO.N,/DIR1*%
X139535000Y-85705000D03*
D11*
%TO.P,TB_ESP1,2,D1_2*%
%TO.N,/PWM1*%
X136995000Y-85705000D03*
%TO.P,TB_ESP1,3,D2_3*%
%TO.N,/DIR2*%
X134455000Y-85705000D03*
%TO.P,TB_ESP1,4,D3_4*%
%TO.N,/PWM2*%
X131915000Y-85705000D03*
%TO.P,TB_ESP1,5,SDA/D4_5*%
%TO.N,/SDA_1*%
X129375000Y-85705000D03*
%TO.P,TB_ESP1,6,SCL/D5_6*%
%TO.N,/SCL_1*%
X126835000Y-85705000D03*
%TO.P,TB_ESP1,7,D6_7*%
%TO.N,unconnected-(TB_ESP1-D6-Pad7)*%
X124295000Y-85705000D03*
%TO.P,TB_ESP1,8,D7_8*%
%TO.N,unconnected-(TB_ESP1-D7-Pad8)*%
X139535000Y-70465000D03*
%TO.P,TB_ESP1,9,D8_9*%
%TO.N,unconnected-(TB_ESP1-D8-Pad9)*%
X136995000Y-70465000D03*
%TO.P,TB_ESP1,10,D9_10*%
%TO.N,unconnected-(TB_ESP1-D9-Pad10)*%
X134455000Y-70465000D03*
%TO.P,TB_ESP1,11,D10_11*%
%TO.N,unconnected-(TB_ESP1-D10-Pad11)*%
X131915000Y-70465000D03*
%TO.P,TB_ESP1,12,3V3_12*%
%TO.N,unconnected-(TB_ESP1-3V3-Pad12)*%
X129375000Y-70465000D03*
%TO.P,TB_ESP1,13,GND_13*%
%TO.N,GND*%
X126835000Y-70465000D03*
%TO.P,TB_ESP1,14,5V_14*%
%TO.N,+5V*%
X124285000Y-70465000D03*
%TD*%
D10*
%TO.P,TB_ESP2,1,D0_1*%
%TO.N,unconnected-(TB_ESP2-D0-Pad1)*%
X165035000Y-85705000D03*
D11*
%TO.P,TB_ESP2,2,D1_2*%
%TO.N,unconnected-(TB_ESP2-D1-Pad2)*%
X162495000Y-85705000D03*
%TO.P,TB_ESP2,3,D2_3*%
%TO.N,unconnected-(TB_ESP2-D2-Pad3)*%
X159955000Y-85705000D03*
%TO.P,TB_ESP2,4,D3_4*%
%TO.N,unconnected-(TB_ESP2-D3-Pad4)*%
X157415000Y-85705000D03*
%TO.P,TB_ESP2,5,SDA/D4_5*%
%TO.N,/SDA_2*%
X154875000Y-85705000D03*
%TO.P,TB_ESP2,6,SCL/D5_6*%
%TO.N,/SCL_2*%
X152335000Y-85705000D03*
%TO.P,TB_ESP2,7,D6_7*%
%TO.N,unconnected-(TB_ESP2-D6-Pad7)*%
X149795000Y-85705000D03*
%TO.P,TB_ESP2,8,D7_8*%
%TO.N,unconnected-(TB_ESP2-D7-Pad8)*%
X165035000Y-70465000D03*
%TO.P,TB_ESP2,9,D8_9*%
%TO.N,unconnected-(TB_ESP2-D8-Pad9)*%
X162495000Y-70465000D03*
%TO.P,TB_ESP2,10,D9_10*%
%TO.N,unconnected-(TB_ESP2-D9-Pad10)*%
X159955000Y-70465000D03*
%TO.P,TB_ESP2,11,D10_11*%
%TO.N,unconnected-(TB_ESP2-D10-Pad11)*%
X157415000Y-70465000D03*
%TO.P,TB_ESP2,12,3V3_12*%
%TO.N,unconnected-(TB_ESP2-3V3-Pad12)*%
X154875000Y-70465000D03*
%TO.P,TB_ESP2,13,GND_13*%
%TO.N,GND*%
X152335000Y-70465000D03*
%TO.P,TB_ESP2,14,5V_14*%
%TO.N,+5V*%
X149785000Y-70465000D03*
%TD*%
D10*
%TO.P,TB_DC1,1,IN+_1*%
%TO.N,+12V*%
X84000000Y-68120000D03*
X84000000Y-65580000D03*
D11*
%TO.P,TB_DC1,2,IN-_2*%
%TO.N,GND*%
X84000000Y-55420000D03*
X84000000Y-52880000D03*
%TO.P,TB_DC1,3,OUT+_3*%
%TO.N,+5V*%
X106860000Y-68120000D03*
X106860000Y-65580000D03*
%TO.P,TB_DC1,4,OUT-_4*%
%TO.N,GND*%
X106860000Y-55420000D03*
X106860000Y-52880000D03*
%TD*%
D10*
%TO.P,TB6612FNG2,1,M1+_1*%
%TO.N,Net-(J1-Pin_1)*%
X107735000Y-76725000D03*
D11*
%TO.P,TB6612FNG2,2,M1-_2*%
%TO.N,Net-(J1-Pin_2)*%
X105195000Y-76725000D03*
%TO.P,TB6612FNG2,3,M2+_3*%
%TO.N,Net-(J2-Pin_1)*%
X102655000Y-76725000D03*
%TO.P,TB6612FNG2,4,M2-_4*%
%TO.N,Net-(J2-Pin_2)*%
X100115000Y-76725000D03*
%TO.P,TB6612FNG2,5,GND_5*%
%TO.N,GND*%
X97575000Y-76725000D03*
%TO.P,TB6612FNG2,6,VM_6*%
%TO.N,+12V*%
X95035000Y-76725000D03*
%TO.P,TB6612FNG2,7,DIR1_7*%
%TO.N,/DIR1*%
X107735000Y-94505000D03*
%TO.P,TB6612FNG2,8,PWM1_8*%
%TO.N,/PWM1*%
X105195000Y-94505000D03*
%TO.P,TB6612FNG2,9,PWM2_9*%
%TO.N,/PWM2*%
X102655000Y-94505000D03*
%TO.P,TB6612FNG2,10,DIR2_10*%
%TO.N,/DIR2*%
X100115000Y-94505000D03*
%TO.P,TB6612FNG2,11,GND_11*%
%TO.N,GND*%
X97575000Y-94505000D03*
%TO.P,TB6612FNG2,12,VCC_12*%
%TO.N,+5V*%
X95035000Y-94505000D03*
%TD*%
D12*
%TO.P,TB_PD1,1,OUT+_1*%
%TO.N,+12V*%
X84366000Y-77190000D03*
D13*
X84366000Y-79730000D03*
%TO.P,TB_PD1,2,OUT-_2*%
%TO.N,GND*%
X84366000Y-82270000D03*
X84366000Y-84810000D03*
%TD*%
D14*
%TO.P,J4,1,Pin_1_1*%
%TO.N,GND*%
X148000000Y-56450000D03*
D15*
%TO.P,J4,2,Pin_2_2*%
%TO.N,+5V*%
X150000000Y-56450000D03*
%TO.P,J4,3,Pin_3_3*%
%TO.N,/SDA_2*%
X152000000Y-56450000D03*
%TO.P,J4,4,Pin_4_4*%
%TO.N,/SCL_2*%
X154000000Y-56450000D03*
%TD*%
D16*
%TO.P,J1,1,Pin_1_1*%
%TO.N,Net-(J1-Pin_1)*%
X122000000Y-58450000D03*
D15*
%TO.P,J1,2,Pin_2_2*%
%TO.N,Net-(J1-Pin_2)*%
X120000000Y-58450000D03*
%TD*%
D14*
%TO.P,J2,1,Pin_1_1*%
%TO.N,Net-(J2-Pin_1)*%
X119000000Y-94550000D03*
D15*
%TO.P,J2,2,Pin_2_2*%
%TO.N,Net-(J2-Pin_2)*%
X121000000Y-94550000D03*
%TD*%
D14*
%TO.P,J3,1,Pin_1_1*%
%TO.N,GND*%
X130000000Y-99450000D03*
D15*
%TO.P,J3,2,Pin_2_2*%
%TO.N,+5V*%
X132000000Y-99450000D03*
%TO.P,J3,3,Pin_3_3*%
%TO.N,/SDA_1*%
X134000000Y-99450000D03*
%TO.P,J3,4,Pin_4_4*%
%TO.N,/SCL_1*%
X136000000Y-99450000D03*
%TD*%
%TO.N,/DIR2*%
D17*
X127985000Y-85015000D02*
X128500000Y-84500000D01*
X127500000Y-89000000D02*
X127985000Y-88515000D01*
X100115000Y-94505000D02*
X105620000Y-89000000D01*
X127985000Y-88515000D02*
X127985000Y-85015000D01*
X105620000Y-89000000D02*
X127500000Y-89000000D01*
X128500000Y-84500000D02*
X133250000Y-84500000D01*
X133250000Y-84500000D02*
X134455000Y-85705000D01*
%TO.N,/PWM2*%
X102655000Y-94505000D02*
X107160000Y-90000000D01*
X129000000Y-90000000D02*
X131915000Y-87085000D01*
X107160000Y-90000000D02*
X129000000Y-90000000D01*
X131915000Y-87085000D02*
X131915000Y-85705000D01*
%TO.N,/PWM1*%
X133000000Y-91000000D02*
X137000000Y-87000000D01*
X137000000Y-87000000D02*
X136995000Y-86995000D01*
X108700000Y-91000000D02*
X133000000Y-91000000D01*
X105195000Y-94505000D02*
X108700000Y-91000000D01*
X136995000Y-86995000D02*
X136995000Y-85705000D01*
%TO.N,/DIR1*%
X139535000Y-85705000D02*
X133240000Y-92000000D01*
X133240000Y-92000000D02*
X110240000Y-92000000D01*
X110240000Y-92000000D02*
X107735000Y-94505000D01*
%TD*%
%TA.AperFunction,Conductor*%
%TO.N,GND*%
G36*
X115491990Y-43520185D02*
G01*
X115537745Y-43572989D01*
X115548524Y-43614224D01*
X115552574Y-43662927D01*
X115554878Y-43690630D01*
X115631725Y-44146081D01*
X115631727Y-44146087D01*
X115631727Y-44146091D01*
X115746597Y-44593459D01*
X115746600Y-44593469D01*
X115898679Y-45029583D01*
X115898684Y-45029595D01*
X116086899Y-45451384D01*
X116309924Y-45855862D01*
X116566168Y-46240155D01*
X116566172Y-46240159D01*
X116853821Y-46601538D01*
X116924270Y-46676185D01*
X116966119Y-46720529D01*
X117170842Y-46937452D01*
X117514987Y-47245518D01*
X117883819Y-47523555D01*
X117883827Y-47523560D01*
X118274714Y-47769587D01*
X118274723Y-47769592D01*
X118684933Y-47981887D01*
X119111541Y-48158936D01*
X119551526Y-48299484D01*
X120001771Y-48402537D01*
X120459088Y-48467364D01*
X120920236Y-48493507D01*
X121381949Y-48480779D01*
X121840956Y-48429271D01*
X122294006Y-48339348D01*
X122737891Y-48211647D01*
X123169465Y-48047073D01*
X123585671Y-47846791D01*
X123983562Y-47612219D01*
X124360319Y-47345021D01*
X124713272Y-47047087D01*
X125039923Y-46720529D01*
X125337957Y-46367660D01*
X125605263Y-45990979D01*
X125839947Y-45593155D01*
X126040348Y-45177006D01*
X126205045Y-44745479D01*
X126332872Y-44301631D01*
X126365075Y-44139802D01*
X126365097Y-44139758D01*
X126377944Y-44075131D01*
X126412922Y-43899191D01*
X126450399Y-43614341D01*
X126478658Y-43550447D01*
X126536980Y-43511971D01*
X126573314Y-43506521D01*
X167996237Y-43500500D01*
X168003734Y-43500725D01*
X168293796Y-43518271D01*
X168308657Y-43520075D01*
X168436419Y-43543489D01*
X168590797Y-43571780D01*
X168605334Y-43575363D01*
X168879182Y-43660698D01*
X168893163Y-43666000D01*
X169154734Y-43783724D01*
X169167987Y-43790680D01*
X169413458Y-43939071D01*
X169425776Y-43947573D01*
X169651573Y-44124474D01*
X169662781Y-44134404D01*
X169865595Y-44337218D01*
X169875525Y-44348426D01*
X170052422Y-44574217D01*
X170060928Y-44586541D01*
X170209319Y-44832012D01*
X170216277Y-44845269D01*
X170306556Y-45045860D01*
X170333994Y-45106823D01*
X170339304Y-45120825D01*
X170424635Y-45394664D01*
X170428219Y-45409202D01*
X170479923Y-45691340D01*
X170481728Y-45706205D01*
X170499274Y-45996263D01*
X170499500Y-46003750D01*
X170499500Y-109996249D01*
X170499274Y-110003736D01*
X170481728Y-110293794D01*
X170479923Y-110308659D01*
X170428219Y-110590797D01*
X170424635Y-110605335D01*
X170339304Y-110879174D01*
X170333994Y-110893176D01*
X170216277Y-111154730D01*
X170209319Y-111167987D01*
X170060928Y-111413458D01*
X170052422Y-111425782D01*
X169875525Y-111651573D01*
X169865595Y-111662781D01*
X169662781Y-111865595D01*
X169651573Y-111875525D01*
X169425782Y-112052422D01*
X169413458Y-112060928D01*
X169167987Y-112209319D01*
X169154730Y-112216277D01*
X168893176Y-112333994D01*
X168879174Y-112339304D01*
X168605335Y-112424635D01*
X168590797Y-112428219D01*
X168308659Y-112479923D01*
X168293794Y-112481728D01*
X168003736Y-112499274D01*
X167996249Y-112499500D01*
X125592029Y-112499500D01*
X125524990Y-112479815D01*
X125479235Y-112427011D01*
X125468453Y-112385740D01*
X125462927Y-112319057D01*
X125462926Y-112319051D01*
X125462926Y-112319047D01*
X125388035Y-111870248D01*
X125276338Y-111429166D01*
X125128598Y-110998815D01*
X124945825Y-110582134D01*
X124729266Y-110181969D01*
X124480402Y-109801054D01*
X124200933Y-109441991D01*
X124155577Y-109392722D01*
X123892766Y-109107233D01*
X123558010Y-108799068D01*
X123395094Y-108672266D01*
X123198946Y-108519598D01*
X123169714Y-108500500D01*
X122818032Y-108270734D01*
X122417865Y-108054174D01*
X122417861Y-108054173D01*
X122001188Y-107871403D01*
X121570847Y-107723666D01*
X121570841Y-107723664D01*
X121570834Y-107723662D01*
X121129752Y-107611965D01*
X121129748Y-107611964D01*
X120680948Y-107537073D01*
X120680942Y-107537072D01*
X120227512Y-107499500D01*
X120227502Y-107499500D01*
X119772498Y-107499500D01*
X119772487Y-107499500D01*
X119319057Y-107537072D01*
X119319051Y-107537073D01*
X118870251Y-107611964D01*
X118870247Y-107611965D01*
X118712468Y-107651920D01*
X118429166Y-107723662D01*
X118429160Y-107723663D01*
X118429152Y-107723666D01*
X117998811Y-107871403D01*
X117582138Y-108054173D01*
X117582134Y-108054174D01*
X117181967Y-108270734D01*
X116801053Y-108519598D01*
X116441989Y-108799068D01*
X116107233Y-109107233D01*
X115799068Y-109441989D01*
X115519598Y-109801053D01*
X115270734Y-110181967D01*
X115054174Y-110582134D01*
X115054173Y-110582138D01*
X114871403Y-110998811D01*
X114723666Y-111429152D01*
X114611965Y-111870247D01*
X114611964Y-111870251D01*
X114537073Y-112319051D01*
X114537072Y-112319057D01*
X114531547Y-112385740D01*
X114506394Y-112450925D01*
X114449992Y-112492163D01*
X114407971Y-112499500D01*
X69003751Y-112499500D01*
X68996264Y-112499274D01*
X68706205Y-112481728D01*
X68691340Y-112479923D01*
X68409202Y-112428219D01*
X68394664Y-112424635D01*
X68120825Y-112339304D01*
X68106827Y-112333995D01*
X67954096Y-112265256D01*
X67845269Y-112216277D01*
X67832012Y-112209319D01*
X67586541Y-112060928D01*
X67574217Y-112052422D01*
X67348426Y-111875525D01*
X67337218Y-111865595D01*
X67134404Y-111662781D01*
X67124474Y-111651573D01*
X66947573Y-111425776D01*
X66939071Y-111413458D01*
X66790680Y-111167987D01*
X66783722Y-111154730D01*
X66713550Y-110998815D01*
X66666000Y-110893163D01*
X66660698Y-110879182D01*
X66575363Y-110605334D01*
X66571780Y-110590797D01*
X66520076Y-110308659D01*
X66518271Y-110293794D01*
X66517947Y-110288445D01*
X66500726Y-110003736D01*
X66500500Y-109996249D01*
X66500500Y-104878711D01*
X72149500Y-104878711D01*
X72149500Y-105121288D01*
X72181161Y-105361785D01*
X72243947Y-105596104D01*
X72336773Y-105820205D01*
X72336776Y-105820212D01*
X72458064Y-106030289D01*
X72458066Y-106030292D01*
X72458067Y-106030293D01*
X72605733Y-106222736D01*
X72605739Y-106222743D01*
X72777256Y-106394260D01*
X72777262Y-106394265D01*
X72969711Y-106541936D01*
X73179788Y-106663224D01*
X73403900Y-106756054D01*
X73638211Y-106818838D01*
X73818586Y-106842584D01*
X73878711Y-106850500D01*
X73878712Y-106850500D01*
X74121289Y-106850500D01*
X74169388Y-106844167D01*
X74361789Y-106818838D01*
X74596100Y-106756054D01*
X74820212Y-106663224D01*
X75030289Y-106541936D01*
X75222738Y-106394265D01*
X75394265Y-106222738D01*
X75541936Y-106030289D01*
X75663224Y-105820212D01*
X75756054Y-105596100D01*
X75818838Y-105361789D01*
X75850500Y-105121288D01*
X75850500Y-104878712D01*
X75850500Y-104878711D01*
X161149500Y-104878711D01*
X161149500Y-105121288D01*
X161181161Y-105361785D01*
X161243947Y-105596104D01*
X161336773Y-105820205D01*
X161336776Y-105820212D01*
X161458064Y-106030289D01*
X161458066Y-106030292D01*
X161458067Y-106030293D01*
X161605733Y-106222736D01*
X161605739Y-106222743D01*
X161777256Y-106394260D01*
X161777262Y-106394265D01*
X161969711Y-106541936D01*
X162179788Y-106663224D01*
X162403900Y-106756054D01*
X162638211Y-106818838D01*
X162818586Y-106842584D01*
X162878711Y-106850500D01*
X162878712Y-106850500D01*
X163121289Y-106850500D01*
X163169388Y-106844167D01*
X163361789Y-106818838D01*
X163596100Y-106756054D01*
X163820212Y-106663224D01*
X164030289Y-106541936D01*
X164222738Y-106394265D01*
X164394265Y-106222738D01*
X164541936Y-106030289D01*
X164663224Y-105820212D01*
X164756054Y-105596100D01*
X164818838Y-105361789D01*
X164850500Y-105121288D01*
X164850500Y-104878712D01*
X164818838Y-104638211D01*
X164756054Y-104403900D01*
X164663224Y-104179788D01*
X164541936Y-103969711D01*
X164394265Y-103777262D01*
X164394260Y-103777256D01*
X164222743Y-103605739D01*
X164222736Y-103605733D01*
X164030293Y-103458067D01*
X164030292Y-103458066D01*
X164030289Y-103458064D01*
X163820212Y-103336776D01*
X163820205Y-103336773D01*
X163596104Y-103243947D01*
X163361785Y-103181161D01*
X163121289Y-103149500D01*
X163121288Y-103149500D01*
X162878712Y-103149500D01*
X162878711Y-103149500D01*
X162638214Y-103181161D01*
X162403895Y-103243947D01*
X162179794Y-103336773D01*
X162179785Y-103336777D01*
X161969706Y-103458067D01*
X161777263Y-103605733D01*
X161777256Y-103605739D01*
X161605739Y-103777256D01*
X161605733Y-103777263D01*
X161458067Y-103969706D01*
X161336777Y-104179785D01*
X161336773Y-104179794D01*
X161243947Y-104403895D01*
X161181161Y-104638214D01*
X161149500Y-104878711D01*
X75850500Y-104878711D01*
X75818838Y-104638211D01*
X75756054Y-104403900D01*
X75663224Y-104179788D01*
X75541936Y-103969711D01*
X75394265Y-103777262D01*
X75394260Y-103777256D01*
X75222743Y-103605739D01*
X75222736Y-103605733D01*
X75030293Y-103458067D01*
X75030292Y-103458066D01*
X75030289Y-103458064D01*
X74820212Y-103336776D01*
X74820205Y-103336773D01*
X74596104Y-103243947D01*
X74361785Y-103181161D01*
X74121289Y-103149500D01*
X74121288Y-103149500D01*
X73878712Y-103149500D01*
X73878711Y-103149500D01*
X73638214Y-103181161D01*
X73403895Y-103243947D01*
X73179794Y-103336773D01*
X73179785Y-103336777D01*
X72969706Y-103458067D01*
X72777263Y-103605733D01*
X72777256Y-103605739D01*
X72605739Y-103777256D01*
X72605733Y-103777263D01*
X72458067Y-103969706D01*
X72336777Y-104179785D01*
X72336773Y-104179794D01*
X72243947Y-104403895D01*
X72181161Y-104638214D01*
X72149500Y-104878711D01*
X66500500Y-104878711D01*
X66500500Y-98775013D01*
X128900000Y-98775013D01*
X128900000Y-99200000D01*
X129719670Y-99200000D01*
X129699925Y-99219745D01*
X129650556Y-99305255D01*
X129625000Y-99400630D01*
X129625000Y-99499370D01*
X129650556Y-99594745D01*
X129699925Y-99680255D01*
X129719670Y-99700000D01*
X128900001Y-99700000D01*
X128900001Y-100124986D01*
X128910494Y-100227697D01*
X128965641Y-100394119D01*
X128965643Y-100394124D01*
X129057684Y-100543345D01*
X129181654Y-100667315D01*
X129330875Y-100759356D01*
X129330880Y-100759358D01*
X129497302Y-100814505D01*
X129497309Y-100814506D01*
X129600019Y-100824999D01*
X129749999Y-100824999D01*
X129750000Y-100824998D01*
X129750000Y-99730330D01*
X129769745Y-99750075D01*
X129855255Y-99799444D01*
X129950630Y-99825000D01*
X130049370Y-99825000D01*
X130144745Y-99799444D01*
X130230255Y-99750075D01*
X130250000Y-99730330D01*
X130250000Y-100824999D01*
X130399972Y-100824999D01*
X130399986Y-100824998D01*
X130502697Y-100814505D01*
X130669119Y-100759358D01*
X130669124Y-100759356D01*
X130818345Y-100667315D01*
X130942315Y-100543345D01*
X130981945Y-100479094D01*
X131033893Y-100432368D01*
X131102855Y-100421145D01*
X131166937Y-100448988D01*
X131175166Y-100456508D01*
X131283072Y-100564414D01*
X131423212Y-100666232D01*
X131577555Y-100744873D01*
X131742299Y-100798402D01*
X131913389Y-100825500D01*
X131913390Y-100825500D01*
X132086610Y-100825500D01*
X132086611Y-100825500D01*
X132257701Y-100798402D01*
X132422445Y-100744873D01*
X132576788Y-100666232D01*
X132716928Y-100564414D01*
X132839414Y-100441928D01*
X132899682Y-100358975D01*
X132955012Y-100316311D01*
X133024626Y-100310332D01*
X133086421Y-100342938D01*
X133100315Y-100358973D01*
X133160586Y-100441928D01*
X133283072Y-100564414D01*
X133423212Y-100666232D01*
X133577555Y-100744873D01*
X133742299Y-100798402D01*
X133913389Y-100825500D01*
X133913390Y-100825500D01*
X134086610Y-100825500D01*
X134086611Y-100825500D01*
X134257701Y-100798402D01*
X134422445Y-100744873D01*
X134576788Y-100666232D01*
X134716928Y-100564414D01*
X134839414Y-100441928D01*
X134899682Y-100358975D01*
X134955012Y-100316311D01*
X135024626Y-100310332D01*
X135086421Y-100342938D01*
X135100315Y-100358973D01*
X135160586Y-100441928D01*
X135283072Y-100564414D01*
X135423212Y-100666232D01*
X135577555Y-100744873D01*
X135742299Y-100798402D01*
X135913389Y-100825500D01*
X135913390Y-100825500D01*
X136086610Y-100825500D01*
X136086611Y-100825500D01*
X136257701Y-100798402D01*
X136422445Y-100744873D01*
X136576788Y-100666232D01*
X136716928Y-100564414D01*
X136839414Y-100441928D01*
X136941232Y-100301788D01*
X137019873Y-100147445D01*
X137073402Y-99982701D01*
X137100500Y-99811611D01*
X137100500Y-99088389D01*
X137073402Y-98917299D01*
X137019873Y-98752555D01*
X136941232Y-98598212D01*
X136839414Y-98458072D01*
X136716928Y-98335586D01*
X136576788Y-98233768D01*
X136422445Y-98155127D01*
X136257701Y-98101598D01*
X136257699Y-98101597D01*
X136257698Y-98101597D01*
X136126271Y-98080781D01*
X136086611Y-98074500D01*
X135913389Y-98074500D01*
X135873728Y-98080781D01*
X135742302Y-98101597D01*
X135577552Y-98155128D01*
X135423211Y-98233768D01*
X135343256Y-98291859D01*
X135283072Y-98335586D01*
X135283070Y-98335588D01*
X135283069Y-98335588D01*
X135160588Y-98458069D01*
X135160581Y-98458078D01*
X135100317Y-98541023D01*
X135044987Y-98583689D01*
X134975374Y-98589667D01*
X134913579Y-98557061D01*
X134899683Y-98541023D01*
X134851899Y-98475257D01*
X134839414Y-98458072D01*
X134716928Y-98335586D01*
X134576788Y-98233768D01*
X134422445Y-98155127D01*
X134257701Y-98101598D01*
X134257699Y-98101597D01*
X134257698Y-98101597D01*
X134126271Y-98080781D01*
X134086611Y-98074500D01*
X133913389Y-98074500D01*
X133873728Y-98080781D01*
X133742302Y-98101597D01*
X133577552Y-98155128D01*
X133423211Y-98233768D01*
X133343256Y-98291859D01*
X133283072Y-98335586D01*
X133283070Y-98335588D01*
X133283069Y-98335588D01*
X133160588Y-98458069D01*
X133160581Y-98458078D01*
X133100317Y-98541023D01*
X133044987Y-98583689D01*
X132975374Y-98589667D01*
X132913579Y-98557061D01*
X132899683Y-98541023D01*
X132851899Y-98475257D01*
X132839414Y-98458072D01*
X132716928Y-98335586D01*
X132576788Y-98233768D01*
X132422445Y-98155127D01*
X132257701Y-98101598D01*
X132257699Y-98101597D01*
X132257698Y-98101597D01*
X132126271Y-98080781D01*
X132086611Y-98074500D01*
X131913389Y-98074500D01*
X131873728Y-98080781D01*
X131742302Y-98101597D01*
X131577552Y-98155128D01*
X131423211Y-98233768D01*
X131283073Y-98335585D01*
X131175166Y-98443492D01*
X131113843Y-98476976D01*
X131044151Y-98471992D01*
X130988218Y-98430120D01*
X130981946Y-98420906D01*
X130942317Y-98356656D01*
X130818345Y-98232684D01*
X130669124Y-98140643D01*
X130669119Y-98140641D01*
X130502697Y-98085494D01*
X130502690Y-98085493D01*
X130399986Y-98075000D01*
X130250000Y-98075000D01*
X130250000Y-99169670D01*
X130230255Y-99149925D01*
X130144745Y-99100556D01*
X130049370Y-99075000D01*
X129950630Y-99075000D01*
X129855255Y-99100556D01*
X129769745Y-99149925D01*
X129750000Y-99169670D01*
X129750000Y-98075000D01*
X129600027Y-98075000D01*
X129600012Y-98075001D01*
X129497302Y-98085494D01*
X129330880Y-98140641D01*
X129330875Y-98140643D01*
X129181654Y-98232684D01*
X129057684Y-98356654D01*
X128965643Y-98505875D01*
X128965641Y-98505880D01*
X128910494Y-98672302D01*
X128910493Y-98672309D01*
X128900000Y-98775013D01*
X66500500Y-98775013D01*
X66500500Y-94398713D01*
X93684500Y-94398713D01*
X93684500Y-94611287D01*
X93717754Y-94821243D01*
X93747116Y-94911611D01*
X93783444Y-95023414D01*
X93879951Y-95212820D01*
X94004890Y-95384786D01*
X94155213Y-95535109D01*
X94327179Y-95660048D01*
X94327181Y-95660049D01*
X94327184Y-95660051D01*
X94516588Y-95756557D01*
X94718757Y-95822246D01*
X94928713Y-95855500D01*
X94928714Y-95855500D01*
X95141286Y-95855500D01*
X95141287Y-95855500D01*
X95351243Y-95822246D01*
X95553412Y-95756557D01*
X95742816Y-95660051D01*
X95884831Y-95556872D01*
X95914786Y-95535109D01*
X95914788Y-95535106D01*
X95914792Y-95535104D01*
X96065104Y-95384792D01*
X96065106Y-95384788D01*
X96065109Y-95384786D01*
X96150890Y-95266717D01*
X96190051Y-95212816D01*
X96194793Y-95203508D01*
X96242763Y-95152711D01*
X96310583Y-95135911D01*
X96376719Y-95158445D01*
X96415763Y-95203500D01*
X96420373Y-95212547D01*
X96459728Y-95266716D01*
X97092037Y-94634408D01*
X97109075Y-94697993D01*
X97174901Y-94812007D01*
X97267993Y-94905099D01*
X97382007Y-94970925D01*
X97445590Y-94987962D01*
X96813282Y-95620269D01*
X96813282Y-95620270D01*
X96867449Y-95659624D01*
X97056782Y-95756095D01*
X97258870Y-95821757D01*
X97468754Y-95855000D01*
X97681246Y-95855000D01*
X97891127Y-95821757D01*
X97891130Y-95821757D01*
X98093217Y-95756095D01*
X98282554Y-95659622D01*
X98336716Y-95620270D01*
X98336717Y-95620270D01*
X97704408Y-94987962D01*
X97767993Y-94970925D01*
X97882007Y-94905099D01*
X97975099Y-94812007D01*
X98040925Y-94697993D01*
X98057962Y-94634409D01*
X98690270Y-95266717D01*
X98690270Y-95266716D01*
X98729622Y-95212555D01*
X98734232Y-95203507D01*
X98782205Y-95152709D01*
X98850025Y-95135912D01*
X98916161Y-95158447D01*
X98955204Y-95203504D01*
X98959949Y-95212817D01*
X99084890Y-95384786D01*
X99235213Y-95535109D01*
X99407179Y-95660048D01*
X99407181Y-95660049D01*
X99407184Y-95660051D01*
X99596588Y-95756557D01*
X99798757Y-95822246D01*
X100008713Y-95855500D01*
X100008714Y-95855500D01*
X100221286Y-95855500D01*
X100221287Y-95855500D01*
X100431243Y-95822246D01*
X100633412Y-95756557D01*
X100822816Y-95660051D01*
X100964831Y-95556872D01*
X100994786Y-95535109D01*
X100994788Y-95535106D01*
X100994792Y-95535104D01*
X101145104Y-95384792D01*
X101145106Y-95384788D01*
X101145109Y-95384786D01*
X101270048Y-95212820D01*
X101270047Y-95212820D01*
X101270051Y-95212816D01*
X101274514Y-95204054D01*
X101322488Y-95153259D01*
X101390308Y-95136463D01*
X101456444Y-95158999D01*
X101495486Y-95204056D01*
X101499951Y-95212820D01*
X101624890Y-95384786D01*
X101775213Y-95535109D01*
X101947179Y-95660048D01*
X101947181Y-95660049D01*
X101947184Y-95660051D01*
X102136588Y-95756557D01*
X102338757Y-95822246D01*
X102548713Y-95855500D01*
X102548714Y-95855500D01*
X102761286Y-95855500D01*
X102761287Y-95855500D01*
X102971243Y-95822246D01*
X103173412Y-95756557D01*
X103362816Y-95660051D01*
X103504831Y-95556872D01*
X103534786Y-95535109D01*
X103534788Y-95535106D01*
X103534792Y-95535104D01*
X103685104Y-95384792D01*
X103685106Y-95384788D01*
X103685109Y-95384786D01*
X103810048Y-95212820D01*
X103810047Y-95212820D01*
X103810051Y-95212816D01*
X103814514Y-95204054D01*
X103862488Y-95153259D01*
X103930308Y-95136463D01*
X103996444Y-95158999D01*
X104035486Y-95204056D01*
X104039951Y-95212820D01*
X104164890Y-95384786D01*
X104315213Y-95535109D01*
X104487179Y-95660048D01*
X104487181Y-95660049D01*
X104487184Y-95660051D01*
X104676588Y-95756557D01*
X104878757Y-95822246D01*
X105088713Y-95855500D01*
X105088714Y-95855500D01*
X105301286Y-95855500D01*
X105301287Y-95855500D01*
X105511243Y-95822246D01*
X105713412Y-95756557D01*
X105902816Y-95660051D01*
X106044831Y-95556872D01*
X106074786Y-95535109D01*
X106074788Y-95535106D01*
X106074792Y-95535104D01*
X106225104Y-95384792D01*
X106225106Y-95384788D01*
X106225109Y-95384786D01*
X106350048Y-95212820D01*
X106350047Y-95212820D01*
X106350051Y-95212816D01*
X106354514Y-95204054D01*
X106402488Y-95153259D01*
X106470308Y-95136463D01*
X106536444Y-95158999D01*
X106575486Y-95204056D01*
X106579951Y-95212820D01*
X106704890Y-95384786D01*
X106855213Y-95535109D01*
X107027179Y-95660048D01*
X107027181Y-95660049D01*
X107027184Y-95660051D01*
X107216588Y-95756557D01*
X107418757Y-95822246D01*
X107628713Y-95855500D01*
X107628714Y-95855500D01*
X107841286Y-95855500D01*
X107841287Y-95855500D01*
X108051243Y-95822246D01*
X108253412Y-95756557D01*
X108442816Y-95660051D01*
X108584831Y-95556872D01*
X108614786Y-95535109D01*
X108614788Y-95535106D01*
X108614792Y-95535104D01*
X108765104Y-95384792D01*
X108765106Y-95384788D01*
X108765109Y-95384786D01*
X108890048Y-95212820D01*
X108890047Y-95212820D01*
X108890051Y-95212816D01*
X108986557Y-95023412D01*
X109052246Y-94821243D01*
X109085500Y-94611287D01*
X109085500Y-94398713D01*
X109052246Y-94188757D01*
X109038506Y-94146473D01*
X109036512Y-94076635D01*
X109068755Y-94020478D01*
X109214250Y-93874983D01*
X117899500Y-93874983D01*
X117899500Y-95225001D01*
X117899501Y-95225018D01*
X117910000Y-95327796D01*
X117910001Y-95327799D01*
X117965185Y-95494331D01*
X117965187Y-95494336D01*
X117988870Y-95532732D01*
X118057288Y-95643656D01*
X118181344Y-95767712D01*
X118330666Y-95859814D01*
X118497203Y-95914999D01*
X118599991Y-95925500D01*
X119400008Y-95925499D01*
X119400016Y-95925498D01*
X119400019Y-95925498D01*
X119456302Y-95919748D01*
X119502797Y-95914999D01*
X119669334Y-95859814D01*
X119818656Y-95767712D01*
X119942712Y-95643656D01*
X119982310Y-95579456D01*
X120034258Y-95532732D01*
X120103220Y-95521509D01*
X120167303Y-95549352D01*
X120175530Y-95556872D01*
X120283072Y-95664414D01*
X120423212Y-95766232D01*
X120577555Y-95844873D01*
X120742299Y-95898402D01*
X120913389Y-95925500D01*
X120913390Y-95925500D01*
X121086610Y-95925500D01*
X121086611Y-95925500D01*
X121257701Y-95898402D01*
X121422445Y-95844873D01*
X121576788Y-95766232D01*
X121716928Y-95664414D01*
X121839414Y-95541928D01*
X121941232Y-95401788D01*
X122019873Y-95247445D01*
X122073402Y-95082701D01*
X122100500Y-94911611D01*
X122100500Y-94188389D01*
X122073402Y-94017299D01*
X122019873Y-93852555D01*
X121941232Y-93698212D01*
X121839414Y-93558072D01*
X121716928Y-93435586D01*
X121576788Y-93333768D01*
X121422445Y-93255127D01*
X121257701Y-93201598D01*
X121257699Y-93201597D01*
X121257698Y-93201597D01*
X121126271Y-93180781D01*
X121086611Y-93174500D01*
X120913389Y-93174500D01*
X120873728Y-93180781D01*
X120742302Y-93201597D01*
X120577552Y-93255128D01*
X120423211Y-93333768D01*
X120283073Y-93435585D01*
X120175530Y-93543128D01*
X120114207Y-93576612D01*
X120044515Y-93571628D01*
X119988582Y-93529756D01*
X119982310Y-93520543D01*
X119942712Y-93456344D01*
X119818656Y-93332288D01*
X119693559Y-93255128D01*
X119669336Y-93240187D01*
X119669331Y-93240185D01*
X119623424Y-93224973D01*
X119502797Y-93185001D01*
X119502795Y-93185000D01*
X119400010Y-93174500D01*
X118599998Y-93174500D01*
X118599980Y-93174501D01*
X118497203Y-93185000D01*
X118497200Y-93185001D01*
X118330668Y-93240185D01*
X118330663Y-93240187D01*
X118181342Y-93332289D01*
X118057289Y-93456342D01*
X117965187Y-93605663D01*
X117965185Y-93605668D01*
X117937349Y-93689670D01*
X117910001Y-93772203D01*
X117910001Y-93772204D01*
X117910000Y-93772204D01*
X117899500Y-93874983D01*
X109214250Y-93874983D01*
X110452416Y-92636819D01*
X110513739Y-92603334D01*
X110540097Y-92600500D01*
X133153331Y-92600500D01*
X133153347Y-92600501D01*
X133160943Y-92600501D01*
X133319054Y-92600501D01*
X133319057Y-92600501D01*
X133471785Y-92559577D01*
X133521904Y-92530639D01*
X133608716Y-92480520D01*
X133720520Y-92368716D01*
X133720520Y-92368714D01*
X133730728Y-92358507D01*
X133730730Y-92358504D01*
X138997416Y-87091818D01*
X139058739Y-87058333D01*
X139085097Y-87055499D01*
X140432871Y-87055499D01*
X140432872Y-87055499D01*
X140492483Y-87049091D01*
X140627331Y-86998796D01*
X140742546Y-86912546D01*
X140828796Y-86797331D01*
X140879091Y-86662483D01*
X140885500Y-86602873D01*
X140885499Y-85598713D01*
X148444500Y-85598713D01*
X148444500Y-85811286D01*
X148473892Y-85996863D01*
X148477754Y-86021243D01*
X148487146Y-86050150D01*
X148543444Y-86223414D01*
X148639951Y-86412820D01*
X148764890Y-86584786D01*
X148915213Y-86735109D01*
X149087179Y-86860048D01*
X149087181Y-86860049D01*
X149087184Y-86860051D01*
X149276588Y-86956557D01*
X149478757Y-87022246D01*
X149688713Y-87055500D01*
X149688714Y-87055500D01*
X149901286Y-87055500D01*
X149901287Y-87055500D01*
X150111243Y-87022246D01*
X150313412Y-86956557D01*
X150502816Y-86860051D01*
X150524789Y-86844086D01*
X150674786Y-86735109D01*
X150674788Y-86735106D01*
X150674792Y-86735104D01*
X150825104Y-86584792D01*
X150825106Y-86584788D01*
X150825109Y-86584786D01*
X150950048Y-86412820D01*
X150950047Y-86412820D01*
X150950051Y-86412816D01*
X150954514Y-86404054D01*
X151002488Y-86353259D01*
X151070308Y-86336463D01*
X151136444Y-86358999D01*
X151175486Y-86404056D01*
X151179951Y-86412820D01*
X151304890Y-86584786D01*
X151455213Y-86735109D01*
X151627179Y-86860048D01*
X151627181Y-86860049D01*
X151627184Y-86860051D01*
X151816588Y-86956557D01*
X152018757Y-87022246D01*
X152228713Y-87055500D01*
X152228714Y-87055500D01*
X152441286Y-87055500D01*
X152441287Y-87055500D01*
X152651243Y-87022246D01*
X152853412Y-86956557D01*
X153042816Y-86860051D01*
X153064789Y-86844086D01*
X153214786Y-86735109D01*
X153214788Y-86735106D01*
X153214792Y-86735104D01*
X153365104Y-86584792D01*
X153365106Y-86584788D01*
X153365109Y-86584786D01*
X153490048Y-86412820D01*
X153490047Y-86412820D01*
X153490051Y-86412816D01*
X153494514Y-86404054D01*
X153542488Y-86353259D01*
X153610308Y-86336463D01*
X153676444Y-86358999D01*
X153715486Y-86404056D01*
X153719951Y-86412820D01*
X153844890Y-86584786D01*
X153995213Y-86735109D01*
X154167179Y-86860048D01*
X154167181Y-86860049D01*
X154167184Y-86860051D01*
X154356588Y-86956557D01*
X154558757Y-87022246D01*
X154768713Y-87055500D01*
X154768714Y-87055500D01*
X154981286Y-87055500D01*
X154981287Y-87055500D01*
X155191243Y-87022246D01*
X155393412Y-86956557D01*
X155582816Y-86860051D01*
X155604789Y-86844086D01*
X155754786Y-86735109D01*
X155754788Y-86735106D01*
X155754792Y-86735104D01*
X155905104Y-86584792D01*
X155905106Y-86584788D01*
X155905109Y-86584786D01*
X156030048Y-86412820D01*
X156030047Y-86412820D01*
X156030051Y-86412816D01*
X156034514Y-86404054D01*
X156082488Y-86353259D01*
X156150308Y-86336463D01*
X156216444Y-86358999D01*
X156255486Y-86404056D01*
X156259951Y-86412820D01*
X156384890Y-86584786D01*
X156535213Y-86735109D01*
X156707179Y-86860048D01*
X156707181Y-86860049D01*
X156707184Y-86860051D01*
X156896588Y-86956557D01*
X157098757Y-87022246D01*
X157308713Y-87055500D01*
X157308714Y-87055500D01*
X157521286Y-87055500D01*
X157521287Y-87055500D01*
X157731243Y-87022246D01*
X157933412Y-86956557D01*
X158122816Y-86860051D01*
X158144789Y-86844086D01*
X158294786Y-86735109D01*
X158294788Y-86735106D01*
X158294792Y-86735104D01*
X158445104Y-86584792D01*
X158445106Y-86584788D01*
X158445109Y-86584786D01*
X158570048Y-86412820D01*
X158570047Y-86412820D01*
X158570051Y-86412816D01*
X158574514Y-86404054D01*
X158622488Y-86353259D01*
X158690308Y-86336463D01*
X158756444Y-86358999D01*
X158795486Y-86404056D01*
X158799951Y-86412820D01*
X158924890Y-86584786D01*
X159075213Y-86735109D01*
X159247179Y-86860048D01*
X159247181Y-86860049D01*
X159247184Y-86860051D01*
X159436588Y-86956557D01*
X159638757Y-87022246D01*
X159848713Y-87055500D01*
X159848714Y-87055500D01*
X160061286Y-87055500D01*
X160061287Y-87055500D01*
X160271243Y-87022246D01*
X160473412Y-86956557D01*
X160662816Y-86860051D01*
X160684789Y-86844086D01*
X160834786Y-86735109D01*
X160834788Y-86735106D01*
X160834792Y-86735104D01*
X160985104Y-86584792D01*
X160985106Y-86584788D01*
X160985109Y-86584786D01*
X161110048Y-86412820D01*
X161110047Y-86412820D01*
X161110051Y-86412816D01*
X161114514Y-86404054D01*
X161162488Y-86353259D01*
X161230308Y-86336463D01*
X161296444Y-86358999D01*
X161335486Y-86404056D01*
X161339951Y-86412820D01*
X161464890Y-86584786D01*
X161615213Y-86735109D01*
X161787179Y-86860048D01*
X161787181Y-86860049D01*
X161787184Y-86860051D01*
X161976588Y-86956557D01*
X162178757Y-87022246D01*
X162388713Y-87055500D01*
X162388714Y-87055500D01*
X162601286Y-87055500D01*
X162601287Y-87055500D01*
X162811243Y-87022246D01*
X163013412Y-86956557D01*
X163202816Y-86860051D01*
X163374792Y-86735104D01*
X163488329Y-86621566D01*
X163549648Y-86588084D01*
X163619340Y-86593068D01*
X163675274Y-86634939D01*
X163692189Y-86665917D01*
X163741202Y-86797328D01*
X163741206Y-86797335D01*
X163827452Y-86912544D01*
X163827455Y-86912547D01*
X163942664Y-86998793D01*
X163942671Y-86998797D01*
X164077517Y-87049091D01*
X164077516Y-87049091D01*
X164084444Y-87049835D01*
X164137127Y-87055500D01*
X165932872Y-87055499D01*
X165992483Y-87049091D01*
X166127331Y-86998796D01*
X166242546Y-86912546D01*
X166328796Y-86797331D01*
X166379091Y-86662483D01*
X166385500Y-86602873D01*
X166385499Y-84807128D01*
X166379091Y-84747517D01*
X166377844Y-84744174D01*
X166328797Y-84612671D01*
X166328793Y-84612664D01*
X166242547Y-84497455D01*
X166242544Y-84497452D01*
X166127335Y-84411206D01*
X166127328Y-84411202D01*
X165992482Y-84360908D01*
X165992483Y-84360908D01*
X165932883Y-84354501D01*
X165932881Y-84354500D01*
X165932873Y-84354500D01*
X165932864Y-84354500D01*
X164137129Y-84354500D01*
X164137123Y-84354501D01*
X164077516Y-84360908D01*
X163942671Y-84411202D01*
X163942664Y-84411206D01*
X163827455Y-84497452D01*
X163827452Y-84497455D01*
X163741206Y-84612664D01*
X163741203Y-84612669D01*
X163692189Y-84744083D01*
X163650317Y-84800016D01*
X163584853Y-84824433D01*
X163516580Y-84809581D01*
X163488326Y-84788430D01*
X163374786Y-84674890D01*
X163202820Y-84549951D01*
X163013414Y-84453444D01*
X163013413Y-84453443D01*
X163013412Y-84453443D01*
X162811243Y-84387754D01*
X162811241Y-84387753D01*
X162811240Y-84387753D01*
X162649957Y-84362208D01*
X162601287Y-84354500D01*
X162388713Y-84354500D01*
X162340042Y-84362208D01*
X162178760Y-84387753D01*
X161976585Y-84453444D01*
X161787179Y-84549951D01*
X161615213Y-84674890D01*
X161464890Y-84825213D01*
X161339949Y-84997182D01*
X161335484Y-85005946D01*
X161287509Y-85056742D01*
X161219688Y-85073536D01*
X161153553Y-85050998D01*
X161114516Y-85005946D01*
X161110050Y-84997182D01*
X160985109Y-84825213D01*
X160834786Y-84674890D01*
X160662820Y-84549951D01*
X160473414Y-84453444D01*
X160473413Y-84453443D01*
X160473412Y-84453443D01*
X160271243Y-84387754D01*
X160271241Y-84387753D01*
X160271240Y-84387753D01*
X160109957Y-84362208D01*
X160061287Y-84354500D01*
X159848713Y-84354500D01*
X159800042Y-84362208D01*
X159638760Y-84387753D01*
X159436585Y-84453444D01*
X159247179Y-84549951D01*
X159075213Y-84674890D01*
X158924890Y-84825213D01*
X158799949Y-84997182D01*
X158795484Y-85005946D01*
X158747509Y-85056742D01*
X158679688Y-85073536D01*
X158613553Y-85050998D01*
X158574516Y-85005946D01*
X158570050Y-84997182D01*
X158445109Y-84825213D01*
X158294786Y-84674890D01*
X158122820Y-84549951D01*
X157933414Y-84453444D01*
X157933413Y-84453443D01*
X157933412Y-84453443D01*
X157731243Y-84387754D01*
X157731241Y-84387753D01*
X157731240Y-84387753D01*
X157569957Y-84362208D01*
X157521287Y-84354500D01*
X157308713Y-84354500D01*
X157260042Y-84362208D01*
X157098760Y-84387753D01*
X156896585Y-84453444D01*
X156707179Y-84549951D01*
X156535213Y-84674890D01*
X156384890Y-84825213D01*
X156259949Y-84997182D01*
X156255484Y-85005946D01*
X156207509Y-85056742D01*
X156139688Y-85073536D01*
X156073553Y-85050998D01*
X156034516Y-85005946D01*
X156030050Y-84997182D01*
X155905109Y-84825213D01*
X155754786Y-84674890D01*
X155582820Y-84549951D01*
X155393414Y-84453444D01*
X155393413Y-84453443D01*
X155393412Y-84453443D01*
X155191243Y-84387754D01*
X155191241Y-84387753D01*
X155191240Y-84387753D01*
X155029957Y-84362208D01*
X154981287Y-84354500D01*
X154768713Y-84354500D01*
X154720042Y-84362208D01*
X154558760Y-84387753D01*
X154356585Y-84453444D01*
X154167179Y-84549951D01*
X153995213Y-84674890D01*
X153844890Y-84825213D01*
X153719949Y-84997182D01*
X153715484Y-85005946D01*
X153667509Y-85056742D01*
X153599688Y-85073536D01*
X153533553Y-85050998D01*
X153494516Y-85005946D01*
X153490050Y-84997182D01*
X153365109Y-84825213D01*
X153214786Y-84674890D01*
X153042820Y-84549951D01*
X152853414Y-84453444D01*
X152853413Y-84453443D01*
X152853412Y-84453443D01*
X152651243Y-84387754D01*
X152651241Y-84387753D01*
X152651240Y-84387753D01*
X152489957Y-84362208D01*
X152441287Y-84354500D01*
X152228713Y-84354500D01*
X152180042Y-84362208D01*
X152018760Y-84387753D01*
X151816585Y-84453444D01*
X151627179Y-84549951D01*
X151455213Y-84674890D01*
X151304890Y-84825213D01*
X151179949Y-84997182D01*
X151175484Y-85005946D01*
X151127509Y-85056742D01*
X151059688Y-85073536D01*
X150993553Y-85050998D01*
X150954516Y-85005946D01*
X150950050Y-84997182D01*
X150825109Y-84825213D01*
X150674786Y-84674890D01*
X150502820Y-84549951D01*
X150313414Y-84453444D01*
X150313413Y-84453443D01*
X150313412Y-84453443D01*
X150111243Y-84387754D01*
X150111241Y-84387753D01*
X150111240Y-84387753D01*
X149949957Y-84362208D01*
X149901287Y-84354500D01*
X149688713Y-84354500D01*
X149640042Y-84362208D01*
X149478760Y-84387753D01*
X149276585Y-84453444D01*
X149087179Y-84549951D01*
X148915213Y-84674890D01*
X148764890Y-84825213D01*
X148639951Y-84997179D01*
X148543444Y-85186585D01*
X148477753Y-85388760D01*
X148444500Y-85598713D01*
X140885499Y-85598713D01*
X140885499Y-84807128D01*
X140879091Y-84747517D01*
X140877844Y-84744174D01*
X140828797Y-84612671D01*
X140828793Y-84612664D01*
X140742547Y-84497455D01*
X140742544Y-84497452D01*
X140627335Y-84411206D01*
X140627328Y-84411202D01*
X140492482Y-84360908D01*
X140492483Y-84360908D01*
X140432883Y-84354501D01*
X140432881Y-84354500D01*
X140432873Y-84354500D01*
X140432864Y-84354500D01*
X138637129Y-84354500D01*
X138637123Y-84354501D01*
X138577516Y-84360908D01*
X138442671Y-84411202D01*
X138442664Y-84411206D01*
X138327455Y-84497452D01*
X138327452Y-84497455D01*
X138241206Y-84612664D01*
X138241203Y-84612669D01*
X138192189Y-84744083D01*
X138150317Y-84800016D01*
X138084853Y-84824433D01*
X138016580Y-84809581D01*
X137988326Y-84788430D01*
X137874786Y-84674890D01*
X137702820Y-84549951D01*
X137513414Y-84453444D01*
X137513413Y-84453443D01*
X137513412Y-84453443D01*
X137311243Y-84387754D01*
X137311241Y-84387753D01*
X137311240Y-84387753D01*
X137149957Y-84362208D01*
X137101287Y-84354500D01*
X136888713Y-84354500D01*
X136840042Y-84362208D01*
X136678760Y-84387753D01*
X136476585Y-84453444D01*
X136287179Y-84549951D01*
X136115213Y-84674890D01*
X135964890Y-84825213D01*
X135839949Y-84997182D01*
X135835484Y-85005946D01*
X135787509Y-85056742D01*
X135719688Y-85073536D01*
X135653553Y-85050998D01*
X135614516Y-85005946D01*
X135610050Y-84997182D01*
X135485109Y-84825213D01*
X135334786Y-84674890D01*
X135162820Y-84549951D01*
X134973414Y-84453444D01*
X134973413Y-84453443D01*
X134973412Y-84453443D01*
X134771243Y-84387754D01*
X134771241Y-84387753D01*
X134771240Y-84387753D01*
X134609957Y-84362208D01*
X134561287Y-84354500D01*
X134348713Y-84354500D01*
X134320006Y-84359046D01*
X134138757Y-84387753D01*
X134096473Y-84401492D01*
X134026632Y-84403486D01*
X133970476Y-84371241D01*
X133737590Y-84138355D01*
X133737588Y-84138352D01*
X133618717Y-84019481D01*
X133618716Y-84019480D01*
X133531904Y-83969360D01*
X133531904Y-83969359D01*
X133531900Y-83969358D01*
X133481785Y-83940423D01*
X133329057Y-83899499D01*
X133170943Y-83899499D01*
X133163347Y-83899499D01*
X133163331Y-83899500D01*
X128586669Y-83899500D01*
X128586653Y-83899499D01*
X128579057Y-83899499D01*
X128420943Y-83899499D01*
X128313587Y-83928265D01*
X128268210Y-83940424D01*
X128268209Y-83940425D01*
X128218096Y-83969359D01*
X128218095Y-83969360D01*
X128205401Y-83976689D01*
X128131285Y-84019479D01*
X128131282Y-84019481D01*
X128019478Y-84131286D01*
X127644942Y-84505821D01*
X127583619Y-84539306D01*
X127513927Y-84534322D01*
X127500966Y-84528625D01*
X127353414Y-84453444D01*
X127353413Y-84453443D01*
X127353412Y-84453443D01*
X127151243Y-84387754D01*
X127151241Y-84387753D01*
X127151240Y-84387753D01*
X126989957Y-84362208D01*
X126941287Y-84354500D01*
X126728713Y-84354500D01*
X126680042Y-84362208D01*
X126518760Y-84387753D01*
X126316585Y-84453444D01*
X126127179Y-84549951D01*
X125955213Y-84674890D01*
X125804890Y-84825213D01*
X125679949Y-84997182D01*
X125675484Y-85005946D01*
X125627509Y-85056742D01*
X125559688Y-85073536D01*
X125493553Y-85050998D01*
X125454516Y-85005946D01*
X125450050Y-84997182D01*
X125325109Y-84825213D01*
X125174786Y-84674890D01*
X125002820Y-84549951D01*
X124813414Y-84453444D01*
X124813413Y-84453443D01*
X124813412Y-84453443D01*
X124611243Y-84387754D01*
X124611241Y-84387753D01*
X124611240Y-84387753D01*
X124449957Y-84362208D01*
X124401287Y-84354500D01*
X124188713Y-84354500D01*
X124140042Y-84362208D01*
X123978760Y-84387753D01*
X123776585Y-84453444D01*
X123587179Y-84549951D01*
X123415213Y-84674890D01*
X123264890Y-84825213D01*
X123139951Y-84997179D01*
X123043444Y-85186585D01*
X122977753Y-85388760D01*
X122944500Y-85598713D01*
X122944500Y-85811286D01*
X122973892Y-85996863D01*
X122977754Y-86021243D01*
X122987146Y-86050150D01*
X123043444Y-86223414D01*
X123139951Y-86412820D01*
X123264890Y-86584786D01*
X123415213Y-86735109D01*
X123587179Y-86860048D01*
X123587181Y-86860049D01*
X123587184Y-86860051D01*
X123776588Y-86956557D01*
X123978757Y-87022246D01*
X124188713Y-87055500D01*
X124188714Y-87055500D01*
X124401286Y-87055500D01*
X124401287Y-87055500D01*
X124611243Y-87022246D01*
X124813412Y-86956557D01*
X125002816Y-86860051D01*
X125024789Y-86844086D01*
X125174786Y-86735109D01*
X125174788Y-86735106D01*
X125174792Y-86735104D01*
X125325104Y-86584792D01*
X125325106Y-86584788D01*
X125325109Y-86584786D01*
X125450048Y-86412820D01*
X125450047Y-86412820D01*
X125450051Y-86412816D01*
X125454514Y-86404054D01*
X125502488Y-86353259D01*
X125570308Y-86336463D01*
X125636444Y-86358999D01*
X125675486Y-86404056D01*
X125679951Y-86412820D01*
X125804890Y-86584786D01*
X125955213Y-86735109D01*
X126127179Y-86860048D01*
X126127181Y-86860049D01*
X126127184Y-86860051D01*
X126316588Y-86956557D01*
X126518757Y-87022246D01*
X126728713Y-87055500D01*
X126728714Y-87055500D01*
X126941286Y-87055500D01*
X126941287Y-87055500D01*
X127151243Y-87022246D01*
X127222183Y-86999195D01*
X127292023Y-86997201D01*
X127351856Y-87033281D01*
X127382684Y-87095982D01*
X127384500Y-87117127D01*
X127384500Y-88214901D01*
X127375856Y-88244337D01*
X127369333Y-88274327D01*
X127365577Y-88279344D01*
X127364815Y-88281940D01*
X127348182Y-88302582D01*
X127287584Y-88363181D01*
X127226261Y-88396666D01*
X127199902Y-88399500D01*
X105706670Y-88399500D01*
X105706654Y-88399499D01*
X105699058Y-88399499D01*
X105540943Y-88399499D01*
X105464579Y-88419961D01*
X105388214Y-88440423D01*
X105388209Y-88440426D01*
X105251290Y-88519475D01*
X105251282Y-88519481D01*
X100599522Y-93171241D01*
X100538199Y-93204726D01*
X100473523Y-93201491D01*
X100431245Y-93187754D01*
X100291272Y-93165584D01*
X100221287Y-93154500D01*
X100008713Y-93154500D01*
X99960042Y-93162208D01*
X99798760Y-93187753D01*
X99596585Y-93253444D01*
X99407179Y-93349951D01*
X99235213Y-93474890D01*
X99084890Y-93625213D01*
X98959949Y-93797182D01*
X98955202Y-93806499D01*
X98907227Y-93857293D01*
X98839405Y-93874087D01*
X98773271Y-93851548D01*
X98734234Y-93806495D01*
X98729626Y-93797452D01*
X98690270Y-93743282D01*
X98690269Y-93743282D01*
X98057962Y-94375590D01*
X98040925Y-94312007D01*
X97975099Y-94197993D01*
X97882007Y-94104901D01*
X97767993Y-94039075D01*
X97704409Y-94022037D01*
X98336716Y-93389728D01*
X98282550Y-93350375D01*
X98093217Y-93253904D01*
X97891129Y-93188242D01*
X97681246Y-93155000D01*
X97468754Y-93155000D01*
X97258872Y-93188242D01*
X97258869Y-93188242D01*
X97056782Y-93253904D01*
X96867439Y-93350380D01*
X96813282Y-93389727D01*
X96813282Y-93389728D01*
X97445591Y-94022037D01*
X97382007Y-94039075D01*
X97267993Y-94104901D01*
X97174901Y-94197993D01*
X97109075Y-94312007D01*
X97092037Y-94375591D01*
X96459728Y-93743282D01*
X96459727Y-93743282D01*
X96420380Y-93797440D01*
X96420376Y-93797446D01*
X96415760Y-93806505D01*
X96367781Y-93857297D01*
X96299959Y-93874087D01*
X96233826Y-93851543D01*
X96194794Y-93806493D01*
X96190051Y-93797184D01*
X96190049Y-93797181D01*
X96190048Y-93797179D01*
X96065109Y-93625213D01*
X95914786Y-93474890D01*
X95742820Y-93349951D01*
X95553414Y-93253444D01*
X95553413Y-93253443D01*
X95553412Y-93253443D01*
X95351243Y-93187754D01*
X95351241Y-93187753D01*
X95351240Y-93187753D01*
X95189957Y-93162208D01*
X95141287Y-93154500D01*
X94928713Y-93154500D01*
X94880042Y-93162208D01*
X94718760Y-93187753D01*
X94516585Y-93253444D01*
X94327179Y-93349951D01*
X94155213Y-93474890D01*
X94004890Y-93625213D01*
X93879951Y-93797179D01*
X93783444Y-93986585D01*
X93717753Y-94188760D01*
X93717753Y-94188762D01*
X93684500Y-94398713D01*
X66500500Y-94398713D01*
X66500500Y-76192135D01*
X82915500Y-76192135D01*
X82915500Y-78187870D01*
X82915501Y-78187876D01*
X82921908Y-78247483D01*
X82972202Y-78382328D01*
X82972206Y-78382335D01*
X83058452Y-78497544D01*
X83058455Y-78497547D01*
X83173664Y-78583793D01*
X83173669Y-78583796D01*
X83203432Y-78594896D01*
X83259366Y-78636767D01*
X83283784Y-78702230D01*
X83268933Y-78770504D01*
X83260418Y-78783964D01*
X83125423Y-78969768D01*
X83021770Y-79173196D01*
X82951215Y-79390339D01*
X82915500Y-79615837D01*
X82915500Y-79844162D01*
X82951215Y-80069660D01*
X83021770Y-80286803D01*
X83125421Y-80490228D01*
X83259621Y-80674937D01*
X83421063Y-80836379D01*
X83508616Y-80899990D01*
X83551280Y-80955319D01*
X83557259Y-81024933D01*
X83533766Y-81069456D01*
X83532689Y-81083136D01*
X84236591Y-81787037D01*
X84173007Y-81804075D01*
X84058993Y-81869901D01*
X83965901Y-81962993D01*
X83900075Y-82077007D01*
X83883037Y-82140590D01*
X83179136Y-81436689D01*
X83179135Y-81436689D01*
X83125849Y-81510033D01*
X83125848Y-81510035D01*
X83022230Y-81713395D01*
X82951704Y-81930455D01*
X82916000Y-82155883D01*
X82916000Y-82384116D01*
X82951704Y-82609544D01*
X83022230Y-82826604D01*
X83125851Y-83029969D01*
X83179135Y-83103309D01*
X83179137Y-83103309D01*
X83883037Y-82399408D01*
X83900075Y-82462993D01*
X83965901Y-82577007D01*
X84058993Y-82670099D01*
X84173007Y-82735925D01*
X84236590Y-82752962D01*
X83541481Y-83448069D01*
X83556673Y-83510822D01*
X83555377Y-83537755D01*
X83557685Y-83564623D01*
X83553722Y-83572131D01*
X83553315Y-83580611D01*
X83537662Y-83602568D01*
X83533720Y-83610041D01*
X83532689Y-83623136D01*
X84236591Y-84327037D01*
X84173007Y-84344075D01*
X84058993Y-84409901D01*
X83965901Y-84502993D01*
X83900075Y-84617007D01*
X83883037Y-84680590D01*
X83179136Y-83976689D01*
X83179135Y-83976689D01*
X83125849Y-84050033D01*
X83125848Y-84050035D01*
X83022230Y-84253395D01*
X82951704Y-84470455D01*
X82916000Y-84695883D01*
X82916000Y-84924116D01*
X82951704Y-85149544D01*
X83022230Y-85366604D01*
X83125851Y-85569969D01*
X83179135Y-85643309D01*
X83179137Y-85643309D01*
X83883037Y-84939408D01*
X83900075Y-85002993D01*
X83965901Y-85117007D01*
X84058993Y-85210099D01*
X84173007Y-85275925D01*
X84236590Y-85292962D01*
X83532688Y-85996862D01*
X83532689Y-85996863D01*
X83606030Y-86050148D01*
X83809395Y-86153769D01*
X84026455Y-86224295D01*
X84251884Y-86260000D01*
X84480116Y-86260000D01*
X84705544Y-86224295D01*
X84922604Y-86153769D01*
X85125966Y-86050150D01*
X85199309Y-85996862D01*
X85199310Y-85996862D01*
X84495409Y-85292962D01*
X84558993Y-85275925D01*
X84673007Y-85210099D01*
X84766099Y-85117007D01*
X84831925Y-85002993D01*
X84848962Y-84939410D01*
X85552862Y-85643310D01*
X85552862Y-85643309D01*
X85606150Y-85569966D01*
X85709769Y-85366604D01*
X85780295Y-85149544D01*
X85816000Y-84924116D01*
X85816000Y-84695883D01*
X85780295Y-84470455D01*
X85709769Y-84253395D01*
X85606148Y-84050030D01*
X85552863Y-83976689D01*
X85552862Y-83976688D01*
X84848962Y-84680589D01*
X84831925Y-84617007D01*
X84766099Y-84502993D01*
X84673007Y-84409901D01*
X84558993Y-84344075D01*
X84495408Y-84327037D01*
X85199309Y-83623137D01*
X85198127Y-83608116D01*
X85180292Y-83584988D01*
X85174313Y-83515374D01*
X85198279Y-83469950D01*
X85199310Y-83456862D01*
X84495409Y-82752962D01*
X84558993Y-82735925D01*
X84673007Y-82670099D01*
X84766099Y-82577007D01*
X84831925Y-82462993D01*
X84848962Y-82399410D01*
X85552862Y-83103310D01*
X85552862Y-83103309D01*
X85606150Y-83029966D01*
X85709769Y-82826604D01*
X85780295Y-82609544D01*
X85816000Y-82384116D01*
X85816000Y-82155883D01*
X85780295Y-81930455D01*
X85709769Y-81713395D01*
X85606148Y-81510030D01*
X85552863Y-81436689D01*
X85552862Y-81436688D01*
X84848962Y-82140589D01*
X84831925Y-82077007D01*
X84766099Y-81962993D01*
X84673007Y-81869901D01*
X84558993Y-81804075D01*
X84495408Y-81787037D01*
X85199309Y-81083137D01*
X85198105Y-81067845D01*
X85180717Y-81045295D01*
X85174739Y-80975681D01*
X85207346Y-80913887D01*
X85223380Y-80899992D01*
X85310937Y-80836379D01*
X85472379Y-80674937D01*
X85606579Y-80490228D01*
X85710231Y-80286799D01*
X85780784Y-80069660D01*
X85816500Y-79844162D01*
X85816500Y-79615837D01*
X85780784Y-79390339D01*
X85710229Y-79173196D01*
X85606578Y-78969771D01*
X85471581Y-78783965D01*
X85448101Y-78718159D01*
X85463926Y-78650105D01*
X85514032Y-78601410D01*
X85528562Y-78594898D01*
X85558331Y-78583796D01*
X85673546Y-78497546D01*
X85759796Y-78382331D01*
X85810091Y-78247483D01*
X85816500Y-78187873D01*
X85816499Y-76618713D01*
X93684500Y-76618713D01*
X93684500Y-76831286D01*
X93717753Y-77041239D01*
X93783444Y-77243414D01*
X93879951Y-77432820D01*
X94004890Y-77604786D01*
X94155213Y-77755109D01*
X94327179Y-77880048D01*
X94327181Y-77880049D01*
X94327184Y-77880051D01*
X94516588Y-77976557D01*
X94718757Y-78042246D01*
X94928713Y-78075500D01*
X94928714Y-78075500D01*
X95141286Y-78075500D01*
X95141287Y-78075500D01*
X95351243Y-78042246D01*
X95553412Y-77976557D01*
X95742816Y-77880051D01*
X95829138Y-77817335D01*
X95914786Y-77755109D01*
X95914788Y-77755106D01*
X95914792Y-77755104D01*
X96065104Y-77604792D01*
X96065106Y-77604788D01*
X96065109Y-77604786D01*
X96150890Y-77486717D01*
X96190051Y-77432816D01*
X96194793Y-77423508D01*
X96242763Y-77372711D01*
X96310583Y-77355911D01*
X96376719Y-77378445D01*
X96415763Y-77423500D01*
X96420373Y-77432547D01*
X96459728Y-77486716D01*
X97092037Y-76854408D01*
X97109075Y-76917993D01*
X97174901Y-77032007D01*
X97267993Y-77125099D01*
X97382007Y-77190925D01*
X97445590Y-77207962D01*
X96813282Y-77840269D01*
X96813282Y-77840270D01*
X96867449Y-77879624D01*
X97056782Y-77976095D01*
X97258870Y-78041757D01*
X97468754Y-78075000D01*
X97681246Y-78075000D01*
X97891127Y-78041757D01*
X97891130Y-78041757D01*
X98093217Y-77976095D01*
X98282554Y-77879622D01*
X98336716Y-77840270D01*
X98336717Y-77840270D01*
X97704408Y-77207962D01*
X97767993Y-77190925D01*
X97882007Y-77125099D01*
X97975099Y-77032007D01*
X98040925Y-76917993D01*
X98057962Y-76854409D01*
X98690270Y-77486717D01*
X98690270Y-77486716D01*
X98729622Y-77432555D01*
X98734232Y-77423507D01*
X98782205Y-77372709D01*
X98850025Y-77355912D01*
X98916161Y-77378447D01*
X98955204Y-77423504D01*
X98959949Y-77432817D01*
X99084890Y-77604786D01*
X99235213Y-77755109D01*
X99407179Y-77880048D01*
X99407181Y-77880049D01*
X99407184Y-77880051D01*
X99596588Y-77976557D01*
X99798757Y-78042246D01*
X100008713Y-78075500D01*
X100008714Y-78075500D01*
X100221286Y-78075500D01*
X100221287Y-78075500D01*
X100431243Y-78042246D01*
X100633412Y-77976557D01*
X100822816Y-77880051D01*
X100909138Y-77817335D01*
X100994786Y-77755109D01*
X100994788Y-77755106D01*
X100994792Y-77755104D01*
X101145104Y-77604792D01*
X101145106Y-77604788D01*
X101145109Y-77604786D01*
X101270048Y-77432820D01*
X101270047Y-77432820D01*
X101270051Y-77432816D01*
X101274514Y-77424054D01*
X101322488Y-77373259D01*
X101390308Y-77356463D01*
X101456444Y-77378999D01*
X101495486Y-77424056D01*
X101499951Y-77432820D01*
X101624890Y-77604786D01*
X101775213Y-77755109D01*
X101947179Y-77880048D01*
X101947181Y-77880049D01*
X101947184Y-77880051D01*
X102136588Y-77976557D01*
X102338757Y-78042246D01*
X102548713Y-78075500D01*
X102548714Y-78075500D01*
X102761286Y-78075500D01*
X102761287Y-78075500D01*
X102971243Y-78042246D01*
X103173412Y-77976557D01*
X103362816Y-77880051D01*
X103449138Y-77817335D01*
X103534786Y-77755109D01*
X103534788Y-77755106D01*
X103534792Y-77755104D01*
X103685104Y-77604792D01*
X103685106Y-77604788D01*
X103685109Y-77604786D01*
X103810048Y-77432820D01*
X103810047Y-77432820D01*
X103810051Y-77432816D01*
X103814514Y-77424054D01*
X103862488Y-77373259D01*
X103930308Y-77356463D01*
X103996444Y-77378999D01*
X104035486Y-77424056D01*
X104039951Y-77432820D01*
X104164890Y-77604786D01*
X104315213Y-77755109D01*
X104487179Y-77880048D01*
X104487181Y-77880049D01*
X104487184Y-77880051D01*
X104676588Y-77976557D01*
X104878757Y-78042246D01*
X105088713Y-78075500D01*
X105088714Y-78075500D01*
X105301286Y-78075500D01*
X105301287Y-78075500D01*
X105511243Y-78042246D01*
X105713412Y-77976557D01*
X105902816Y-77880051D01*
X106074792Y-77755104D01*
X106188329Y-77641566D01*
X106249648Y-77608084D01*
X106319340Y-77613068D01*
X106375274Y-77654939D01*
X106392189Y-77685917D01*
X106441202Y-77817328D01*
X106441206Y-77817335D01*
X106527452Y-77932544D01*
X106527455Y-77932547D01*
X106642664Y-78018793D01*
X106642671Y-78018797D01*
X106777517Y-78069091D01*
X106777516Y-78069091D01*
X106784444Y-78069835D01*
X106837127Y-78075500D01*
X108632872Y-78075499D01*
X108692483Y-78069091D01*
X108827331Y-78018796D01*
X108942546Y-77932546D01*
X109028796Y-77817331D01*
X109079091Y-77682483D01*
X109085500Y-77622873D01*
X109085499Y-75827128D01*
X109079091Y-75767517D01*
X109077810Y-75764083D01*
X109028797Y-75632671D01*
X109028793Y-75632664D01*
X108942547Y-75517455D01*
X108942544Y-75517452D01*
X108827335Y-75431206D01*
X108827328Y-75431202D01*
X108692482Y-75380908D01*
X108692483Y-75380908D01*
X108632883Y-75374501D01*
X108632881Y-75374500D01*
X108632873Y-75374500D01*
X108632864Y-75374500D01*
X106837129Y-75374500D01*
X106837123Y-75374501D01*
X106777516Y-75380908D01*
X106642671Y-75431202D01*
X106642664Y-75431206D01*
X106527455Y-75517452D01*
X106527452Y-75517455D01*
X106441206Y-75632664D01*
X106441203Y-75632669D01*
X106392189Y-75764083D01*
X106350317Y-75820016D01*
X106284853Y-75844433D01*
X106216580Y-75829581D01*
X106188326Y-75808430D01*
X106074786Y-75694890D01*
X105902820Y-75569951D01*
X105713414Y-75473444D01*
X105713413Y-75473443D01*
X105713412Y-75473443D01*
X105511243Y-75407754D01*
X105511241Y-75407753D01*
X105511240Y-75407753D01*
X105349957Y-75382208D01*
X105301287Y-75374500D01*
X105088713Y-75374500D01*
X105040042Y-75382208D01*
X104878760Y-75407753D01*
X104676585Y-75473444D01*
X104487179Y-75569951D01*
X104315213Y-75694890D01*
X104164890Y-75845213D01*
X104039949Y-76017182D01*
X104035484Y-76025946D01*
X103987509Y-76076742D01*
X103919688Y-76093536D01*
X103853553Y-76070998D01*
X103814516Y-76025946D01*
X103810050Y-76017182D01*
X103685109Y-75845213D01*
X103534786Y-75694890D01*
X103362820Y-75569951D01*
X103173414Y-75473444D01*
X103173413Y-75473443D01*
X103173412Y-75473443D01*
X102971243Y-75407754D01*
X102971241Y-75407753D01*
X102971240Y-75407753D01*
X102809957Y-75382208D01*
X102761287Y-75374500D01*
X102548713Y-75374500D01*
X102500042Y-75382208D01*
X102338760Y-75407753D01*
X102136585Y-75473444D01*
X101947179Y-75569951D01*
X101775213Y-75694890D01*
X101624890Y-75845213D01*
X101499949Y-76017182D01*
X101495484Y-76025946D01*
X101447509Y-76076742D01*
X101379688Y-76093536D01*
X101313553Y-76070998D01*
X101274516Y-76025946D01*
X101270050Y-76017182D01*
X101145109Y-75845213D01*
X100994786Y-75694890D01*
X100822820Y-75569951D01*
X100633414Y-75473444D01*
X100633413Y-75473443D01*
X100633412Y-75473443D01*
X100431243Y-75407754D01*
X100431241Y-75407753D01*
X100431240Y-75407753D01*
X100269957Y-75382208D01*
X100221287Y-75374500D01*
X100008713Y-75374500D01*
X99960042Y-75382208D01*
X99798760Y-75407753D01*
X99596585Y-75473444D01*
X99407179Y-75569951D01*
X99235213Y-75694890D01*
X99084890Y-75845213D01*
X98959949Y-76017182D01*
X98955202Y-76026499D01*
X98907227Y-76077293D01*
X98839405Y-76094087D01*
X98773271Y-76071548D01*
X98734234Y-76026495D01*
X98729626Y-76017452D01*
X98690270Y-75963282D01*
X98690269Y-75963282D01*
X98057962Y-76595590D01*
X98040925Y-76532007D01*
X97975099Y-76417993D01*
X97882007Y-76324901D01*
X97767993Y-76259075D01*
X97704409Y-76242037D01*
X98336716Y-75609728D01*
X98282550Y-75570375D01*
X98093217Y-75473904D01*
X97891129Y-75408242D01*
X97681246Y-75375000D01*
X97468754Y-75375000D01*
X97258872Y-75408242D01*
X97258869Y-75408242D01*
X97056782Y-75473904D01*
X96867439Y-75570380D01*
X96813282Y-75609727D01*
X96813282Y-75609728D01*
X97445591Y-76242037D01*
X97382007Y-76259075D01*
X97267993Y-76324901D01*
X97174901Y-76417993D01*
X97109075Y-76532007D01*
X97092037Y-76595591D01*
X96459728Y-75963282D01*
X96459727Y-75963282D01*
X96420380Y-76017440D01*
X96420376Y-76017446D01*
X96415760Y-76026505D01*
X96367781Y-76077297D01*
X96299959Y-76094087D01*
X96233826Y-76071543D01*
X96194794Y-76026493D01*
X96190051Y-76017184D01*
X96190049Y-76017181D01*
X96190048Y-76017179D01*
X96065109Y-75845213D01*
X95914786Y-75694890D01*
X95742820Y-75569951D01*
X95553414Y-75473444D01*
X95553413Y-75473443D01*
X95553412Y-75473443D01*
X95351243Y-75407754D01*
X95351241Y-75407753D01*
X95351240Y-75407753D01*
X95189957Y-75382208D01*
X95141287Y-75374500D01*
X94928713Y-75374500D01*
X94880042Y-75382208D01*
X94718760Y-75407753D01*
X94516585Y-75473444D01*
X94327179Y-75569951D01*
X94155213Y-75694890D01*
X94004890Y-75845213D01*
X93879951Y-76017179D01*
X93783444Y-76206585D01*
X93717753Y-76408760D01*
X93684500Y-76618713D01*
X85816499Y-76618713D01*
X85816499Y-76192128D01*
X85810091Y-76132517D01*
X85792291Y-76084794D01*
X85759797Y-75997671D01*
X85759793Y-75997664D01*
X85673547Y-75882455D01*
X85673544Y-75882452D01*
X85558335Y-75796206D01*
X85558328Y-75796202D01*
X85423482Y-75745908D01*
X85423483Y-75745908D01*
X85363883Y-75739501D01*
X85363881Y-75739500D01*
X85363873Y-75739500D01*
X85363864Y-75739500D01*
X83368129Y-75739500D01*
X83368123Y-75739501D01*
X83308516Y-75745908D01*
X83173671Y-75796202D01*
X83173664Y-75796206D01*
X83058455Y-75882452D01*
X83058452Y-75882455D01*
X82972206Y-75997664D01*
X82972202Y-75997671D01*
X82921908Y-76132517D01*
X82915501Y-76192116D01*
X82915501Y-76192123D01*
X82915500Y-76192135D01*
X66500500Y-76192135D01*
X66500500Y-70358713D01*
X122934500Y-70358713D01*
X122934500Y-70571286D01*
X122967753Y-70781239D01*
X123033444Y-70983414D01*
X123129951Y-71172820D01*
X123254890Y-71344786D01*
X123405213Y-71495109D01*
X123577179Y-71620048D01*
X123577181Y-71620049D01*
X123577184Y-71620051D01*
X123766588Y-71716557D01*
X123968757Y-71782246D01*
X124178713Y-71815500D01*
X124178714Y-71815500D01*
X124391286Y-71815500D01*
X124391287Y-71815500D01*
X124601243Y-71782246D01*
X124803412Y-71716557D01*
X124992816Y-71620051D01*
X125047572Y-71580269D01*
X125164786Y-71495109D01*
X125164788Y-71495106D01*
X125164792Y-71495104D01*
X125315104Y-71344792D01*
X125315106Y-71344788D01*
X125315109Y-71344786D01*
X125440048Y-71172820D01*
X125440050Y-71172817D01*
X125440051Y-71172816D01*
X125449795Y-71153691D01*
X125497766Y-71102896D01*
X125565586Y-71086099D01*
X125631722Y-71108634D01*
X125670764Y-71153688D01*
X125680374Y-71172549D01*
X125719728Y-71226716D01*
X126352037Y-70594408D01*
X126369075Y-70657993D01*
X126434901Y-70772007D01*
X126527993Y-70865099D01*
X126642007Y-70930925D01*
X126705590Y-70947962D01*
X126073282Y-71580269D01*
X126073282Y-71580270D01*
X126127449Y-71619624D01*
X126316782Y-71716095D01*
X126518870Y-71781757D01*
X126728754Y-71815000D01*
X126941246Y-71815000D01*
X127151127Y-71781757D01*
X127151130Y-71781757D01*
X127353217Y-71716095D01*
X127542554Y-71619622D01*
X127596716Y-71580270D01*
X127596717Y-71580270D01*
X126964408Y-70947962D01*
X127027993Y-70930925D01*
X127142007Y-70865099D01*
X127235099Y-70772007D01*
X127300925Y-70657993D01*
X127317962Y-70594408D01*
X127950270Y-71226717D01*
X127950270Y-71226716D01*
X127989622Y-71172555D01*
X127994232Y-71163507D01*
X128042205Y-71112709D01*
X128110025Y-71095912D01*
X128176161Y-71118447D01*
X128215204Y-71163504D01*
X128219949Y-71172817D01*
X128344890Y-71344786D01*
X128495213Y-71495109D01*
X128667179Y-71620048D01*
X128667181Y-71620049D01*
X128667184Y-71620051D01*
X128856588Y-71716557D01*
X129058757Y-71782246D01*
X129268713Y-71815500D01*
X129268714Y-71815500D01*
X129481286Y-71815500D01*
X129481287Y-71815500D01*
X129691243Y-71782246D01*
X129893412Y-71716557D01*
X130082816Y-71620051D01*
X130137572Y-71580269D01*
X130254786Y-71495109D01*
X130254788Y-71495106D01*
X130254792Y-71495104D01*
X130405104Y-71344792D01*
X130405106Y-71344788D01*
X130405109Y-71344786D01*
X130530048Y-71172820D01*
X130530050Y-71172817D01*
X130530051Y-71172816D01*
X130534514Y-71164054D01*
X130582488Y-71113259D01*
X130650308Y-71096463D01*
X130716444Y-71118999D01*
X130755486Y-71164056D01*
X130759951Y-71172820D01*
X130884890Y-71344786D01*
X131035213Y-71495109D01*
X131207179Y-71620048D01*
X131207181Y-71620049D01*
X131207184Y-71620051D01*
X131396588Y-71716557D01*
X131598757Y-71782246D01*
X131808713Y-71815500D01*
X131808714Y-71815500D01*
X132021286Y-71815500D01*
X132021287Y-71815500D01*
X132231243Y-71782246D01*
X132433412Y-71716557D01*
X132622816Y-71620051D01*
X132677572Y-71580269D01*
X132794786Y-71495109D01*
X132794788Y-71495106D01*
X132794792Y-71495104D01*
X132945104Y-71344792D01*
X132945106Y-71344788D01*
X132945109Y-71344786D01*
X133070048Y-71172820D01*
X133070050Y-71172817D01*
X133070051Y-71172816D01*
X133074514Y-71164054D01*
X133122488Y-71113259D01*
X133190308Y-71096463D01*
X133256444Y-71118999D01*
X133295486Y-71164056D01*
X133299951Y-71172820D01*
X133424890Y-71344786D01*
X133575213Y-71495109D01*
X133747179Y-71620048D01*
X133747181Y-71620049D01*
X133747184Y-71620051D01*
X133936588Y-71716557D01*
X134138757Y-71782246D01*
X134348713Y-71815500D01*
X134348714Y-71815500D01*
X134561286Y-71815500D01*
X134561287Y-71815500D01*
X134771243Y-71782246D01*
X134973412Y-71716557D01*
X135162816Y-71620051D01*
X135217572Y-71580269D01*
X135334786Y-71495109D01*
X135334788Y-71495106D01*
X135334792Y-71495104D01*
X135485104Y-71344792D01*
X135485106Y-71344788D01*
X135485109Y-71344786D01*
X135610048Y-71172820D01*
X135610050Y-71172817D01*
X135610051Y-71172816D01*
X135614514Y-71164054D01*
X135662488Y-71113259D01*
X135730308Y-71096463D01*
X135796444Y-71118999D01*
X135835486Y-71164056D01*
X135839951Y-71172820D01*
X135964890Y-71344786D01*
X136115213Y-71495109D01*
X136287179Y-71620048D01*
X136287181Y-71620049D01*
X136287184Y-71620051D01*
X136476588Y-71716557D01*
X136678757Y-71782246D01*
X136888713Y-71815500D01*
X136888714Y-71815500D01*
X137101286Y-71815500D01*
X137101287Y-71815500D01*
X137311243Y-71782246D01*
X137513412Y-71716557D01*
X137702816Y-71620051D01*
X137757572Y-71580269D01*
X137874786Y-71495109D01*
X137874788Y-71495106D01*
X137874792Y-71495104D01*
X138025104Y-71344792D01*
X138025106Y-71344788D01*
X138025109Y-71344786D01*
X138150048Y-71172820D01*
X138150050Y-71172817D01*
X138150051Y-71172816D01*
X138154514Y-71164054D01*
X138202488Y-71113259D01*
X138270308Y-71096463D01*
X138336444Y-71118999D01*
X138375486Y-71164056D01*
X138379951Y-71172820D01*
X138504890Y-71344786D01*
X138655213Y-71495109D01*
X138827179Y-71620048D01*
X138827181Y-71620049D01*
X138827184Y-71620051D01*
X139016588Y-71716557D01*
X139218757Y-71782246D01*
X139428713Y-71815500D01*
X139428714Y-71815500D01*
X139641286Y-71815500D01*
X139641287Y-71815500D01*
X139851243Y-71782246D01*
X140053412Y-71716557D01*
X140242816Y-71620051D01*
X140297572Y-71580269D01*
X140414786Y-71495109D01*
X140414788Y-71495106D01*
X140414792Y-71495104D01*
X140565104Y-71344792D01*
X140565106Y-71344788D01*
X140565109Y-71344786D01*
X140690048Y-71172820D01*
X140690050Y-71172817D01*
X140690051Y-71172816D01*
X140786557Y-70983412D01*
X140852246Y-70781243D01*
X140885500Y-70571287D01*
X140885500Y-70358713D01*
X148434500Y-70358713D01*
X148434500Y-70571286D01*
X148467753Y-70781239D01*
X148533444Y-70983414D01*
X148629951Y-71172820D01*
X148754890Y-71344786D01*
X148905213Y-71495109D01*
X149077179Y-71620048D01*
X149077181Y-71620049D01*
X149077184Y-71620051D01*
X149266588Y-71716557D01*
X149468757Y-71782246D01*
X149678713Y-71815500D01*
X149678714Y-71815500D01*
X149891286Y-71815500D01*
X149891287Y-71815500D01*
X150101243Y-71782246D01*
X150303412Y-71716557D01*
X150492816Y-71620051D01*
X150547572Y-71580269D01*
X150664786Y-71495109D01*
X150664788Y-71495106D01*
X150664792Y-71495104D01*
X150815104Y-71344792D01*
X150815106Y-71344788D01*
X150815109Y-71344786D01*
X150940048Y-71172820D01*
X150940050Y-71172817D01*
X150940051Y-71172816D01*
X150949795Y-71153691D01*
X150997766Y-71102896D01*
X151065586Y-71086099D01*
X151131722Y-71108634D01*
X151170764Y-71153688D01*
X151180374Y-71172549D01*
X151219728Y-71226716D01*
X151852036Y-70594407D01*
X151869075Y-70657993D01*
X151934901Y-70772007D01*
X152027993Y-70865099D01*
X152142007Y-70930925D01*
X152205590Y-70947962D01*
X151573282Y-71580269D01*
X151573282Y-71580270D01*
X151627449Y-71619624D01*
X151816782Y-71716095D01*
X152018870Y-71781757D01*
X152228754Y-71815000D01*
X152441246Y-71815000D01*
X152651127Y-71781757D01*
X152651130Y-71781757D01*
X152853217Y-71716095D01*
X153042554Y-71619622D01*
X153096716Y-71580270D01*
X153096717Y-71580270D01*
X152464408Y-70947962D01*
X152527993Y-70930925D01*
X152642007Y-70865099D01*
X152735099Y-70772007D01*
X152800925Y-70657993D01*
X152817962Y-70594408D01*
X153450270Y-71226717D01*
X153450270Y-71226716D01*
X153489622Y-71172555D01*
X153494232Y-71163507D01*
X153542205Y-71112709D01*
X153610025Y-71095912D01*
X153676161Y-71118447D01*
X153715204Y-71163504D01*
X153719949Y-71172817D01*
X153844890Y-71344786D01*
X153995213Y-71495109D01*
X154167179Y-71620048D01*
X154167181Y-71620049D01*
X154167184Y-71620051D01*
X154356588Y-71716557D01*
X154558757Y-71782246D01*
X154768713Y-71815500D01*
X154768714Y-71815500D01*
X154981286Y-71815500D01*
X154981287Y-71815500D01*
X155191243Y-71782246D01*
X155393412Y-71716557D01*
X155582816Y-71620051D01*
X155637572Y-71580269D01*
X155754786Y-71495109D01*
X155754788Y-71495106D01*
X155754792Y-71495104D01*
X155905104Y-71344792D01*
X155905106Y-71344788D01*
X155905109Y-71344786D01*
X156030048Y-71172820D01*
X156030050Y-71172817D01*
X156030051Y-71172816D01*
X156034514Y-71164054D01*
X156082488Y-71113259D01*
X156150308Y-71096463D01*
X156216444Y-71118999D01*
X156255486Y-71164056D01*
X156259951Y-71172820D01*
X156384890Y-71344786D01*
X156535213Y-71495109D01*
X156707179Y-71620048D01*
X156707181Y-71620049D01*
X156707184Y-71620051D01*
X156896588Y-71716557D01*
X157098757Y-71782246D01*
X157308713Y-71815500D01*
X157308714Y-71815500D01*
X157521286Y-71815500D01*
X157521287Y-71815500D01*
X157731243Y-71782246D01*
X157933412Y-71716557D01*
X158122816Y-71620051D01*
X158177572Y-71580269D01*
X158294786Y-71495109D01*
X158294788Y-71495106D01*
X158294792Y-71495104D01*
X158445104Y-71344792D01*
X158445106Y-71344788D01*
X158445109Y-71344786D01*
X158570048Y-71172820D01*
X158570050Y-71172817D01*
X158570051Y-71172816D01*
X158574514Y-71164054D01*
X158622488Y-71113259D01*
X158690308Y-71096463D01*
X158756444Y-71118999D01*
X158795486Y-71164056D01*
X158799951Y-71172820D01*
X158924890Y-71344786D01*
X159075213Y-71495109D01*
X159247179Y-71620048D01*
X159247181Y-71620049D01*
X159247184Y-71620051D01*
X159436588Y-71716557D01*
X159638757Y-71782246D01*
X159848713Y-71815500D01*
X159848714Y-71815500D01*
X160061286Y-71815500D01*
X160061287Y-71815500D01*
X160271243Y-71782246D01*
X160473412Y-71716557D01*
X160662816Y-71620051D01*
X160717572Y-71580269D01*
X160834786Y-71495109D01*
X160834788Y-71495106D01*
X160834792Y-71495104D01*
X160985104Y-71344792D01*
X160985106Y-71344788D01*
X160985109Y-71344786D01*
X161110048Y-71172820D01*
X161110050Y-71172817D01*
X161110051Y-71172816D01*
X161114514Y-71164054D01*
X161162488Y-71113259D01*
X161230308Y-71096463D01*
X161296444Y-71118999D01*
X161335486Y-71164056D01*
X161339951Y-71172820D01*
X161464890Y-71344786D01*
X161615213Y-71495109D01*
X161787179Y-71620048D01*
X161787181Y-71620049D01*
X161787184Y-71620051D01*
X161976588Y-71716557D01*
X162178757Y-71782246D01*
X162388713Y-71815500D01*
X162388714Y-71815500D01*
X162601286Y-71815500D01*
X162601287Y-71815500D01*
X162811243Y-71782246D01*
X163013412Y-71716557D01*
X163202816Y-71620051D01*
X163257572Y-71580269D01*
X163374786Y-71495109D01*
X163374788Y-71495106D01*
X163374792Y-71495104D01*
X163525104Y-71344792D01*
X163525106Y-71344788D01*
X163525109Y-71344786D01*
X163650048Y-71172820D01*
X163650050Y-71172817D01*
X163650051Y-71172816D01*
X163654514Y-71164054D01*
X163702488Y-71113259D01*
X163770308Y-71096463D01*
X163836444Y-71118999D01*
X163875486Y-71164056D01*
X163879951Y-71172820D01*
X164004890Y-71344786D01*
X164155213Y-71495109D01*
X164327179Y-71620048D01*
X164327181Y-71620049D01*
X164327184Y-71620051D01*
X164516588Y-71716557D01*
X164718757Y-71782246D01*
X164928713Y-71815500D01*
X164928714Y-71815500D01*
X165141286Y-71815500D01*
X165141287Y-71815500D01*
X165351243Y-71782246D01*
X165553412Y-71716557D01*
X165742816Y-71620051D01*
X165797572Y-71580269D01*
X165914786Y-71495109D01*
X165914788Y-71495106D01*
X165914792Y-71495104D01*
X166065104Y-71344792D01*
X166065106Y-71344788D01*
X166065109Y-71344786D01*
X166190048Y-71172820D01*
X166190050Y-71172817D01*
X166190051Y-71172816D01*
X166286557Y-70983412D01*
X166352246Y-70781243D01*
X166385500Y-70571287D01*
X166385500Y-70358713D01*
X166352246Y-70148757D01*
X166286557Y-69946588D01*
X166190051Y-69757184D01*
X166190049Y-69757181D01*
X166190048Y-69757179D01*
X166065109Y-69585213D01*
X165914786Y-69434890D01*
X165742820Y-69309951D01*
X165553414Y-69213444D01*
X165553413Y-69213443D01*
X165553412Y-69213443D01*
X165351243Y-69147754D01*
X165351241Y-69147753D01*
X165351240Y-69147753D01*
X165189957Y-69122208D01*
X165141287Y-69114500D01*
X164928713Y-69114500D01*
X164880042Y-69122208D01*
X164718760Y-69147753D01*
X164516585Y-69213444D01*
X164327179Y-69309951D01*
X164155213Y-69434890D01*
X164004890Y-69585213D01*
X163879949Y-69757182D01*
X163875484Y-69765946D01*
X163827509Y-69816742D01*
X163759688Y-69833536D01*
X163693553Y-69810998D01*
X163654516Y-69765946D01*
X163650050Y-69757182D01*
X163525109Y-69585213D01*
X163374786Y-69434890D01*
X163202820Y-69309951D01*
X163013414Y-69213444D01*
X163013413Y-69213443D01*
X163013412Y-69213443D01*
X162811243Y-69147754D01*
X162811241Y-69147753D01*
X162811240Y-69147753D01*
X162649957Y-69122208D01*
X162601287Y-69114500D01*
X162388713Y-69114500D01*
X162340042Y-69122208D01*
X162178760Y-69147753D01*
X161976585Y-69213444D01*
X161787179Y-69309951D01*
X161615213Y-69434890D01*
X161464890Y-69585213D01*
X161339949Y-69757182D01*
X161335484Y-69765946D01*
X161287509Y-69816742D01*
X161219688Y-69833536D01*
X161153553Y-69810998D01*
X161114516Y-69765946D01*
X161110050Y-69757182D01*
X160985109Y-69585213D01*
X160834786Y-69434890D01*
X160662820Y-69309951D01*
X160473414Y-69213444D01*
X160473413Y-69213443D01*
X160473412Y-69213443D01*
X160271243Y-69147754D01*
X160271241Y-69147753D01*
X160271240Y-69147753D01*
X160109957Y-69122208D01*
X160061287Y-69114500D01*
X159848713Y-69114500D01*
X159800042Y-69122208D01*
X159638760Y-69147753D01*
X159436585Y-69213444D01*
X159247179Y-69309951D01*
X159075213Y-69434890D01*
X158924890Y-69585213D01*
X158799949Y-69757182D01*
X158795484Y-69765946D01*
X158747509Y-69816742D01*
X158679688Y-69833536D01*
X158613553Y-69810998D01*
X158574516Y-69765946D01*
X158570050Y-69757182D01*
X158445109Y-69585213D01*
X158294786Y-69434890D01*
X158122820Y-69309951D01*
X157933414Y-69213444D01*
X157933413Y-69213443D01*
X157933412Y-69213443D01*
X157731243Y-69147754D01*
X157731241Y-69147753D01*
X157731240Y-69147753D01*
X157569957Y-69122208D01*
X157521287Y-69114500D01*
X157308713Y-69114500D01*
X157260042Y-69122208D01*
X157098760Y-69147753D01*
X156896585Y-69213444D01*
X156707179Y-69309951D01*
X156535213Y-69434890D01*
X156384890Y-69585213D01*
X156259949Y-69757182D01*
X156255484Y-69765946D01*
X156207509Y-69816742D01*
X156139688Y-69833536D01*
X156073553Y-69810998D01*
X156034516Y-69765946D01*
X156030050Y-69757182D01*
X155905109Y-69585213D01*
X155754786Y-69434890D01*
X155582820Y-69309951D01*
X155393414Y-69213444D01*
X155393413Y-69213443D01*
X155393412Y-69213443D01*
X155191243Y-69147754D01*
X155191241Y-69147753D01*
X155191240Y-69147753D01*
X155029957Y-69122208D01*
X154981287Y-69114500D01*
X154768713Y-69114500D01*
X154720042Y-69122208D01*
X154558760Y-69147753D01*
X154356585Y-69213444D01*
X154167179Y-69309951D01*
X153995213Y-69434890D01*
X153844890Y-69585213D01*
X153719949Y-69757182D01*
X153715202Y-69766499D01*
X153667227Y-69817293D01*
X153599405Y-69834087D01*
X153533271Y-69811548D01*
X153494234Y-69766495D01*
X153489626Y-69757452D01*
X153450270Y-69703282D01*
X153450269Y-69703282D01*
X152817962Y-70335590D01*
X152800925Y-70272007D01*
X152735099Y-70157993D01*
X152642007Y-70064901D01*
X152527993Y-69999075D01*
X152464409Y-69982037D01*
X153096716Y-69349728D01*
X153042550Y-69310375D01*
X152853217Y-69213904D01*
X152651129Y-69148242D01*
X152441246Y-69115000D01*
X152228754Y-69115000D01*
X152018872Y-69148242D01*
X152018869Y-69148242D01*
X151816782Y-69213904D01*
X151627439Y-69310380D01*
X151573282Y-69349727D01*
X151573282Y-69349728D01*
X152205591Y-69982037D01*
X152142007Y-69999075D01*
X152027993Y-70064901D01*
X151934901Y-70157993D01*
X151869075Y-70272007D01*
X151852037Y-70335591D01*
X151219728Y-69703282D01*
X151219727Y-69703282D01*
X151180380Y-69757440D01*
X151180377Y-69757445D01*
X151170762Y-69776314D01*
X151122785Y-69827108D01*
X151054963Y-69843900D01*
X150988829Y-69821359D01*
X150949795Y-69776308D01*
X150940051Y-69757184D01*
X150940049Y-69757181D01*
X150940048Y-69757179D01*
X150815109Y-69585213D01*
X150664786Y-69434890D01*
X150492820Y-69309951D01*
X150303414Y-69213444D01*
X150303413Y-69213443D01*
X150303412Y-69213443D01*
X150101243Y-69147754D01*
X150101241Y-69147753D01*
X150101240Y-69147753D01*
X149939957Y-69122208D01*
X149891287Y-69114500D01*
X149678713Y-69114500D01*
X149630042Y-69122208D01*
X149468760Y-69147753D01*
X149266585Y-69213444D01*
X149077179Y-69309951D01*
X148905213Y-69434890D01*
X148754890Y-69585213D01*
X148629951Y-69757179D01*
X148533444Y-69946585D01*
X148467753Y-70148760D01*
X148434500Y-70358713D01*
X140885500Y-70358713D01*
X140852246Y-70148757D01*
X140786557Y-69946588D01*
X140690051Y-69757184D01*
X140690049Y-69757181D01*
X140690048Y-69757179D01*
X140565109Y-69585213D01*
X140414786Y-69434890D01*
X140242820Y-69309951D01*
X140053414Y-69213444D01*
X140053413Y-69213443D01*
X140053412Y-69213443D01*
X139851243Y-69147754D01*
X139851241Y-69147753D01*
X139851240Y-69147753D01*
X139689957Y-69122208D01*
X139641287Y-69114500D01*
X139428713Y-69114500D01*
X139380042Y-69122208D01*
X139218760Y-69147753D01*
X139016585Y-69213444D01*
X138827179Y-69309951D01*
X138655213Y-69434890D01*
X138504890Y-69585213D01*
X138379949Y-69757182D01*
X138375484Y-69765946D01*
X138327509Y-69816742D01*
X138259688Y-69833536D01*
X138193553Y-69810998D01*
X138154516Y-69765946D01*
X138150050Y-69757182D01*
X138025109Y-69585213D01*
X137874786Y-69434890D01*
X137702820Y-69309951D01*
X137513414Y-69213444D01*
X137513413Y-69213443D01*
X137513412Y-69213443D01*
X137311243Y-69147754D01*
X137311241Y-69147753D01*
X137311240Y-69147753D01*
X137149957Y-69122208D01*
X137101287Y-69114500D01*
X136888713Y-69114500D01*
X136840042Y-69122208D01*
X136678760Y-69147753D01*
X136476585Y-69213444D01*
X136287179Y-69309951D01*
X136115213Y-69434890D01*
X135964890Y-69585213D01*
X135839949Y-69757182D01*
X135835484Y-69765946D01*
X135787509Y-69816742D01*
X135719688Y-69833536D01*
X135653553Y-69810998D01*
X135614516Y-69765946D01*
X135610050Y-69757182D01*
X135485109Y-69585213D01*
X135334786Y-69434890D01*
X135162820Y-69309951D01*
X134973414Y-69213444D01*
X134973413Y-69213443D01*
X134973412Y-69213443D01*
X134771243Y-69147754D01*
X134771241Y-69147753D01*
X134771240Y-69147753D01*
X134609957Y-69122208D01*
X134561287Y-69114500D01*
X134348713Y-69114500D01*
X134300042Y-69122208D01*
X134138760Y-69147753D01*
X133936585Y-69213444D01*
X133747179Y-69309951D01*
X133575213Y-69434890D01*
X133424890Y-69585213D01*
X133299949Y-69757182D01*
X133295484Y-69765946D01*
X133247509Y-69816742D01*
X133179688Y-69833536D01*
X133113553Y-69810998D01*
X133074516Y-69765946D01*
X133070050Y-69757182D01*
X132945109Y-69585213D01*
X132794786Y-69434890D01*
X132622820Y-69309951D01*
X132433414Y-69213444D01*
X132433413Y-69213443D01*
X132433412Y-69213443D01*
X132231243Y-69147754D01*
X132231241Y-69147753D01*
X132231240Y-69147753D01*
X132069957Y-69122208D01*
X132021287Y-69114500D01*
X131808713Y-69114500D01*
X131760042Y-69122208D01*
X131598760Y-69147753D01*
X131396585Y-69213444D01*
X131207179Y-69309951D01*
X131035213Y-69434890D01*
X130884890Y-69585213D01*
X130759949Y-69757182D01*
X130755484Y-69765946D01*
X130707509Y-69816742D01*
X130639688Y-69833536D01*
X130573553Y-69810998D01*
X130534516Y-69765946D01*
X130530050Y-69757182D01*
X130405109Y-69585213D01*
X130254786Y-69434890D01*
X130082820Y-69309951D01*
X129893414Y-69213444D01*
X129893413Y-69213443D01*
X129893412Y-69213443D01*
X129691243Y-69147754D01*
X129691241Y-69147753D01*
X129691240Y-69147753D01*
X129529957Y-69122208D01*
X129481287Y-69114500D01*
X129268713Y-69114500D01*
X129220042Y-69122208D01*
X129058760Y-69147753D01*
X128856585Y-69213444D01*
X128667179Y-69309951D01*
X128495213Y-69434890D01*
X128344890Y-69585213D01*
X128219949Y-69757182D01*
X128215202Y-69766499D01*
X128167227Y-69817293D01*
X128099405Y-69834087D01*
X128033271Y-69811548D01*
X127994234Y-69766495D01*
X127989626Y-69757452D01*
X127950270Y-69703282D01*
X127950269Y-69703282D01*
X127317962Y-70335590D01*
X127300925Y-70272007D01*
X127235099Y-70157993D01*
X127142007Y-70064901D01*
X127027993Y-69999075D01*
X126964409Y-69982037D01*
X127596716Y-69349728D01*
X127542550Y-69310375D01*
X127353217Y-69213904D01*
X127151129Y-69148242D01*
X126941246Y-69115000D01*
X126728754Y-69115000D01*
X126518872Y-69148242D01*
X126518869Y-69148242D01*
X126316782Y-69213904D01*
X126127439Y-69310380D01*
X126073282Y-69349727D01*
X126073282Y-69349728D01*
X126705591Y-69982037D01*
X126642007Y-69999075D01*
X126527993Y-70064901D01*
X126434901Y-70157993D01*
X126369075Y-70272007D01*
X126352037Y-70335591D01*
X125719728Y-69703282D01*
X125719727Y-69703282D01*
X125680380Y-69757440D01*
X125680377Y-69757445D01*
X125670762Y-69776314D01*
X125622785Y-69827108D01*
X125554963Y-69843900D01*
X125488829Y-69821359D01*
X125449795Y-69776308D01*
X125440051Y-69757184D01*
X125440049Y-69757181D01*
X125440048Y-69757179D01*
X125315109Y-69585213D01*
X125164786Y-69434890D01*
X124992820Y-69309951D01*
X124803414Y-69213444D01*
X124803413Y-69213443D01*
X124803412Y-69213443D01*
X124601243Y-69147754D01*
X124601241Y-69147753D01*
X124601240Y-69147753D01*
X124439957Y-69122208D01*
X124391287Y-69114500D01*
X124178713Y-69114500D01*
X124130042Y-69122208D01*
X123968760Y-69147753D01*
X123766585Y-69213444D01*
X123577179Y-69309951D01*
X123405213Y-69434890D01*
X123254890Y-69585213D01*
X123129951Y-69757179D01*
X123033444Y-69946585D01*
X122967753Y-70148760D01*
X122934500Y-70358713D01*
X66500500Y-70358713D01*
X66500500Y-64682135D01*
X82649500Y-64682135D01*
X82649500Y-66477870D01*
X82649501Y-66477876D01*
X82655908Y-66537483D01*
X82706202Y-66672328D01*
X82706203Y-66672330D01*
X82783578Y-66775689D01*
X82807995Y-66841153D01*
X82793144Y-66909426D01*
X82783578Y-66924311D01*
X82706203Y-67027669D01*
X82706202Y-67027671D01*
X82655908Y-67162517D01*
X82649501Y-67222116D01*
X82649501Y-67222123D01*
X82649500Y-67222135D01*
X82649500Y-69017870D01*
X82649501Y-69017876D01*
X82655908Y-69077483D01*
X82706202Y-69212328D01*
X82706206Y-69212335D01*
X82792452Y-69327544D01*
X82792455Y-69327547D01*
X82907664Y-69413793D01*
X82907671Y-69413797D01*
X83042517Y-69464091D01*
X83042516Y-69464091D01*
X83049444Y-69464835D01*
X83102127Y-69470500D01*
X84897872Y-69470499D01*
X84957483Y-69464091D01*
X85092331Y-69413796D01*
X85207546Y-69327546D01*
X85293796Y-69212331D01*
X85344091Y-69077483D01*
X85350500Y-69017873D01*
X85350499Y-67222128D01*
X85344091Y-67162517D01*
X85293796Y-67027669D01*
X85216421Y-66924309D01*
X85192004Y-66858848D01*
X85206855Y-66790575D01*
X85216416Y-66775696D01*
X85293796Y-66672331D01*
X85344091Y-66537483D01*
X85350500Y-66477873D01*
X85350499Y-65473713D01*
X105509500Y-65473713D01*
X105509500Y-65686286D01*
X105542753Y-65896239D01*
X105608444Y-66098414D01*
X105704951Y-66287820D01*
X105829890Y-66459786D01*
X105980213Y-66610109D01*
X106152182Y-66735050D01*
X106160946Y-66739516D01*
X106211742Y-66787491D01*
X106228536Y-66855312D01*
X106205998Y-66921447D01*
X106160946Y-66960484D01*
X106152182Y-66964949D01*
X105980213Y-67089890D01*
X105829890Y-67240213D01*
X105704951Y-67412179D01*
X105608444Y-67601585D01*
X105542753Y-67803760D01*
X105509500Y-68013713D01*
X105509500Y-68226286D01*
X105542753Y-68436239D01*
X105608444Y-68638414D01*
X105704951Y-68827820D01*
X105829890Y-68999786D01*
X105980213Y-69150109D01*
X106152179Y-69275048D01*
X106152181Y-69275049D01*
X106152184Y-69275051D01*
X106341588Y-69371557D01*
X106543757Y-69437246D01*
X106753713Y-69470500D01*
X106753714Y-69470500D01*
X106966286Y-69470500D01*
X106966287Y-69470500D01*
X107176243Y-69437246D01*
X107378412Y-69371557D01*
X107567816Y-69275051D01*
X107589789Y-69259086D01*
X107739786Y-69150109D01*
X107739788Y-69150106D01*
X107739792Y-69150104D01*
X107890104Y-68999792D01*
X107890106Y-68999788D01*
X107890109Y-68999786D01*
X108015048Y-68827820D01*
X108015047Y-68827820D01*
X108015051Y-68827816D01*
X108111557Y-68638412D01*
X108177246Y-68436243D01*
X108210500Y-68226287D01*
X108210500Y-68013713D01*
X108177246Y-67803757D01*
X108111557Y-67601588D01*
X108015051Y-67412184D01*
X108015049Y-67412181D01*
X108015048Y-67412179D01*
X107890109Y-67240213D01*
X107739786Y-67089890D01*
X107567820Y-66964951D01*
X107567115Y-66964591D01*
X107559054Y-66960485D01*
X107508259Y-66912512D01*
X107491463Y-66844692D01*
X107513999Y-66778556D01*
X107559054Y-66739515D01*
X107567816Y-66735051D01*
X107589789Y-66719086D01*
X107739786Y-66610109D01*
X107739788Y-66610106D01*
X107739792Y-66610104D01*
X107890104Y-66459792D01*
X107890106Y-66459788D01*
X107890109Y-66459786D01*
X108015048Y-66287820D01*
X108015047Y-66287820D01*
X108015051Y-66287816D01*
X108111557Y-66098412D01*
X108177246Y-65896243D01*
X108210500Y-65686287D01*
X108210500Y-65473713D01*
X108177246Y-65263757D01*
X108111557Y-65061588D01*
X108015051Y-64872184D01*
X108015049Y-64872181D01*
X108015048Y-64872179D01*
X107890109Y-64700213D01*
X107739786Y-64549890D01*
X107567820Y-64424951D01*
X107378414Y-64328444D01*
X107378413Y-64328443D01*
X107378412Y-64328443D01*
X107176243Y-64262754D01*
X107176241Y-64262753D01*
X107176240Y-64262753D01*
X107014957Y-64237208D01*
X106966287Y-64229500D01*
X106753713Y-64229500D01*
X106705042Y-64237208D01*
X106543760Y-64262753D01*
X106341585Y-64328444D01*
X106152179Y-64424951D01*
X105980213Y-64549890D01*
X105829890Y-64700213D01*
X105704951Y-64872179D01*
X105608444Y-65061585D01*
X105542753Y-65263760D01*
X105509500Y-65473713D01*
X85350499Y-65473713D01*
X85350499Y-64682128D01*
X85344091Y-64622517D01*
X85293796Y-64487669D01*
X85293795Y-64487668D01*
X85293793Y-64487664D01*
X85207547Y-64372455D01*
X85207544Y-64372452D01*
X85092335Y-64286206D01*
X85092328Y-64286202D01*
X84957482Y-64235908D01*
X84957483Y-64235908D01*
X84897883Y-64229501D01*
X84897881Y-64229500D01*
X84897873Y-64229500D01*
X84897864Y-64229500D01*
X83102129Y-64229500D01*
X83102123Y-64229501D01*
X83042516Y-64235908D01*
X82907671Y-64286202D01*
X82907664Y-64286206D01*
X82792455Y-64372452D01*
X82792452Y-64372455D01*
X82706206Y-64487664D01*
X82706202Y-64487671D01*
X82655908Y-64622517D01*
X82649501Y-64682116D01*
X82649501Y-64682123D01*
X82649500Y-64682135D01*
X66500500Y-64682135D01*
X66500500Y-58088389D01*
X118899500Y-58088389D01*
X118899500Y-58811611D01*
X118926598Y-58982701D01*
X118980127Y-59147445D01*
X119058768Y-59301788D01*
X119160586Y-59441928D01*
X119283072Y-59564414D01*
X119423212Y-59666232D01*
X119577555Y-59744873D01*
X119742299Y-59798402D01*
X119913389Y-59825500D01*
X119913390Y-59825500D01*
X120086610Y-59825500D01*
X120086611Y-59825500D01*
X120257701Y-59798402D01*
X120422445Y-59744873D01*
X120576788Y-59666232D01*
X120716928Y-59564414D01*
X120824472Y-59456869D01*
X120885791Y-59423387D01*
X120955483Y-59428371D01*
X121011417Y-59470242D01*
X121017688Y-59479456D01*
X121057285Y-59543652D01*
X121057288Y-59543656D01*
X121181344Y-59667712D01*
X121330666Y-59759814D01*
X121497203Y-59814999D01*
X121599991Y-59825500D01*
X122400008Y-59825499D01*
X122400016Y-59825498D01*
X122400019Y-59825498D01*
X122456302Y-59819748D01*
X122502797Y-59814999D01*
X122669334Y-59759814D01*
X122818656Y-59667712D01*
X122942712Y-59543656D01*
X123034814Y-59394334D01*
X123089999Y-59227797D01*
X123100500Y-59125009D01*
X123100499Y-57774992D01*
X123089999Y-57672203D01*
X123034814Y-57505666D01*
X122942712Y-57356344D01*
X122818656Y-57232288D01*
X122693559Y-57155128D01*
X122669336Y-57140187D01*
X122669331Y-57140185D01*
X122667862Y-57139698D01*
X122502797Y-57085001D01*
X122502795Y-57085000D01*
X122400010Y-57074500D01*
X121599998Y-57074500D01*
X121599980Y-57074501D01*
X121497203Y-57085000D01*
X121497200Y-57085001D01*
X121330668Y-57140185D01*
X121330663Y-57140187D01*
X121181342Y-57232289D01*
X121057287Y-57356344D01*
X121017688Y-57420544D01*
X120965739Y-57467268D01*
X120896777Y-57478489D01*
X120832695Y-57450645D01*
X120824469Y-57443127D01*
X120716930Y-57335588D01*
X120716928Y-57335586D01*
X120576788Y-57233768D01*
X120422445Y-57155127D01*
X120257701Y-57101598D01*
X120257699Y-57101597D01*
X120257698Y-57101597D01*
X120126271Y-57080781D01*
X120086611Y-57074500D01*
X119913389Y-57074500D01*
X119873728Y-57080781D01*
X119742302Y-57101597D01*
X119577552Y-57155128D01*
X119423211Y-57233768D01*
X119343256Y-57291859D01*
X119283072Y-57335586D01*
X119283070Y-57335588D01*
X119283069Y-57335588D01*
X119160588Y-57458069D01*
X119160588Y-57458070D01*
X119160586Y-57458072D01*
X119153905Y-57467268D01*
X119058768Y-57598211D01*
X118980128Y-57752552D01*
X118926597Y-57917302D01*
X118899500Y-58088389D01*
X66500500Y-58088389D01*
X66500500Y-50878711D01*
X72149500Y-50878711D01*
X72149500Y-51121288D01*
X72181161Y-51361785D01*
X72243947Y-51596104D01*
X72297493Y-51725375D01*
X72336776Y-51820212D01*
X72458064Y-52030289D01*
X72458066Y-52030292D01*
X72458067Y-52030293D01*
X72605733Y-52222736D01*
X72605739Y-52222743D01*
X72777256Y-52394260D01*
X72777262Y-52394265D01*
X72969711Y-52541936D01*
X73179788Y-52663224D01*
X73403900Y-52756054D01*
X73638211Y-52818838D01*
X73818586Y-52842584D01*
X73878711Y-52850500D01*
X73878712Y-52850500D01*
X74121289Y-52850500D01*
X74169388Y-52844167D01*
X74361789Y-52818838D01*
X74530047Y-52773753D01*
X82650000Y-52773753D01*
X82650000Y-52986246D01*
X82683242Y-53196127D01*
X82683242Y-53196130D01*
X82748904Y-53398217D01*
X82845375Y-53587550D01*
X82884728Y-53641716D01*
X83517037Y-53009408D01*
X83534075Y-53072993D01*
X83599901Y-53187007D01*
X83692993Y-53280099D01*
X83807007Y-53345925D01*
X83870591Y-53362962D01*
X83269971Y-53963581D01*
X83348711Y-54080895D01*
X83349920Y-54084729D01*
X83352844Y-54087491D01*
X83360343Y-54117778D01*
X83369727Y-54147529D01*
X83368671Y-54151408D01*
X83369638Y-54155312D01*
X83359573Y-54184844D01*
X83351383Y-54214947D01*
X83348397Y-54217640D01*
X83347100Y-54221447D01*
X83302051Y-54260483D01*
X83292440Y-54265380D01*
X83238282Y-54304727D01*
X83238282Y-54304728D01*
X83870591Y-54937037D01*
X83807007Y-54954075D01*
X83692993Y-55019901D01*
X83599901Y-55112993D01*
X83534075Y-55227007D01*
X83517037Y-55290591D01*
X82884728Y-54658282D01*
X82884727Y-54658282D01*
X82845380Y-54712439D01*
X82748904Y-54901782D01*
X82683242Y-55103869D01*
X82683242Y-55103872D01*
X82650000Y-55313753D01*
X82650000Y-55526246D01*
X82683242Y-55736127D01*
X82683242Y-55736130D01*
X82748904Y-55938217D01*
X82845375Y-56127550D01*
X82884728Y-56181716D01*
X83517037Y-55549408D01*
X83534075Y-55612993D01*
X83599901Y-55727007D01*
X83692993Y-55820099D01*
X83807007Y-55885925D01*
X83870590Y-55902962D01*
X83238282Y-56535269D01*
X83238282Y-56535270D01*
X83292449Y-56574624D01*
X83481782Y-56671095D01*
X83683870Y-56736757D01*
X83893754Y-56770000D01*
X84106246Y-56770000D01*
X84316127Y-56736757D01*
X84316130Y-56736757D01*
X84518217Y-56671095D01*
X84707554Y-56574622D01*
X84761716Y-56535270D01*
X84761717Y-56535270D01*
X84129408Y-55902962D01*
X84192993Y-55885925D01*
X84307007Y-55820099D01*
X84400099Y-55727007D01*
X84465925Y-55612993D01*
X84482962Y-55549408D01*
X85115270Y-56181717D01*
X85115270Y-56181716D01*
X85154622Y-56127554D01*
X85251095Y-55938217D01*
X85316757Y-55736130D01*
X85316757Y-55736127D01*
X85350000Y-55526246D01*
X85350000Y-55313753D01*
X85316757Y-55103872D01*
X85316757Y-55103869D01*
X85251095Y-54901782D01*
X85154624Y-54712449D01*
X85115270Y-54658282D01*
X85115269Y-54658282D01*
X84482962Y-55290590D01*
X84465925Y-55227007D01*
X84400099Y-55112993D01*
X84307007Y-55019901D01*
X84192993Y-54954075D01*
X84129409Y-54937037D01*
X84761716Y-54304728D01*
X84707550Y-54265375D01*
X84697954Y-54260486D01*
X84647157Y-54212512D01*
X84630361Y-54144692D01*
X84651288Y-54080895D01*
X84730027Y-53963581D01*
X84129408Y-53362962D01*
X84192993Y-53345925D01*
X84307007Y-53280099D01*
X84400099Y-53187007D01*
X84465925Y-53072993D01*
X84482962Y-53009408D01*
X85115270Y-53641717D01*
X85115270Y-53641716D01*
X85154622Y-53587554D01*
X85251095Y-53398217D01*
X85316757Y-53196130D01*
X85316757Y-53196127D01*
X85350000Y-52986246D01*
X85350000Y-52773753D01*
X105510000Y-52773753D01*
X105510000Y-52986246D01*
X105543242Y-53196127D01*
X105543242Y-53196130D01*
X105608904Y-53398217D01*
X105705375Y-53587550D01*
X105744728Y-53641716D01*
X106377037Y-53009408D01*
X106394075Y-53072993D01*
X106459901Y-53187007D01*
X106552993Y-53280099D01*
X106667007Y-53345925D01*
X106730590Y-53362962D01*
X106098282Y-53995269D01*
X106098282Y-53995270D01*
X106152452Y-54034626D01*
X106162048Y-54039516D01*
X106212844Y-54087491D01*
X106229638Y-54155312D01*
X106207100Y-54221447D01*
X106162051Y-54260483D01*
X106152440Y-54265380D01*
X106098282Y-54304727D01*
X106098282Y-54304728D01*
X106730591Y-54937037D01*
X106667007Y-54954075D01*
X106552993Y-55019901D01*
X106459901Y-55112993D01*
X106394075Y-55227007D01*
X106377037Y-55290591D01*
X105744728Y-54658282D01*
X105744727Y-54658282D01*
X105705380Y-54712439D01*
X105608904Y-54901782D01*
X105543242Y-55103869D01*
X105543242Y-55103872D01*
X105510000Y-55313753D01*
X105510000Y-55526246D01*
X105543242Y-55736127D01*
X105543242Y-55736130D01*
X105608904Y-55938217D01*
X105705375Y-56127550D01*
X105744728Y-56181716D01*
X106377037Y-55549408D01*
X106394075Y-55612993D01*
X106459901Y-55727007D01*
X106552993Y-55820099D01*
X106667007Y-55885925D01*
X106730590Y-55902962D01*
X106098282Y-56535269D01*
X106098282Y-56535270D01*
X106152449Y-56574624D01*
X106341782Y-56671095D01*
X106543870Y-56736757D01*
X106753754Y-56770000D01*
X106966246Y-56770000D01*
X107176127Y-56736757D01*
X107176130Y-56736757D01*
X107378217Y-56671095D01*
X107567558Y-56574620D01*
X107603750Y-56548324D01*
X107603756Y-56548320D01*
X107621716Y-56535270D01*
X107621717Y-56535270D01*
X106989408Y-55902962D01*
X107052993Y-55885925D01*
X107167007Y-55820099D01*
X107260099Y-55727007D01*
X107325925Y-55612993D01*
X107342962Y-55549409D01*
X107975270Y-56181717D01*
X107975270Y-56181716D01*
X108014622Y-56127554D01*
X108111095Y-55938217D01*
X108164123Y-55775013D01*
X146900000Y-55775013D01*
X146900000Y-56200000D01*
X147719670Y-56200000D01*
X147699925Y-56219745D01*
X147650556Y-56305255D01*
X147625000Y-56400630D01*
X147625000Y-56499370D01*
X147650556Y-56594745D01*
X147699925Y-56680255D01*
X147719670Y-56700000D01*
X146900001Y-56700000D01*
X146900001Y-57124986D01*
X146910494Y-57227697D01*
X146965641Y-57394119D01*
X146965643Y-57394124D01*
X147057684Y-57543345D01*
X147181654Y-57667315D01*
X147330875Y-57759356D01*
X147330880Y-57759358D01*
X147497302Y-57814505D01*
X147497309Y-57814506D01*
X147600019Y-57824999D01*
X147749999Y-57824999D01*
X147750000Y-57824998D01*
X147750000Y-56730330D01*
X147769745Y-56750075D01*
X147855255Y-56799444D01*
X147950630Y-56825000D01*
X148049370Y-56825000D01*
X148144745Y-56799444D01*
X148230255Y-56750075D01*
X148250000Y-56730330D01*
X148250000Y-57824999D01*
X148399972Y-57824999D01*
X148399986Y-57824998D01*
X148502697Y-57814505D01*
X148669119Y-57759358D01*
X148669124Y-57759356D01*
X148818345Y-57667315D01*
X148942315Y-57543345D01*
X148981945Y-57479094D01*
X149033893Y-57432368D01*
X149102855Y-57421145D01*
X149166937Y-57448988D01*
X149175166Y-57456508D01*
X149283072Y-57564414D01*
X149423212Y-57666232D01*
X149577555Y-57744873D01*
X149742299Y-57798402D01*
X149913389Y-57825500D01*
X149913390Y-57825500D01*
X150086610Y-57825500D01*
X150086611Y-57825500D01*
X150257701Y-57798402D01*
X150422445Y-57744873D01*
X150576788Y-57666232D01*
X150716928Y-57564414D01*
X150839414Y-57441928D01*
X150899682Y-57358975D01*
X150955012Y-57316311D01*
X151024626Y-57310332D01*
X151086421Y-57342938D01*
X151100315Y-57358973D01*
X151160586Y-57441928D01*
X151283072Y-57564414D01*
X151423212Y-57666232D01*
X151577555Y-57744873D01*
X151742299Y-57798402D01*
X151913389Y-57825500D01*
X151913390Y-57825500D01*
X152086610Y-57825500D01*
X152086611Y-57825500D01*
X152257701Y-57798402D01*
X152422445Y-57744873D01*
X152576788Y-57666232D01*
X152716928Y-57564414D01*
X152839414Y-57441928D01*
X152899682Y-57358975D01*
X152955012Y-57316311D01*
X153024626Y-57310332D01*
X153086421Y-57342938D01*
X153100315Y-57358973D01*
X153160586Y-57441928D01*
X153283072Y-57564414D01*
X153423212Y-57666232D01*
X153577555Y-57744873D01*
X153742299Y-57798402D01*
X153913389Y-57825500D01*
X153913390Y-57825500D01*
X154086610Y-57825500D01*
X154086611Y-57825500D01*
X154257701Y-57798402D01*
X154422445Y-57744873D01*
X154576788Y-57666232D01*
X154716928Y-57564414D01*
X154839414Y-57441928D01*
X154941232Y-57301788D01*
X155019873Y-57147445D01*
X155073402Y-56982701D01*
X155100500Y-56811611D01*
X155100500Y-56088389D01*
X155073402Y-55917299D01*
X155019873Y-55752555D01*
X154941232Y-55598212D01*
X154839414Y-55458072D01*
X154716928Y-55335586D01*
X154576788Y-55233768D01*
X154422445Y-55155127D01*
X154257701Y-55101598D01*
X154257699Y-55101597D01*
X154257698Y-55101597D01*
X154126271Y-55080781D01*
X154086611Y-55074500D01*
X153913389Y-55074500D01*
X153873728Y-55080781D01*
X153742302Y-55101597D01*
X153577552Y-55155128D01*
X153423211Y-55233768D01*
X153343256Y-55291859D01*
X153283072Y-55335586D01*
X153283070Y-55335588D01*
X153283069Y-55335588D01*
X153160588Y-55458069D01*
X153160581Y-55458078D01*
X153100317Y-55541023D01*
X153044987Y-55583689D01*
X152975374Y-55589667D01*
X152913579Y-55557061D01*
X152899683Y-55541023D01*
X152851899Y-55475257D01*
X152839414Y-55458072D01*
X152716928Y-55335586D01*
X152576788Y-55233768D01*
X152422445Y-55155127D01*
X152257701Y-55101598D01*
X152257699Y-55101597D01*
X152257698Y-55101597D01*
X152126271Y-55080781D01*
X152086611Y-55074500D01*
X151913389Y-55074500D01*
X151873728Y-55080781D01*
X151742302Y-55101597D01*
X151577552Y-55155128D01*
X151423211Y-55233768D01*
X151343256Y-55291859D01*
X151283072Y-55335586D01*
X151283070Y-55335588D01*
X151283069Y-55335588D01*
X151160588Y-55458069D01*
X151160581Y-55458078D01*
X151100317Y-55541023D01*
X151044987Y-55583689D01*
X150975374Y-55589667D01*
X150913579Y-55557061D01*
X150899683Y-55541023D01*
X150851899Y-55475257D01*
X150839414Y-55458072D01*
X150716928Y-55335586D01*
X150576788Y-55233768D01*
X150422445Y-55155127D01*
X150257701Y-55101598D01*
X150257699Y-55101597D01*
X150257698Y-55101597D01*
X150126271Y-55080781D01*
X150086611Y-55074500D01*
X149913389Y-55074500D01*
X149873728Y-55080781D01*
X149742302Y-55101597D01*
X149577552Y-55155128D01*
X149423211Y-55233768D01*
X149283073Y-55335585D01*
X149175166Y-55443492D01*
X149113843Y-55476976D01*
X149044151Y-55471992D01*
X148988218Y-55430120D01*
X148981946Y-55420906D01*
X148942317Y-55356656D01*
X148818345Y-55232684D01*
X148669124Y-55140643D01*
X148669119Y-55140641D01*
X148502697Y-55085494D01*
X148502690Y-55085493D01*
X148399986Y-55075000D01*
X148250000Y-55075000D01*
X148250000Y-56169670D01*
X148230255Y-56149925D01*
X148144745Y-56100556D01*
X148049370Y-56075000D01*
X147950630Y-56075000D01*
X147855255Y-56100556D01*
X147769745Y-56149925D01*
X147750000Y-56169670D01*
X147750000Y-55075000D01*
X147600027Y-55075000D01*
X147600012Y-55075001D01*
X147497302Y-55085494D01*
X147330880Y-55140641D01*
X147330875Y-55140643D01*
X147181654Y-55232684D01*
X147057684Y-55356654D01*
X146965643Y-55505875D01*
X146965641Y-55505880D01*
X146910494Y-55672302D01*
X146910493Y-55672309D01*
X146900000Y-55775013D01*
X108164123Y-55775013D01*
X108176757Y-55736131D01*
X108176757Y-55736127D01*
X108210000Y-55526246D01*
X108210000Y-55313753D01*
X108176757Y-55103872D01*
X108176757Y-55103869D01*
X108111095Y-54901782D01*
X108014624Y-54712449D01*
X107975270Y-54658282D01*
X107975269Y-54658282D01*
X107342962Y-55290590D01*
X107325925Y-55227007D01*
X107260099Y-55112993D01*
X107167007Y-55019901D01*
X107052993Y-54954075D01*
X106989409Y-54937037D01*
X107621716Y-54304728D01*
X107567550Y-54265375D01*
X107557954Y-54260486D01*
X107507157Y-54212512D01*
X107490361Y-54144692D01*
X107512897Y-54078556D01*
X107557954Y-54039514D01*
X107567554Y-54034622D01*
X107621716Y-53995270D01*
X107621717Y-53995270D01*
X106989408Y-53362962D01*
X107052993Y-53345925D01*
X107167007Y-53280099D01*
X107260099Y-53187007D01*
X107325925Y-53072993D01*
X107342962Y-53009409D01*
X107975270Y-53641717D01*
X107975270Y-53641716D01*
X108014622Y-53587554D01*
X108111095Y-53398217D01*
X108176757Y-53196130D01*
X108176757Y-53196127D01*
X108210000Y-52986246D01*
X108210000Y-52773753D01*
X108176757Y-52563872D01*
X108176757Y-52563869D01*
X108111095Y-52361782D01*
X108014624Y-52172449D01*
X107975270Y-52118282D01*
X107975269Y-52118282D01*
X107342962Y-52750590D01*
X107325925Y-52687007D01*
X107260099Y-52572993D01*
X107167007Y-52479901D01*
X107052993Y-52414075D01*
X106989409Y-52397037D01*
X107621716Y-51764728D01*
X107567550Y-51725375D01*
X107378217Y-51628904D01*
X107176129Y-51563242D01*
X106966246Y-51530000D01*
X106753754Y-51530000D01*
X106543872Y-51563242D01*
X106543869Y-51563242D01*
X106341782Y-51628904D01*
X106152439Y-51725380D01*
X106098282Y-51764727D01*
X106098282Y-51764728D01*
X106730591Y-52397037D01*
X106667007Y-52414075D01*
X106552993Y-52479901D01*
X106459901Y-52572993D01*
X106394075Y-52687007D01*
X106377037Y-52750591D01*
X105744728Y-52118282D01*
X105744727Y-52118282D01*
X105705380Y-52172439D01*
X105608904Y-52361782D01*
X105543242Y-52563869D01*
X105543242Y-52563872D01*
X105510000Y-52773753D01*
X85350000Y-52773753D01*
X85316757Y-52563872D01*
X85316757Y-52563869D01*
X85251095Y-52361782D01*
X85154624Y-52172449D01*
X85115270Y-52118282D01*
X85115269Y-52118282D01*
X84482962Y-52750590D01*
X84465925Y-52687007D01*
X84400099Y-52572993D01*
X84307007Y-52479901D01*
X84192993Y-52414075D01*
X84129409Y-52397037D01*
X84761716Y-51764728D01*
X84707550Y-51725375D01*
X84518217Y-51628904D01*
X84316129Y-51563242D01*
X84106246Y-51530000D01*
X83893754Y-51530000D01*
X83683872Y-51563242D01*
X83683869Y-51563242D01*
X83481782Y-51628904D01*
X83292439Y-51725380D01*
X83238282Y-51764727D01*
X83238282Y-51764728D01*
X83870591Y-52397037D01*
X83807007Y-52414075D01*
X83692993Y-52479901D01*
X83599901Y-52572993D01*
X83534075Y-52687007D01*
X83517037Y-52750591D01*
X82884728Y-52118282D01*
X82884727Y-52118282D01*
X82845380Y-52172439D01*
X82748904Y-52361782D01*
X82683242Y-52563869D01*
X82683242Y-52563872D01*
X82650000Y-52773753D01*
X74530047Y-52773753D01*
X74596100Y-52756054D01*
X74820212Y-52663224D01*
X75030289Y-52541936D01*
X75222738Y-52394265D01*
X75394265Y-52222738D01*
X75541936Y-52030289D01*
X75663224Y-51820212D01*
X75663227Y-51820205D01*
X75686287Y-51764534D01*
X75756052Y-51596104D01*
X75756054Y-51596100D01*
X75818838Y-51361789D01*
X75850500Y-51121288D01*
X75850500Y-50878712D01*
X75850500Y-50878711D01*
X161149500Y-50878711D01*
X161149500Y-51121288D01*
X161181161Y-51361785D01*
X161243947Y-51596104D01*
X161297493Y-51725375D01*
X161336776Y-51820212D01*
X161458064Y-52030289D01*
X161458066Y-52030292D01*
X161458067Y-52030293D01*
X161605733Y-52222736D01*
X161605739Y-52222743D01*
X161777256Y-52394260D01*
X161777262Y-52394265D01*
X161969711Y-52541936D01*
X162179788Y-52663224D01*
X162403900Y-52756054D01*
X162638211Y-52818838D01*
X162818586Y-52842584D01*
X162878711Y-52850500D01*
X162878712Y-52850500D01*
X163121289Y-52850500D01*
X163169388Y-52844167D01*
X163361789Y-52818838D01*
X163596100Y-52756054D01*
X163820212Y-52663224D01*
X164030289Y-52541936D01*
X164222738Y-52394265D01*
X164394265Y-52222738D01*
X164541936Y-52030289D01*
X164663224Y-51820212D01*
X164756054Y-51596100D01*
X164818838Y-51361789D01*
X164850500Y-51121288D01*
X164850500Y-50878712D01*
X164818838Y-50638211D01*
X164756054Y-50403900D01*
X164663224Y-50179788D01*
X164541936Y-49969711D01*
X164394265Y-49777262D01*
X164394260Y-49777256D01*
X164222743Y-49605739D01*
X164222736Y-49605733D01*
X164030293Y-49458067D01*
X164030292Y-49458066D01*
X164030289Y-49458064D01*
X163820212Y-49336776D01*
X163820205Y-49336773D01*
X163596104Y-49243947D01*
X163361785Y-49181161D01*
X163121289Y-49149500D01*
X163121288Y-49149500D01*
X162878712Y-49149500D01*
X162878711Y-49149500D01*
X162638214Y-49181161D01*
X162403895Y-49243947D01*
X162179794Y-49336773D01*
X162179785Y-49336777D01*
X161969706Y-49458067D01*
X161777263Y-49605733D01*
X161777256Y-49605739D01*
X161605739Y-49777256D01*
X161605733Y-49777263D01*
X161458067Y-49969706D01*
X161336777Y-50179785D01*
X161336773Y-50179794D01*
X161243947Y-50403895D01*
X161181161Y-50638214D01*
X161149500Y-50878711D01*
X75850500Y-50878711D01*
X75818838Y-50638211D01*
X75756054Y-50403900D01*
X75663224Y-50179788D01*
X75541936Y-49969711D01*
X75394265Y-49777262D01*
X75394260Y-49777256D01*
X75222743Y-49605739D01*
X75222736Y-49605733D01*
X75030293Y-49458067D01*
X75030292Y-49458066D01*
X75030289Y-49458064D01*
X74820212Y-49336776D01*
X74820205Y-49336773D01*
X74596104Y-49243947D01*
X74361785Y-49181161D01*
X74121289Y-49149500D01*
X74121288Y-49149500D01*
X73878712Y-49149500D01*
X73878711Y-49149500D01*
X73638214Y-49181161D01*
X73403895Y-49243947D01*
X73179794Y-49336773D01*
X73179785Y-49336777D01*
X72969706Y-49458067D01*
X72777263Y-49605733D01*
X72777256Y-49605739D01*
X72605739Y-49777256D01*
X72605733Y-49777263D01*
X72458067Y-49969706D01*
X72336777Y-50179785D01*
X72336773Y-50179794D01*
X72243947Y-50403895D01*
X72181161Y-50638214D01*
X72149500Y-50878711D01*
X66500500Y-50878711D01*
X66500500Y-46003750D01*
X66500726Y-45996263D01*
X66518271Y-45706201D01*
X66520076Y-45691340D01*
X66571780Y-45409202D01*
X66575364Y-45394664D01*
X66588130Y-45353696D01*
X66660699Y-45120812D01*
X66665997Y-45106842D01*
X66783727Y-44845258D01*
X66790680Y-44832012D01*
X66830959Y-44765381D01*
X66939075Y-44586534D01*
X66947567Y-44574230D01*
X67124481Y-44348417D01*
X67134396Y-44337226D01*
X67337226Y-44134396D01*
X67348417Y-44124481D01*
X67574230Y-43947567D01*
X67586534Y-43939075D01*
X67832012Y-43790680D01*
X67845258Y-43783727D01*
X68106842Y-43665997D01*
X68120812Y-43660699D01*
X68394668Y-43575362D01*
X68409198Y-43571780D01*
X68691344Y-43520075D01*
X68706201Y-43518271D01*
X68996264Y-43500726D01*
X69003751Y-43500500D01*
X69065892Y-43500500D01*
X115424951Y-43500500D01*
X115491990Y-43520185D01*
G37*
%TD.AperFunction*%
%TD*%
M02*
