M48
; DRILL file KiCad 10.0.3 date 2026-06-17T16:59:06
; FORMAT={-:-/ absolute / metric / decimal}
; #@! TF.CreationDate,2026-06-17T16:59:06+03:00
; #@! TF.GenerationSoftware,Kicad,Pcbnew,10.0.3
; #@! TF.FileFunction,Plated,1,2,PTH
FMAT,2
METRIC
; #@! TA.AperFunction,Plated,PTH,ComponentDrill
T1C0.750
; #@! TA.AperFunction,Plated,PTH,ComponentDrill
T2C1.000
%
G90
G05
T1
X119.0Y-94.55
X120.0Y-58.45
X121.0Y-94.55
X122.0Y-58.45
X130.0Y-99.45
X132.0Y-99.45
X134.0Y-99.45
X136.0Y-99.45
X148.0Y-56.45
X150.0Y-56.45
X152.0Y-56.45
X154.0Y-56.45
T2
X84.0Y-52.88
X84.0Y-55.42
X84.0Y-65.58
X84.0Y-68.12
X84.366Y-77.19
X84.366Y-79.73
X84.366Y-82.27
X84.366Y-84.81
X95.035Y-76.725
X95.035Y-94.505
X97.575Y-76.725
X97.575Y-94.505
X100.115Y-76.725
X100.115Y-94.505
X102.655Y-76.725
X102.655Y-94.505
X105.195Y-76.725
X105.195Y-94.505
X106.86Y-52.88
X106.86Y-55.42
X106.86Y-65.58
X106.86Y-68.12
X107.735Y-76.725
X107.735Y-94.505
X124.285Y-70.465
X124.295Y-85.705
X126.835Y-70.465
X126.835Y-85.705
X129.375Y-70.465
X129.375Y-85.705
X131.915Y-70.465
X131.915Y-85.705
X134.455Y-70.465
X134.455Y-85.705
X136.995Y-70.465
X136.995Y-85.705
X139.535Y-70.465
X139.535Y-85.705
X149.785Y-70.465
X149.795Y-85.705
X152.335Y-70.465
X152.335Y-85.705
X154.875Y-70.465
X154.875Y-85.705
X157.415Y-70.465
X157.415Y-85.705
X159.955Y-70.465
X159.955Y-85.705
X162.495Y-70.465
X162.495Y-85.705
X165.035Y-70.465
X165.035Y-85.705
M30
