%TF.GenerationSoftware,KiCad,Pcbnew,10.0.3*%
%TF.CreationDate,2026-06-09T23:32:25+03:00*%
%TF.ProjectId,RobotCar,526f626f-7443-4617-922e-6b696361645f,rev?*%
%TF.SameCoordinates,Original*%
%TF.FileFunction,Copper,L2,Bot*%
%TF.FilePolarity,Positive*%
%FSLAX46Y46*%
G04 Gerber Fmt 4.6, Leading zero omitted, Abs format (unit mm)*
G04 Created by KiCad (PCBNEW 10.0.3) date 2026-06-09 23:32:25*
%MOMM*%
%LPD*%
G01*
G04 APERTURE LIST*
G04 Aperture macros list*
%AMRoundRect*
0 Rectangle with rounded corners*
0 $1 Rounding radius*
0 $2 $3 $4 $5 $6 $7 $8 $9 X,Y pos of 4 corners*
0 Add a 4 corners polygon primitive as box body*
4,1,4,$2,$3,$4,$5,$6,$7,$8,$9,$2,$3,0*
0 Add four circle primitives for the rounded corners*
1,1,$1+$1,$2,$3*
1,1,$1+$1,$4,$5*
1,1,$1+$1,$6,$7*
1,1,$1+$1,$8,$9*
0 Add four rect primitives between the rounded corners*
20,1,$1+$1,$2,$3,$4,$5,0*
20,1,$1+$1,$4,$5,$6,$7,0*
20,1,$1+$1,$6,$7,$8,$9,0*
20,1,$1+$1,$8,$9,$2,$3,0*%
G04 Aperture macros list end*
%TA.AperFunction,ComponentPad*%
%ADD10R,1.700000X1.700000*%
%TD*%
%TA.AperFunction,ComponentPad*%
%ADD11C,1.700000*%
%TD*%
%TA.AperFunction,ComponentPad*%
%ADD12R,1.900000X1.900000*%
%TD*%
%TA.AperFunction,ComponentPad*%
%ADD13C,1.900000*%
%TD*%
%TA.AperFunction,ComponentPad*%
%ADD14RoundRect,0.250000X-0.350000X-0.625000X0.350000X-0.625000X0.350000X0.625000X-0.350000X0.625000X0*%
%TD*%
%TA.AperFunction,ComponentPad*%
%ADD15O,1.200000X1.750000*%
%TD*%
%TA.AperFunction,ComponentPad*%
%ADD16RoundRect,0.250000X0.350000X0.625000X-0.350000X0.625000X-0.350000X-0.625000X0.350000X-0.625000X0*%
%TD*%
%TA.AperFunction,Conductor*%
%ADD17C,0.200000*%
%TD*%
G04 APERTURE END LIST*
D10*
%TO.P,TB6612FNG2,1,M1+_1*%
%TO.N,Net-(J1-Pin_1)*%
X107735000Y-76725000D03*
D11*
%TO.P,TB6612FNG2,2,M1-_2*%
%TO.N,Net-(J1-Pin_2)*%
X105195000Y-76725000D03*
%TO.P,TB6612FNG2,3,M2+_3*%
%TO.N,Net-(J2-Pin_1)*%
X102655000Y-76725000D03*
%TO.P,TB6612FNG2,4,M2-_4*%
%TO.N,Net-(J2-Pin_2)*%
X100115000Y-76725000D03*
%TO.P,TB6612FNG2,5,GND_5*%
%TO.N,GND*%
X97575000Y-76725000D03*
%TO.P,TB6612FNG2,6,VM_6*%
%TO.N,+12V*%
X95035000Y-76725000D03*
%TO.P,TB6612FNG2,7,DIR1_7*%
%TO.N,/DIR1*%
X107735000Y-94505000D03*
%TO.P,TB6612FNG2,8,PWM1_8*%
%TO.N,/PWM1*%
X105195000Y-94505000D03*
%TO.P,TB6612FNG2,9,PWM2_9*%
%TO.N,/PWM2*%
X102655000Y-94505000D03*
%TO.P,TB6612FNG2,10,DIR2_10*%
%TO.N,/DIR2*%
X100115000Y-94505000D03*
%TO.P,TB6612FNG2,11,GND_11*%
%TO.N,GND*%
X97575000Y-94505000D03*
%TO.P,TB6612FNG2,12,VCC_12*%
%TO.N,+5V*%
X95035000Y-94505000D03*
%TD*%
D12*
%TO.P,TB_PD1,1,OUT+_1*%
%TO.N,+12V*%
X84366000Y-77190000D03*
D13*
X84366000Y-79730000D03*
%TO.P,TB_PD1,2,OUT-_2*%
%TO.N,GND*%
X84366000Y-82270000D03*
X84366000Y-84810000D03*
%TD*%
D14*
%TO.P,J4,1,Pin_1_1*%
%TO.N,GND*%
X148000000Y-56450000D03*
D15*
%TO.P,J4,2,Pin_2_2*%
%TO.N,+5V*%
X150000000Y-56450000D03*
%TO.P,J4,3,Pin_3_3*%
%TO.N,/SDA_2*%
X152000000Y-56450000D03*
%TO.P,J4,4,Pin_4_4*%
%TO.N,/SCL_2*%
X154000000Y-56450000D03*
%TD*%
D10*
%TO.P,TB_DC1,1,IN+_1*%
%TO.N,+12V*%
X83570000Y-50380000D03*
X83570000Y-52920000D03*
D11*
%TO.P,TB_DC1,2,IN-_2*%
%TO.N,GND*%
X83570000Y-63080000D03*
X83570000Y-65620000D03*
%TO.P,TB_DC1,3,OUT+_3*%
%TO.N,+5V*%
X106430000Y-50380000D03*
X106430000Y-52920000D03*
%TO.P,TB_DC1,4,OUT-_4*%
%TO.N,GND*%
X106430000Y-63080000D03*
X106430000Y-65620000D03*
%TD*%
D10*
%TO.P,TB_ESP1,1,D0_1*%
%TO.N,/DIR1*%
X123380000Y-86022500D03*
D11*
%TO.P,TB_ESP1,2,D1_2*%
%TO.N,/PWM1*%
X125920000Y-86022500D03*
%TO.P,TB_ESP1,3,D2_3*%
%TO.N,/DIR2*%
X128460000Y-86022500D03*
%TO.P,TB_ESP1,4,D3_4*%
%TO.N,/PWM2*%
X131000000Y-86022500D03*
%TO.P,TB_ESP1,5,SDA/D4_5*%
%TO.N,/SDA_1*%
X133540000Y-86022500D03*
%TO.P,TB_ESP1,6,SCL/D5_6*%
%TO.N,/SCL_1*%
X136080000Y-86022500D03*
%TO.P,TB_ESP1,7,D6_7*%
%TO.N,unconnected-(TB_ESP1-D6-Pad7)*%
X138620000Y-86022500D03*
%TO.P,TB_ESP1,8,D7_8*%
%TO.N,unconnected-(TB_ESP1-D7-Pad8)*%
X123380000Y-70782500D03*
%TO.P,TB_ESP1,9,D8_9*%
%TO.N,unconnected-(TB_ESP1-D8-Pad9)*%
X125920000Y-70782500D03*
%TO.P,TB_ESP1,10,D9_10*%
%TO.N,unconnected-(TB_ESP1-D9-Pad10)*%
X128460000Y-70782500D03*
%TO.P,TB_ESP1,11,D10_11*%
%TO.N,unconnected-(TB_ESP1-D10-Pad11)*%
X131000000Y-70782500D03*
%TO.P,TB_ESP1,12,3V3_12*%
%TO.N,unconnected-(TB_ESP1-3V3-Pad12)*%
X133540000Y-70782500D03*
%TO.P,TB_ESP1,13,GND_13*%
%TO.N,GND*%
X136080000Y-70782500D03*
%TO.P,TB_ESP1,14,5V_14*%
%TO.N,+5V*%
X138630000Y-70782500D03*
%TD*%
D10*
%TO.P,TB_ESP2,1,D0_1*%
%TO.N,unconnected-(TB_ESP2-D0-Pad1)*%
X150380000Y-86022500D03*
D11*
%TO.P,TB_ESP2,2,D1_2*%
%TO.N,unconnected-(TB_ESP2-D1-Pad2)*%
X152920000Y-86022500D03*
%TO.P,TB_ESP2,3,D2_3*%
%TO.N,unconnected-(TB_ESP2-D2-Pad3)*%
X155460000Y-86022500D03*
%TO.P,TB_ESP2,4,D3_4*%
%TO.N,unconnected-(TB_ESP2-D3-Pad4)*%
X158000000Y-86022500D03*
%TO.P,TB_ESP2,5,SDA/D4_5*%
%TO.N,/SDA_2*%
X160540000Y-86022500D03*
%TO.P,TB_ESP2,6,SCL/D5_6*%
%TO.N,/SCL_2*%
X163080000Y-86022500D03*
%TO.P,TB_ESP2,7,D6_7*%
%TO.N,unconnected-(TB_ESP2-D6-Pad7)*%
X165620000Y-86022500D03*
%TO.P,TB_ESP2,8,D7_8*%
%TO.N,unconnected-(TB_ESP2-D7-Pad8)*%
X150380000Y-70782500D03*
%TO.P,TB_ESP2,9,D8_9*%
%TO.N,unconnected-(TB_ESP2-D8-Pad9)*%
X152920000Y-70782500D03*
%TO.P,TB_ESP2,10,D9_10*%
%TO.N,unconnected-(TB_ESP2-D9-Pad10)*%
X155460000Y-70782500D03*
%TO.P,TB_ESP2,11,D10_11*%
%TO.N,unconnected-(TB_ESP2-D10-Pad11)*%
X158000000Y-70782500D03*
%TO.P,TB_ESP2,12,3V3_12*%
%TO.N,unconnected-(TB_ESP2-3V3-Pad12)*%
X160540000Y-70782500D03*
%TO.P,TB_ESP2,13,GND_13*%
%TO.N,GND*%
X163080000Y-70782500D03*
%TO.P,TB_ESP2,14,5V_14*%
%TO.N,+5V*%
X165630000Y-70782500D03*
%TD*%
D16*
%TO.P,J1,1,Pin_1_1*%
%TO.N,Net-(J1-Pin_1)*%
X122000000Y-58450000D03*
D15*
%TO.P,J1,2,Pin_2_2*%
%TO.N,Net-(J1-Pin_2)*%
X120000000Y-58450000D03*
%TD*%
D14*
%TO.P,J2,1,Pin_1_1*%
%TO.N,Net-(J2-Pin_1)*%
X119000000Y-94550000D03*
D15*
%TO.P,J2,2,Pin_2_2*%
%TO.N,Net-(J2-Pin_2)*%
X121000000Y-94550000D03*
%TD*%
D14*
%TO.P,J3,1,Pin_1_1*%
%TO.N,GND*%
X130000000Y-99450000D03*
D15*
%TO.P,J3,2,Pin_2_2*%
%TO.N,+5V*%
X132000000Y-99450000D03*
%TO.P,J3,3,Pin_3_3*%
%TO.N,/SDA_1*%
X134000000Y-99450000D03*
%TO.P,J3,4,Pin_4_4*%
%TO.N,/SCL_1*%
X136000000Y-99450000D03*
%TD*%
%TO.N,/DIR2*%
D17*
X125000000Y-92000000D02*
X125500000Y-91500000D01*
X115000000Y-92000000D02*
X125000000Y-92000000D01*
X101265000Y-95655000D02*
X111345000Y-95655000D01*
X111345000Y-95655000D02*
X115000000Y-92000000D01*
X100115000Y-94505000D02*
X101265000Y-95655000D01*
X125500000Y-91500000D02*
X125500000Y-88982500D01*
X125500000Y-88982500D02*
X128460000Y-86022500D01*
%TO.N,/PWM2*%
X114160000Y-83000000D02*
X130000000Y-83000000D01*
X102655000Y-94505000D02*
X114160000Y-83000000D01*
X130000000Y-83000000D02*
X130000000Y-85022500D01*
X130000000Y-85022500D02*
X131000000Y-86022500D01*
%TO.N,/PWM1*%
X116200000Y-83500000D02*
X125000000Y-83500000D01*
X105195000Y-94505000D02*
X116200000Y-83500000D01*
X125000000Y-83500000D02*
X125000000Y-85102500D01*
X125000000Y-85102500D02*
X125920000Y-86022500D01*
%TO.N,/DIR1*%
X107735000Y-94505000D02*
X116217500Y-86022500D01*
X116217500Y-86022500D02*
X123380000Y-86022500D01*
%TD*%
%TA.AperFunction,Conductor*%
%TO.N,GND*%
G36*
X115491990Y-43520185D02*
G01*
X115537745Y-43572989D01*
X115548524Y-43614224D01*
X115552574Y-43662927D01*
X115554878Y-43690630D01*
X115631725Y-44146081D01*
X115631727Y-44146087D01*
X115631727Y-44146091D01*
X115746597Y-44593459D01*
X115746600Y-44593469D01*
X115898679Y-45029583D01*
X115898684Y-45029595D01*
X116086899Y-45451384D01*
X116309924Y-45855862D01*
X116566168Y-46240155D01*
X116566172Y-46240159D01*
X116853821Y-46601538D01*
X116924270Y-46676185D01*
X116966119Y-46720529D01*
X117170842Y-46937452D01*
X117514987Y-47245518D01*
X117883819Y-47523555D01*
X117883827Y-47523560D01*
X118274714Y-47769587D01*
X118274723Y-47769592D01*
X118684933Y-47981887D01*
X119111541Y-48158936D01*
X119551526Y-48299484D01*
X120001771Y-48402537D01*
X120459088Y-48467364D01*
X120920236Y-48493507D01*
X121381949Y-48480779D01*
X121840956Y-48429271D01*
X122294006Y-48339348D01*
X122737891Y-48211647D01*
X123169465Y-48047073D01*
X123585671Y-47846791D01*
X123983562Y-47612219D01*
X124360319Y-47345021D01*
X124713272Y-47047087D01*
X125039923Y-46720529D01*
X125337957Y-46367660D01*
X125605263Y-45990979D01*
X125839947Y-45593155D01*
X126040348Y-45177006D01*
X126205045Y-44745479D01*
X126332872Y-44301631D01*
X126365075Y-44139802D01*
X126365097Y-44139758D01*
X126377944Y-44075131D01*
X126412922Y-43899191D01*
X126450399Y-43614341D01*
X126478658Y-43550447D01*
X126536980Y-43511971D01*
X126573314Y-43506521D01*
X167996237Y-43500500D01*
X168003734Y-43500725D01*
X168293796Y-43518271D01*
X168308657Y-43520075D01*
X168436419Y-43543489D01*
X168590797Y-43571780D01*
X168605334Y-43575363D01*
X168879182Y-43660698D01*
X168893163Y-43666000D01*
X169154734Y-43783724D01*
X169167987Y-43790680D01*
X169413458Y-43939071D01*
X169425776Y-43947573D01*
X169651573Y-44124474D01*
X169662781Y-44134404D01*
X169865595Y-44337218D01*
X169875525Y-44348426D01*
X170052422Y-44574217D01*
X170060928Y-44586541D01*
X170209319Y-44832012D01*
X170216277Y-44845269D01*
X170306556Y-45045860D01*
X170333994Y-45106823D01*
X170339304Y-45120825D01*
X170424635Y-45394664D01*
X170428219Y-45409202D01*
X170479923Y-45691340D01*
X170481728Y-45706205D01*
X170499274Y-45996263D01*
X170499500Y-46003750D01*
X170499500Y-109996249D01*
X170499274Y-110003736D01*
X170481728Y-110293794D01*
X170479923Y-110308659D01*
X170428219Y-110590797D01*
X170424635Y-110605335D01*
X170339304Y-110879174D01*
X170333994Y-110893176D01*
X170216277Y-111154730D01*
X170209319Y-111167987D01*
X170060928Y-111413458D01*
X170052422Y-111425782D01*
X169875525Y-111651573D01*
X169865595Y-111662781D01*
X169662781Y-111865595D01*
X169651573Y-111875525D01*
X169425782Y-112052422D01*
X169413458Y-112060928D01*
X169167987Y-112209319D01*
X169154730Y-112216277D01*
X168893176Y-112333994D01*
X168879174Y-112339304D01*
X168605335Y-112424635D01*
X168590797Y-112428219D01*
X168308659Y-112479923D01*
X168293794Y-112481728D01*
X168003736Y-112499274D01*
X167996249Y-112499500D01*
X125592029Y-112499500D01*
X125524990Y-112479815D01*
X125479235Y-112427011D01*
X125468453Y-112385740D01*
X125462927Y-112319057D01*
X125462926Y-112319051D01*
X125462926Y-112319047D01*
X125388035Y-111870248D01*
X125276338Y-111429166D01*
X125128598Y-110998815D01*
X124945825Y-110582134D01*
X124729266Y-110181969D01*
X124480402Y-109801054D01*
X124200933Y-109441991D01*
X124155577Y-109392722D01*
X123892766Y-109107233D01*
X123558010Y-108799068D01*
X123395094Y-108672266D01*
X123198946Y-108519598D01*
X123169714Y-108500500D01*
X122818032Y-108270734D01*
X122417865Y-108054174D01*
X122417861Y-108054173D01*
X122001188Y-107871403D01*
X121570847Y-107723666D01*
X121570841Y-107723664D01*
X121570834Y-107723662D01*
X121129752Y-107611965D01*
X121129748Y-107611964D01*
X120680948Y-107537073D01*
X120680942Y-107537072D01*
X120227512Y-107499500D01*
X120227502Y-107499500D01*
X119772498Y-107499500D01*
X119772487Y-107499500D01*
X119319057Y-107537072D01*
X119319051Y-107537073D01*
X118870251Y-107611964D01*
X118870247Y-107611965D01*
X118712468Y-107651920D01*
X118429166Y-107723662D01*
X118429160Y-107723663D01*
X118429152Y-107723666D01*
X117998811Y-107871403D01*
X117582138Y-108054173D01*
X117582134Y-108054174D01*
X117181967Y-108270734D01*
X116801053Y-108519598D01*
X116441989Y-108799068D01*
X116107233Y-109107233D01*
X115799068Y-109441989D01*
X115519598Y-109801053D01*
X115270734Y-110181967D01*
X115054174Y-110582134D01*
X115054173Y-110582138D01*
X114871403Y-110998811D01*
X114723666Y-111429152D01*
X114611965Y-111870247D01*
X114611964Y-111870251D01*
X114537073Y-112319051D01*
X114537072Y-112319057D01*
X114531547Y-112385740D01*
X114506394Y-112450925D01*
X114449992Y-112492163D01*
X114407971Y-112499500D01*
X69003751Y-112499500D01*
X68996264Y-112499274D01*
X68706205Y-112481728D01*
X68691340Y-112479923D01*
X68409202Y-112428219D01*
X68394664Y-112424635D01*
X68120825Y-112339304D01*
X68106827Y-112333995D01*
X67954096Y-112265256D01*
X67845269Y-112216277D01*
X67832012Y-112209319D01*
X67586541Y-112060928D01*
X67574217Y-112052422D01*
X67348426Y-111875525D01*
X67337218Y-111865595D01*
X67134404Y-111662781D01*
X67124474Y-111651573D01*
X66947573Y-111425776D01*
X66939071Y-111413458D01*
X66790680Y-111167987D01*
X66783722Y-111154730D01*
X66713550Y-110998815D01*
X66666000Y-110893163D01*
X66660698Y-110879182D01*
X66575363Y-110605334D01*
X66571780Y-110590797D01*
X66520076Y-110308659D01*
X66518271Y-110293794D01*
X66517947Y-110288445D01*
X66500726Y-110003736D01*
X66500500Y-109996249D01*
X66500500Y-104878711D01*
X72149500Y-104878711D01*
X72149500Y-105121288D01*
X72181161Y-105361785D01*
X72243947Y-105596104D01*
X72336773Y-105820205D01*
X72336776Y-105820212D01*
X72458064Y-106030289D01*
X72458066Y-106030292D01*
X72458067Y-106030293D01*
X72605733Y-106222736D01*
X72605739Y-106222743D01*
X72777256Y-106394260D01*
X72777262Y-106394265D01*
X72969711Y-106541936D01*
X73179788Y-106663224D01*
X73403900Y-106756054D01*
X73638211Y-106818838D01*
X73818586Y-106842584D01*
X73878711Y-106850500D01*
X73878712Y-106850500D01*
X74121289Y-106850500D01*
X74169388Y-106844167D01*
X74361789Y-106818838D01*
X74596100Y-106756054D01*
X74820212Y-106663224D01*
X75030289Y-106541936D01*
X75222738Y-106394265D01*
X75394265Y-106222738D01*
X75541936Y-106030289D01*
X75663224Y-105820212D01*
X75756054Y-105596100D01*
X75818838Y-105361789D01*
X75850500Y-105121288D01*
X75850500Y-104878712D01*
X75850500Y-104878711D01*
X161149500Y-104878711D01*
X161149500Y-105121288D01*
X161181161Y-105361785D01*
X161243947Y-105596104D01*
X161336773Y-105820205D01*
X161336776Y-105820212D01*
X161458064Y-106030289D01*
X161458066Y-106030292D01*
X161458067Y-106030293D01*
X161605733Y-106222736D01*
X161605739Y-106222743D01*
X161777256Y-106394260D01*
X161777262Y-106394265D01*
X161969711Y-106541936D01*
X162179788Y-106663224D01*
X162403900Y-106756054D01*
X162638211Y-106818838D01*
X162818586Y-106842584D01*
X162878711Y-106850500D01*
X162878712Y-106850500D01*
X163121289Y-106850500D01*
X163169388Y-106844167D01*
X163361789Y-106818838D01*
X163596100Y-106756054D01*
X163820212Y-106663224D01*
X164030289Y-106541936D01*
X164222738Y-106394265D01*
X164394265Y-106222738D01*
X164541936Y-106030289D01*
X164663224Y-105820212D01*
X164756054Y-105596100D01*
X164818838Y-105361789D01*
X164850500Y-105121288D01*
X164850500Y-104878712D01*
X164818838Y-104638211D01*
X164756054Y-104403900D01*
X164663224Y-104179788D01*
X164541936Y-103969711D01*
X164394265Y-103777262D01*
X164394260Y-103777256D01*
X164222743Y-103605739D01*
X164222736Y-103605733D01*
X164030293Y-103458067D01*
X164030292Y-103458066D01*
X164030289Y-103458064D01*
X163820212Y-103336776D01*
X163820205Y-103336773D01*
X163596104Y-103243947D01*
X163361785Y-103181161D01*
X163121289Y-103149500D01*
X163121288Y-103149500D01*
X162878712Y-103149500D01*
X162878711Y-103149500D01*
X162638214Y-103181161D01*
X162403895Y-103243947D01*
X162179794Y-103336773D01*
X162179785Y-103336777D01*
X161969706Y-103458067D01*
X161777263Y-103605733D01*
X161777256Y-103605739D01*
X161605739Y-103777256D01*
X161605733Y-103777263D01*
X161458067Y-103969706D01*
X161336777Y-104179785D01*
X161336773Y-104179794D01*
X161243947Y-104403895D01*
X161181161Y-104638214D01*
X161149500Y-104878711D01*
X75850500Y-104878711D01*
X75818838Y-104638211D01*
X75756054Y-104403900D01*
X75663224Y-104179788D01*
X75541936Y-103969711D01*
X75394265Y-103777262D01*
X75394260Y-103777256D01*
X75222743Y-103605739D01*
X75222736Y-103605733D01*
X75030293Y-103458067D01*
X75030292Y-103458066D01*
X75030289Y-103458064D01*
X74820212Y-103336776D01*
X74820205Y-103336773D01*
X74596104Y-103243947D01*
X74361785Y-103181161D01*
X74121289Y-103149500D01*
X74121288Y-103149500D01*
X73878712Y-103149500D01*
X73878711Y-103149500D01*
X73638214Y-103181161D01*
X73403895Y-103243947D01*
X73179794Y-103336773D01*
X73179785Y-103336777D01*
X72969706Y-103458067D01*
X72777263Y-103605733D01*
X72777256Y-103605739D01*
X72605739Y-103777256D01*
X72605733Y-103777263D01*
X72458067Y-103969706D01*
X72336777Y-104179785D01*
X72336773Y-104179794D01*
X72243947Y-104403895D01*
X72181161Y-104638214D01*
X72149500Y-104878711D01*
X66500500Y-104878711D01*
X66500500Y-98775013D01*
X128900000Y-98775013D01*
X128900000Y-99200000D01*
X129719670Y-99200000D01*
X129699925Y-99219745D01*
X129650556Y-99305255D01*
X129625000Y-99400630D01*
X129625000Y-99499370D01*
X129650556Y-99594745D01*
X129699925Y-99680255D01*
X129719670Y-99700000D01*
X128900001Y-99700000D01*
X128900001Y-100124986D01*
X128910494Y-100227697D01*
X128965641Y-100394119D01*
X128965643Y-100394124D01*
X129057684Y-100543345D01*
X129181654Y-100667315D01*
X129330875Y-100759356D01*
X129330880Y-100759358D01*
X129497302Y-100814505D01*
X129497309Y-100814506D01*
X129600019Y-100824999D01*
X129749999Y-100824999D01*
X129750000Y-100824998D01*
X129750000Y-99730330D01*
X129769745Y-99750075D01*
X129855255Y-99799444D01*
X129950630Y-99825000D01*
X130049370Y-99825000D01*
X130144745Y-99799444D01*
X130230255Y-99750075D01*
X130250000Y-99730330D01*
X130250000Y-100824999D01*
X130399972Y-100824999D01*
X130399986Y-100824998D01*
X130502697Y-100814505D01*
X130669119Y-100759358D01*
X130669124Y-100759356D01*
X130818345Y-100667315D01*
X130942315Y-100543345D01*
X130981945Y-100479094D01*
X131033893Y-100432368D01*
X131102855Y-100421145D01*
X131166937Y-100448988D01*
X131175166Y-100456508D01*
X131283072Y-100564414D01*
X131423212Y-100666232D01*
X131577555Y-100744873D01*
X131742299Y-100798402D01*
X131913389Y-100825500D01*
X131913390Y-100825500D01*
X132086610Y-100825500D01*
X132086611Y-100825500D01*
X132257701Y-100798402D01*
X132422445Y-100744873D01*
X132576788Y-100666232D01*
X132716928Y-100564414D01*
X132839414Y-100441928D01*
X132899682Y-100358975D01*
X132955012Y-100316311D01*
X133024626Y-100310332D01*
X133086421Y-100342938D01*
X133100315Y-100358973D01*
X133160586Y-100441928D01*
X133283072Y-100564414D01*
X133423212Y-100666232D01*
X133577555Y-100744873D01*
X133742299Y-100798402D01*
X133913389Y-100825500D01*
X133913390Y-100825500D01*
X134086610Y-100825500D01*
X134086611Y-100825500D01*
X134257701Y-100798402D01*
X134422445Y-100744873D01*
X134576788Y-100666232D01*
X134716928Y-100564414D01*
X134839414Y-100441928D01*
X134899682Y-100358975D01*
X134955012Y-100316311D01*
X135024626Y-100310332D01*
X135086421Y-100342938D01*
X135100315Y-100358973D01*
X135160586Y-100441928D01*
X135283072Y-100564414D01*
X135423212Y-100666232D01*
X135577555Y-100744873D01*
X135742299Y-100798402D01*
X135913389Y-100825500D01*
X135913390Y-100825500D01*
X136086610Y-100825500D01*
X136086611Y-100825500D01*
X136257701Y-100798402D01*
X136422445Y-100744873D01*
X136576788Y-100666232D01*
X136716928Y-100564414D01*
X136839414Y-100441928D01*
X136941232Y-100301788D01*
X137019873Y-100147445D01*
X137073402Y-99982701D01*
X137100500Y-99811611D01*
X137100500Y-99088389D01*
X137073402Y-98917299D01*
X137019873Y-98752555D01*
X136941232Y-98598212D01*
X136839414Y-98458072D01*
X136716928Y-98335586D01*
X136576788Y-98233768D01*
X136422445Y-98155127D01*
X136257701Y-98101598D01*
X136257699Y-98101597D01*
X136257698Y-98101597D01*
X136126271Y-98080781D01*
X136086611Y-98074500D01*
X135913389Y-98074500D01*
X135873728Y-98080781D01*
X135742302Y-98101597D01*
X135577552Y-98155128D01*
X135423211Y-98233768D01*
X135343256Y-98291859D01*
X135283072Y-98335586D01*
X135283070Y-98335588D01*
X135283069Y-98335588D01*
X135160588Y-98458069D01*
X135160581Y-98458078D01*
X135100317Y-98541023D01*
X135044987Y-98583689D01*
X134975374Y-98589667D01*
X134913579Y-98557061D01*
X134899683Y-98541023D01*
X134851899Y-98475257D01*
X134839414Y-98458072D01*
X134716928Y-98335586D01*
X134576788Y-98233768D01*
X134422445Y-98155127D01*
X134257701Y-98101598D01*
X134257699Y-98101597D01*
X134257698Y-98101597D01*
X134126271Y-98080781D01*
X134086611Y-98074500D01*
X133913389Y-98074500D01*
X133873728Y-98080781D01*
X133742302Y-98101597D01*
X133577552Y-98155128D01*
X133423211Y-98233768D01*
X133343256Y-98291859D01*
X133283072Y-98335586D01*
X133283070Y-98335588D01*
X133283069Y-98335588D01*
X133160588Y-98458069D01*
X133160581Y-98458078D01*
X133100317Y-98541023D01*
X133044987Y-98583689D01*
X132975374Y-98589667D01*
X132913579Y-98557061D01*
X132899683Y-98541023D01*
X132851899Y-98475257D01*
X132839414Y-98458072D01*
X132716928Y-98335586D01*
X132576788Y-98233768D01*
X132422445Y-98155127D01*
X132257701Y-98101598D01*
X132257699Y-98101597D01*
X132257698Y-98101597D01*
X132126271Y-98080781D01*
X132086611Y-98074500D01*
X131913389Y-98074500D01*
X131873728Y-98080781D01*
X131742302Y-98101597D01*
X131577552Y-98155128D01*
X131423211Y-98233768D01*
X131283073Y-98335585D01*
X131175166Y-98443492D01*
X131113843Y-98476976D01*
X131044151Y-98471992D01*
X130988218Y-98430120D01*
X130981946Y-98420906D01*
X130942317Y-98356656D01*
X130818345Y-98232684D01*
X130669124Y-98140643D01*
X130669119Y-98140641D01*
X130502697Y-98085494D01*
X130502690Y-98085493D01*
X130399986Y-98075000D01*
X130250000Y-98075000D01*
X130250000Y-99169670D01*
X130230255Y-99149925D01*
X130144745Y-99100556D01*
X130049370Y-99075000D01*
X129950630Y-99075000D01*
X129855255Y-99100556D01*
X129769745Y-99149925D01*
X129750000Y-99169670D01*
X129750000Y-98075000D01*
X129600027Y-98075000D01*
X129600012Y-98075001D01*
X129497302Y-98085494D01*
X129330880Y-98140641D01*
X129330875Y-98140643D01*
X129181654Y-98232684D01*
X129057684Y-98356654D01*
X128965643Y-98505875D01*
X128965641Y-98505880D01*
X128910494Y-98672302D01*
X128910493Y-98672309D01*
X128900000Y-98775013D01*
X66500500Y-98775013D01*
X66500500Y-94398713D01*
X93684500Y-94398713D01*
X93684500Y-94611287D01*
X93717754Y-94821243D01*
X93781743Y-95018181D01*
X93783444Y-95023414D01*
X93879951Y-95212820D01*
X94004890Y-95384786D01*
X94155213Y-95535109D01*
X94327179Y-95660048D01*
X94327181Y-95660049D01*
X94327184Y-95660051D01*
X94516588Y-95756557D01*
X94718757Y-95822246D01*
X94928713Y-95855500D01*
X94928714Y-95855500D01*
X95141286Y-95855500D01*
X95141287Y-95855500D01*
X95351243Y-95822246D01*
X95553412Y-95756557D01*
X95742816Y-95660051D01*
X95884831Y-95556872D01*
X95914786Y-95535109D01*
X95914788Y-95535106D01*
X95914792Y-95535104D01*
X96065104Y-95384792D01*
X96065106Y-95384788D01*
X96065109Y-95384786D01*
X96150890Y-95266717D01*
X96190051Y-95212816D01*
X96194793Y-95203508D01*
X96242763Y-95152711D01*
X96310583Y-95135911D01*
X96376719Y-95158445D01*
X96415763Y-95203500D01*
X96420373Y-95212547D01*
X96459728Y-95266716D01*
X97092037Y-94634408D01*
X97109075Y-94697993D01*
X97174901Y-94812007D01*
X97267993Y-94905099D01*
X97382007Y-94970925D01*
X97445590Y-94987962D01*
X96813282Y-95620269D01*
X96813282Y-95620270D01*
X96867449Y-95659624D01*
X97056782Y-95756095D01*
X97258870Y-95821757D01*
X97468754Y-95855000D01*
X97681246Y-95855000D01*
X97891127Y-95821757D01*
X97891130Y-95821757D01*
X98093217Y-95756095D01*
X98282554Y-95659622D01*
X98336716Y-95620270D01*
X98336717Y-95620270D01*
X97704408Y-94987962D01*
X97767993Y-94970925D01*
X97882007Y-94905099D01*
X97975099Y-94812007D01*
X98040925Y-94697993D01*
X98057962Y-94634409D01*
X98690270Y-95266717D01*
X98690270Y-95266716D01*
X98729622Y-95212555D01*
X98734232Y-95203507D01*
X98782205Y-95152709D01*
X98850025Y-95135912D01*
X98916161Y-95158447D01*
X98955204Y-95203504D01*
X98959949Y-95212817D01*
X99084890Y-95384786D01*
X99235213Y-95535109D01*
X99407179Y-95660048D01*
X99407181Y-95660049D01*
X99407184Y-95660051D01*
X99596588Y-95756557D01*
X99798757Y-95822246D01*
X100008713Y-95855500D01*
X100008714Y-95855500D01*
X100221286Y-95855500D01*
X100221287Y-95855500D01*
X100431243Y-95822246D01*
X100473523Y-95808507D01*
X100543362Y-95806511D01*
X100599521Y-95838756D01*
X100896284Y-96135520D01*
X100896286Y-96135521D01*
X100896290Y-96135524D01*
X101033209Y-96214573D01*
X101033216Y-96214577D01*
X101185943Y-96255501D01*
X101185945Y-96255501D01*
X101351654Y-96255501D01*
X101351670Y-96255500D01*
X111258331Y-96255500D01*
X111258347Y-96255501D01*
X111265943Y-96255501D01*
X111424054Y-96255501D01*
X111424057Y-96255501D01*
X111576785Y-96214577D01*
X111626904Y-96185639D01*
X111713716Y-96135520D01*
X111825520Y-96023716D01*
X111825520Y-96023714D01*
X111835728Y-96013507D01*
X111835729Y-96013504D01*
X113974252Y-93874983D01*
X117899500Y-93874983D01*
X117899500Y-95225001D01*
X117899501Y-95225018D01*
X117910000Y-95327796D01*
X117910001Y-95327799D01*
X117965185Y-95494331D01*
X117965187Y-95494336D01*
X117988870Y-95532732D01*
X118057288Y-95643656D01*
X118181344Y-95767712D01*
X118330666Y-95859814D01*
X118497203Y-95914999D01*
X118599991Y-95925500D01*
X119400008Y-95925499D01*
X119400016Y-95925498D01*
X119400019Y-95925498D01*
X119456302Y-95919748D01*
X119502797Y-95914999D01*
X119669334Y-95859814D01*
X119818656Y-95767712D01*
X119942712Y-95643656D01*
X119982310Y-95579456D01*
X120034258Y-95532732D01*
X120103220Y-95521509D01*
X120167303Y-95549352D01*
X120175530Y-95556872D01*
X120283072Y-95664414D01*
X120423212Y-95766232D01*
X120577555Y-95844873D01*
X120742299Y-95898402D01*
X120913389Y-95925500D01*
X120913390Y-95925500D01*
X121086610Y-95925500D01*
X121086611Y-95925500D01*
X121257701Y-95898402D01*
X121422445Y-95844873D01*
X121576788Y-95766232D01*
X121716928Y-95664414D01*
X121839414Y-95541928D01*
X121941232Y-95401788D01*
X122019873Y-95247445D01*
X122073402Y-95082701D01*
X122100500Y-94911611D01*
X122100500Y-94188389D01*
X122073402Y-94017299D01*
X122019873Y-93852555D01*
X121941232Y-93698212D01*
X121839414Y-93558072D01*
X121716928Y-93435586D01*
X121576788Y-93333768D01*
X121422445Y-93255127D01*
X121257701Y-93201598D01*
X121257699Y-93201597D01*
X121257698Y-93201597D01*
X121126271Y-93180781D01*
X121086611Y-93174500D01*
X120913389Y-93174500D01*
X120873728Y-93180781D01*
X120742302Y-93201597D01*
X120577552Y-93255128D01*
X120423211Y-93333768D01*
X120283073Y-93435585D01*
X120175530Y-93543128D01*
X120114207Y-93576612D01*
X120044515Y-93571628D01*
X119988582Y-93529756D01*
X119982310Y-93520543D01*
X119942712Y-93456344D01*
X119818656Y-93332288D01*
X119693559Y-93255128D01*
X119669336Y-93240187D01*
X119669331Y-93240185D01*
X119623424Y-93224973D01*
X119502797Y-93185001D01*
X119502795Y-93185000D01*
X119400010Y-93174500D01*
X118599998Y-93174500D01*
X118599980Y-93174501D01*
X118497203Y-93185000D01*
X118497200Y-93185001D01*
X118330668Y-93240185D01*
X118330663Y-93240187D01*
X118181342Y-93332289D01*
X118057289Y-93456342D01*
X117965187Y-93605663D01*
X117965185Y-93605668D01*
X117937349Y-93689670D01*
X117910001Y-93772203D01*
X117910001Y-93772204D01*
X117910000Y-93772204D01*
X117899500Y-93874983D01*
X113974252Y-93874983D01*
X115212417Y-92636819D01*
X115273740Y-92603334D01*
X115300098Y-92600500D01*
X124913331Y-92600500D01*
X124913347Y-92600501D01*
X124920943Y-92600501D01*
X125079054Y-92600501D01*
X125079057Y-92600501D01*
X125231785Y-92559577D01*
X125281904Y-92530639D01*
X125368716Y-92480520D01*
X125480520Y-92368716D01*
X125480521Y-92368714D01*
X125980520Y-91868716D01*
X126059577Y-91731784D01*
X126100501Y-91579057D01*
X126100501Y-91420942D01*
X126100501Y-91413347D01*
X126100500Y-91413329D01*
X126100500Y-89282596D01*
X126120185Y-89215557D01*
X126136814Y-89194920D01*
X127975478Y-87356255D01*
X128036799Y-87322772D01*
X128101473Y-87326006D01*
X128143757Y-87339746D01*
X128353713Y-87373000D01*
X128353714Y-87373000D01*
X128566286Y-87373000D01*
X128566287Y-87373000D01*
X128776243Y-87339746D01*
X128978412Y-87274057D01*
X129167816Y-87177551D01*
X129254138Y-87114835D01*
X129339786Y-87052609D01*
X129339788Y-87052606D01*
X129339792Y-87052604D01*
X129490104Y-86902292D01*
X129490106Y-86902288D01*
X129490109Y-86902286D01*
X129615048Y-86730320D01*
X129615047Y-86730320D01*
X129615051Y-86730316D01*
X129619514Y-86721554D01*
X129667488Y-86670759D01*
X129735308Y-86653963D01*
X129801444Y-86676499D01*
X129840486Y-86721556D01*
X129844951Y-86730320D01*
X129969890Y-86902286D01*
X130120213Y-87052609D01*
X130292179Y-87177548D01*
X130292181Y-87177549D01*
X130292184Y-87177551D01*
X130481588Y-87274057D01*
X130683757Y-87339746D01*
X130893713Y-87373000D01*
X130893714Y-87373000D01*
X131106286Y-87373000D01*
X131106287Y-87373000D01*
X131316243Y-87339746D01*
X131518412Y-87274057D01*
X131707816Y-87177551D01*
X131794138Y-87114835D01*
X131879786Y-87052609D01*
X131879788Y-87052606D01*
X131879792Y-87052604D01*
X132030104Y-86902292D01*
X132030106Y-86902288D01*
X132030109Y-86902286D01*
X132155048Y-86730320D01*
X132155047Y-86730320D01*
X132155051Y-86730316D01*
X132159514Y-86721554D01*
X132207488Y-86670759D01*
X132275308Y-86653963D01*
X132341444Y-86676499D01*
X132380486Y-86721556D01*
X132384951Y-86730320D01*
X132509890Y-86902286D01*
X132660213Y-87052609D01*
X132832179Y-87177548D01*
X132832181Y-87177549D01*
X132832184Y-87177551D01*
X133021588Y-87274057D01*
X133223757Y-87339746D01*
X133433713Y-87373000D01*
X133433714Y-87373000D01*
X133646286Y-87373000D01*
X133646287Y-87373000D01*
X133856243Y-87339746D01*
X134058412Y-87274057D01*
X134247816Y-87177551D01*
X134334138Y-87114835D01*
X134419786Y-87052609D01*
X134419788Y-87052606D01*
X134419792Y-87052604D01*
X134570104Y-86902292D01*
X134570106Y-86902288D01*
X134570109Y-86902286D01*
X134695048Y-86730320D01*
X134695047Y-86730320D01*
X134695051Y-86730316D01*
X134699514Y-86721554D01*
X134747488Y-86670759D01*
X134815308Y-86653963D01*
X134881444Y-86676499D01*
X134920486Y-86721556D01*
X134924951Y-86730320D01*
X135049890Y-86902286D01*
X135200213Y-87052609D01*
X135372179Y-87177548D01*
X135372181Y-87177549D01*
X135372184Y-87177551D01*
X135561588Y-87274057D01*
X135763757Y-87339746D01*
X135973713Y-87373000D01*
X135973714Y-87373000D01*
X136186286Y-87373000D01*
X136186287Y-87373000D01*
X136396243Y-87339746D01*
X136598412Y-87274057D01*
X136787816Y-87177551D01*
X136874138Y-87114835D01*
X136959786Y-87052609D01*
X136959788Y-87052606D01*
X136959792Y-87052604D01*
X137110104Y-86902292D01*
X137110106Y-86902288D01*
X137110109Y-86902286D01*
X137235048Y-86730320D01*
X137235047Y-86730320D01*
X137235051Y-86730316D01*
X137239514Y-86721554D01*
X137287488Y-86670759D01*
X137355308Y-86653963D01*
X137421444Y-86676499D01*
X137460486Y-86721556D01*
X137464951Y-86730320D01*
X137589890Y-86902286D01*
X137740213Y-87052609D01*
X137912179Y-87177548D01*
X137912181Y-87177549D01*
X137912184Y-87177551D01*
X138101588Y-87274057D01*
X138303757Y-87339746D01*
X138513713Y-87373000D01*
X138513714Y-87373000D01*
X138726286Y-87373000D01*
X138726287Y-87373000D01*
X138936243Y-87339746D01*
X139138412Y-87274057D01*
X139327816Y-87177551D01*
X139414138Y-87114835D01*
X139499786Y-87052609D01*
X139499788Y-87052606D01*
X139499792Y-87052604D01*
X139650104Y-86902292D01*
X139650106Y-86902288D01*
X139650109Y-86902286D01*
X139775048Y-86730320D01*
X139775047Y-86730320D01*
X139775051Y-86730316D01*
X139871557Y-86540912D01*
X139937246Y-86338743D01*
X139970500Y-86128787D01*
X139970500Y-85916213D01*
X139937246Y-85706257D01*
X139871557Y-85504088D01*
X139775051Y-85314684D01*
X139746891Y-85275925D01*
X139687511Y-85194194D01*
X139687508Y-85194191D01*
X139665248Y-85163553D01*
X139650104Y-85142708D01*
X139632031Y-85124635D01*
X149029500Y-85124635D01*
X149029500Y-86920370D01*
X149029501Y-86920376D01*
X149035908Y-86979983D01*
X149086202Y-87114828D01*
X149086206Y-87114835D01*
X149172452Y-87230044D01*
X149172455Y-87230047D01*
X149287664Y-87316293D01*
X149287671Y-87316297D01*
X149422517Y-87366591D01*
X149422516Y-87366591D01*
X149429444Y-87367335D01*
X149482127Y-87373000D01*
X151277872Y-87372999D01*
X151337483Y-87366591D01*
X151472331Y-87316296D01*
X151587546Y-87230046D01*
X151673796Y-87114831D01*
X151722810Y-86983416D01*
X151764681Y-86927484D01*
X151830145Y-86903066D01*
X151898418Y-86917917D01*
X151926673Y-86939069D01*
X152040213Y-87052609D01*
X152212179Y-87177548D01*
X152212181Y-87177549D01*
X152212184Y-87177551D01*
X152401588Y-87274057D01*
X152603757Y-87339746D01*
X152813713Y-87373000D01*
X152813714Y-87373000D01*
X153026286Y-87373000D01*
X153026287Y-87373000D01*
X153236243Y-87339746D01*
X153438412Y-87274057D01*
X153627816Y-87177551D01*
X153714138Y-87114835D01*
X153799786Y-87052609D01*
X153799788Y-87052606D01*
X153799792Y-87052604D01*
X153950104Y-86902292D01*
X153950106Y-86902288D01*
X153950109Y-86902286D01*
X154075048Y-86730320D01*
X154075047Y-86730320D01*
X154075051Y-86730316D01*
X154079514Y-86721554D01*
X154127488Y-86670759D01*
X154195308Y-86653963D01*
X154261444Y-86676499D01*
X154300486Y-86721556D01*
X154304951Y-86730320D01*
X154429890Y-86902286D01*
X154580213Y-87052609D01*
X154752179Y-87177548D01*
X154752181Y-87177549D01*
X154752184Y-87177551D01*
X154941588Y-87274057D01*
X155143757Y-87339746D01*
X155353713Y-87373000D01*
X155353714Y-87373000D01*
X155566286Y-87373000D01*
X155566287Y-87373000D01*
X155776243Y-87339746D01*
X155978412Y-87274057D01*
X156167816Y-87177551D01*
X156254138Y-87114835D01*
X156339786Y-87052609D01*
X156339788Y-87052606D01*
X156339792Y-87052604D01*
X156490104Y-86902292D01*
X156490106Y-86902288D01*
X156490109Y-86902286D01*
X156615048Y-86730320D01*
X156615047Y-86730320D01*
X156615051Y-86730316D01*
X156619514Y-86721554D01*
X156667488Y-86670759D01*
X156735308Y-86653963D01*
X156801444Y-86676499D01*
X156840486Y-86721556D01*
X156844951Y-86730320D01*
X156969890Y-86902286D01*
X157120213Y-87052609D01*
X157292179Y-87177548D01*
X157292181Y-87177549D01*
X157292184Y-87177551D01*
X157481588Y-87274057D01*
X157683757Y-87339746D01*
X157893713Y-87373000D01*
X157893714Y-87373000D01*
X158106286Y-87373000D01*
X158106287Y-87373000D01*
X158316243Y-87339746D01*
X158518412Y-87274057D01*
X158707816Y-87177551D01*
X158794138Y-87114835D01*
X158879786Y-87052609D01*
X158879788Y-87052606D01*
X158879792Y-87052604D01*
X159030104Y-86902292D01*
X159030106Y-86902288D01*
X159030109Y-86902286D01*
X159155048Y-86730320D01*
X159155047Y-86730320D01*
X159155051Y-86730316D01*
X159159514Y-86721554D01*
X159207488Y-86670759D01*
X159275308Y-86653963D01*
X159341444Y-86676499D01*
X159380486Y-86721556D01*
X159384951Y-86730320D01*
X159509890Y-86902286D01*
X159660213Y-87052609D01*
X159832179Y-87177548D01*
X159832181Y-87177549D01*
X159832184Y-87177551D01*
X160021588Y-87274057D01*
X160223757Y-87339746D01*
X160433713Y-87373000D01*
X160433714Y-87373000D01*
X160646286Y-87373000D01*
X160646287Y-87373000D01*
X160856243Y-87339746D01*
X161058412Y-87274057D01*
X161247816Y-87177551D01*
X161334138Y-87114835D01*
X161419786Y-87052609D01*
X161419788Y-87052606D01*
X161419792Y-87052604D01*
X161570104Y-86902292D01*
X161570106Y-86902288D01*
X161570109Y-86902286D01*
X161695048Y-86730320D01*
X161695047Y-86730320D01*
X161695051Y-86730316D01*
X161699514Y-86721554D01*
X161747488Y-86670759D01*
X161815308Y-86653963D01*
X161881444Y-86676499D01*
X161920486Y-86721556D01*
X161924951Y-86730320D01*
X162049890Y-86902286D01*
X162200213Y-87052609D01*
X162372179Y-87177548D01*
X162372181Y-87177549D01*
X162372184Y-87177551D01*
X162561588Y-87274057D01*
X162763757Y-87339746D01*
X162973713Y-87373000D01*
X162973714Y-87373000D01*
X163186286Y-87373000D01*
X163186287Y-87373000D01*
X163396243Y-87339746D01*
X163598412Y-87274057D01*
X163787816Y-87177551D01*
X163874138Y-87114835D01*
X163959786Y-87052609D01*
X163959788Y-87052606D01*
X163959792Y-87052604D01*
X164110104Y-86902292D01*
X164110106Y-86902288D01*
X164110109Y-86902286D01*
X164235048Y-86730320D01*
X164235047Y-86730320D01*
X164235051Y-86730316D01*
X164239514Y-86721554D01*
X164287488Y-86670759D01*
X164355308Y-86653963D01*
X164421444Y-86676499D01*
X164460486Y-86721556D01*
X164464951Y-86730320D01*
X164589890Y-86902286D01*
X164740213Y-87052609D01*
X164912179Y-87177548D01*
X164912181Y-87177549D01*
X164912184Y-87177551D01*
X165101588Y-87274057D01*
X165303757Y-87339746D01*
X165513713Y-87373000D01*
X165513714Y-87373000D01*
X165726286Y-87373000D01*
X165726287Y-87373000D01*
X165936243Y-87339746D01*
X166138412Y-87274057D01*
X166327816Y-87177551D01*
X166414138Y-87114835D01*
X166499786Y-87052609D01*
X166499788Y-87052606D01*
X166499792Y-87052604D01*
X166650104Y-86902292D01*
X166650106Y-86902288D01*
X166650109Y-86902286D01*
X166775048Y-86730320D01*
X166775047Y-86730320D01*
X166775051Y-86730316D01*
X166871557Y-86540912D01*
X166937246Y-86338743D01*
X166970500Y-86128787D01*
X166970500Y-85916213D01*
X166937246Y-85706257D01*
X166871557Y-85504088D01*
X166775051Y-85314684D01*
X166775049Y-85314681D01*
X166775048Y-85314679D01*
X166650109Y-85142713D01*
X166499786Y-84992390D01*
X166327820Y-84867451D01*
X166138414Y-84770944D01*
X166138413Y-84770943D01*
X166138412Y-84770943D01*
X165936243Y-84705254D01*
X165936241Y-84705253D01*
X165936240Y-84705253D01*
X165774957Y-84679708D01*
X165726287Y-84672000D01*
X165513713Y-84672000D01*
X165465042Y-84679708D01*
X165303760Y-84705253D01*
X165101585Y-84770944D01*
X164912179Y-84867451D01*
X164740213Y-84992390D01*
X164589890Y-85142713D01*
X164464949Y-85314682D01*
X164460484Y-85323446D01*
X164412509Y-85374242D01*
X164344688Y-85391036D01*
X164278553Y-85368498D01*
X164239516Y-85323446D01*
X164235050Y-85314682D01*
X164110109Y-85142713D01*
X163959786Y-84992390D01*
X163787820Y-84867451D01*
X163598414Y-84770944D01*
X163598413Y-84770943D01*
X163598412Y-84770943D01*
X163396243Y-84705254D01*
X163396241Y-84705253D01*
X163396240Y-84705253D01*
X163234957Y-84679708D01*
X163186287Y-84672000D01*
X162973713Y-84672000D01*
X162925042Y-84679708D01*
X162763760Y-84705253D01*
X162561585Y-84770944D01*
X162372179Y-84867451D01*
X162200213Y-84992390D01*
X162049890Y-85142713D01*
X161924949Y-85314682D01*
X161920484Y-85323446D01*
X161872509Y-85374242D01*
X161804688Y-85391036D01*
X161738553Y-85368498D01*
X161699516Y-85323446D01*
X161695050Y-85314682D01*
X161570109Y-85142713D01*
X161419786Y-84992390D01*
X161247820Y-84867451D01*
X161058414Y-84770944D01*
X161058413Y-84770943D01*
X161058412Y-84770943D01*
X160856243Y-84705254D01*
X160856241Y-84705253D01*
X160856240Y-84705253D01*
X160694957Y-84679708D01*
X160646287Y-84672000D01*
X160433713Y-84672000D01*
X160385042Y-84679708D01*
X160223760Y-84705253D01*
X160021585Y-84770944D01*
X159832179Y-84867451D01*
X159660213Y-84992390D01*
X159509890Y-85142713D01*
X159384949Y-85314682D01*
X159380484Y-85323446D01*
X159332509Y-85374242D01*
X159264688Y-85391036D01*
X159198553Y-85368498D01*
X159159516Y-85323446D01*
X159155050Y-85314682D01*
X159030109Y-85142713D01*
X158879786Y-84992390D01*
X158707820Y-84867451D01*
X158518414Y-84770944D01*
X158518413Y-84770943D01*
X158518412Y-84770943D01*
X158316243Y-84705254D01*
X158316241Y-84705253D01*
X158316240Y-84705253D01*
X158154957Y-84679708D01*
X158106287Y-84672000D01*
X157893713Y-84672000D01*
X157845042Y-84679708D01*
X157683760Y-84705253D01*
X157481585Y-84770944D01*
X157292179Y-84867451D01*
X157120213Y-84992390D01*
X156969890Y-85142713D01*
X156844949Y-85314682D01*
X156840484Y-85323446D01*
X156792509Y-85374242D01*
X156724688Y-85391036D01*
X156658553Y-85368498D01*
X156619516Y-85323446D01*
X156615050Y-85314682D01*
X156490109Y-85142713D01*
X156339786Y-84992390D01*
X156167820Y-84867451D01*
X155978414Y-84770944D01*
X155978413Y-84770943D01*
X155978412Y-84770943D01*
X155776243Y-84705254D01*
X155776241Y-84705253D01*
X155776240Y-84705253D01*
X155614957Y-84679708D01*
X155566287Y-84672000D01*
X155353713Y-84672000D01*
X155305042Y-84679708D01*
X155143760Y-84705253D01*
X154941585Y-84770944D01*
X154752179Y-84867451D01*
X154580213Y-84992390D01*
X154429890Y-85142713D01*
X154304949Y-85314682D01*
X154300484Y-85323446D01*
X154252509Y-85374242D01*
X154184688Y-85391036D01*
X154118553Y-85368498D01*
X154079516Y-85323446D01*
X154075050Y-85314682D01*
X153950109Y-85142713D01*
X153799786Y-84992390D01*
X153627820Y-84867451D01*
X153438414Y-84770944D01*
X153438413Y-84770943D01*
X153438412Y-84770943D01*
X153236243Y-84705254D01*
X153236241Y-84705253D01*
X153236240Y-84705253D01*
X153074957Y-84679708D01*
X153026287Y-84672000D01*
X152813713Y-84672000D01*
X152765042Y-84679708D01*
X152603760Y-84705253D01*
X152401585Y-84770944D01*
X152212179Y-84867451D01*
X152040215Y-84992389D01*
X151926673Y-85105931D01*
X151865350Y-85139415D01*
X151795658Y-85134431D01*
X151739725Y-85092559D01*
X151722810Y-85061582D01*
X151673797Y-84930171D01*
X151673793Y-84930164D01*
X151587547Y-84814955D01*
X151587544Y-84814952D01*
X151472335Y-84728706D01*
X151472328Y-84728702D01*
X151337482Y-84678408D01*
X151337483Y-84678408D01*
X151277883Y-84672001D01*
X151277881Y-84672000D01*
X151277873Y-84672000D01*
X151277864Y-84672000D01*
X149482129Y-84672000D01*
X149482123Y-84672001D01*
X149422516Y-84678408D01*
X149287671Y-84728702D01*
X149287664Y-84728706D01*
X149172455Y-84814952D01*
X149172452Y-84814955D01*
X149086206Y-84930164D01*
X149086202Y-84930171D01*
X149035908Y-85065017D01*
X149029501Y-85124616D01*
X149029500Y-85124635D01*
X139632031Y-85124635D01*
X139499792Y-84992396D01*
X139499786Y-84992390D01*
X139327820Y-84867451D01*
X139138414Y-84770944D01*
X139138413Y-84770943D01*
X139138412Y-84770943D01*
X138936243Y-84705254D01*
X138936241Y-84705253D01*
X138936240Y-84705253D01*
X138774957Y-84679708D01*
X138726287Y-84672000D01*
X138513713Y-84672000D01*
X138465042Y-84679708D01*
X138303760Y-84705253D01*
X138101585Y-84770944D01*
X137912179Y-84867451D01*
X137740213Y-84992390D01*
X137589890Y-85142713D01*
X137464949Y-85314682D01*
X137460484Y-85323446D01*
X137412509Y-85374242D01*
X137344688Y-85391036D01*
X137278553Y-85368498D01*
X137239516Y-85323446D01*
X137235050Y-85314682D01*
X137110109Y-85142713D01*
X136959786Y-84992390D01*
X136787820Y-84867451D01*
X136598414Y-84770944D01*
X136598413Y-84770943D01*
X136598412Y-84770943D01*
X136396243Y-84705254D01*
X136396241Y-84705253D01*
X136396240Y-84705253D01*
X136234957Y-84679708D01*
X136186287Y-84672000D01*
X135973713Y-84672000D01*
X135925042Y-84679708D01*
X135763760Y-84705253D01*
X135561585Y-84770944D01*
X135372179Y-84867451D01*
X135200213Y-84992390D01*
X135049890Y-85142713D01*
X134924949Y-85314682D01*
X134920484Y-85323446D01*
X134872509Y-85374242D01*
X134804688Y-85391036D01*
X134738553Y-85368498D01*
X134699516Y-85323446D01*
X134695050Y-85314682D01*
X134570109Y-85142713D01*
X134419786Y-84992390D01*
X134247820Y-84867451D01*
X134058414Y-84770944D01*
X134058413Y-84770943D01*
X134058412Y-84770943D01*
X133856243Y-84705254D01*
X133856241Y-84705253D01*
X133856240Y-84705253D01*
X133694957Y-84679708D01*
X133646287Y-84672000D01*
X133433713Y-84672000D01*
X133385042Y-84679708D01*
X133223760Y-84705253D01*
X133021585Y-84770944D01*
X132832179Y-84867451D01*
X132660213Y-84992390D01*
X132509890Y-85142713D01*
X132384949Y-85314682D01*
X132380484Y-85323446D01*
X132332509Y-85374242D01*
X132264688Y-85391036D01*
X132198553Y-85368498D01*
X132159516Y-85323446D01*
X132155050Y-85314682D01*
X132030109Y-85142713D01*
X131879786Y-84992390D01*
X131707820Y-84867451D01*
X131518414Y-84770944D01*
X131518413Y-84770943D01*
X131518412Y-84770943D01*
X131316243Y-84705254D01*
X131316241Y-84705253D01*
X131316240Y-84705253D01*
X131154957Y-84679708D01*
X131106287Y-84672000D01*
X130893713Y-84672000D01*
X130743897Y-84695728D01*
X130674604Y-84686773D01*
X130621152Y-84641777D01*
X130600513Y-84575025D01*
X130600500Y-84573255D01*
X130600500Y-82920945D01*
X130600500Y-82920943D01*
X130559577Y-82768216D01*
X130502930Y-82670099D01*
X130480524Y-82631290D01*
X130480518Y-82631282D01*
X130368717Y-82519481D01*
X130368709Y-82519475D01*
X130231790Y-82440426D01*
X130231786Y-82440424D01*
X130231784Y-82440423D01*
X130079057Y-82399500D01*
X130079056Y-82399500D01*
X114246669Y-82399500D01*
X114246653Y-82399499D01*
X114239057Y-82399499D01*
X114080943Y-82399499D01*
X113973587Y-82428265D01*
X113928210Y-82440424D01*
X113928209Y-82440425D01*
X113878096Y-82469359D01*
X113878095Y-82469360D01*
X113834689Y-82494420D01*
X113791285Y-82519479D01*
X113791282Y-82519481D01*
X113679478Y-82631286D01*
X103139522Y-93171241D01*
X103078199Y-93204726D01*
X103013523Y-93201491D01*
X102971245Y-93187754D01*
X102831272Y-93165584D01*
X102761287Y-93154500D01*
X102548713Y-93154500D01*
X102500042Y-93162208D01*
X102338760Y-93187753D01*
X102136585Y-93253444D01*
X101947179Y-93349951D01*
X101775213Y-93474890D01*
X101624890Y-93625213D01*
X101499949Y-93797182D01*
X101495484Y-93805946D01*
X101447509Y-93856742D01*
X101379688Y-93873536D01*
X101313553Y-93850998D01*
X101274516Y-93805946D01*
X101270050Y-93797182D01*
X101145109Y-93625213D01*
X100994786Y-93474890D01*
X100822820Y-93349951D01*
X100633414Y-93253444D01*
X100633413Y-93253443D01*
X100633412Y-93253443D01*
X100431243Y-93187754D01*
X100431241Y-93187753D01*
X100431240Y-93187753D01*
X100269957Y-93162208D01*
X100221287Y-93154500D01*
X100008713Y-93154500D01*
X99960042Y-93162208D01*
X99798760Y-93187753D01*
X99596585Y-93253444D01*
X99407179Y-93349951D01*
X99235213Y-93474890D01*
X99084890Y-93625213D01*
X98959949Y-93797182D01*
X98955202Y-93806499D01*
X98907227Y-93857293D01*
X98839405Y-93874087D01*
X98773271Y-93851548D01*
X98734234Y-93806495D01*
X98729626Y-93797452D01*
X98690270Y-93743282D01*
X98690269Y-93743282D01*
X98057962Y-94375590D01*
X98040925Y-94312007D01*
X97975099Y-94197993D01*
X97882007Y-94104901D01*
X97767993Y-94039075D01*
X97704409Y-94022037D01*
X98336716Y-93389728D01*
X98282550Y-93350375D01*
X98093217Y-93253904D01*
X97891129Y-93188242D01*
X97681246Y-93155000D01*
X97468754Y-93155000D01*
X97258872Y-93188242D01*
X97258869Y-93188242D01*
X97056782Y-93253904D01*
X96867439Y-93350380D01*
X96813282Y-93389727D01*
X96813282Y-93389728D01*
X97445591Y-94022037D01*
X97382007Y-94039075D01*
X97267993Y-94104901D01*
X97174901Y-94197993D01*
X97109075Y-94312007D01*
X97092037Y-94375591D01*
X96459728Y-93743282D01*
X96459727Y-93743282D01*
X96420380Y-93797440D01*
X96420376Y-93797446D01*
X96415760Y-93806505D01*
X96367781Y-93857297D01*
X96299959Y-93874087D01*
X96233826Y-93851543D01*
X96194794Y-93806493D01*
X96190051Y-93797184D01*
X96190049Y-93797181D01*
X96190048Y-93797179D01*
X96065109Y-93625213D01*
X95914786Y-93474890D01*
X95742820Y-93349951D01*
X95553414Y-93253444D01*
X95553413Y-93253443D01*
X95553412Y-93253443D01*
X95351243Y-93187754D01*
X95351241Y-93187753D01*
X95351240Y-93187753D01*
X95189957Y-93162208D01*
X95141287Y-93154500D01*
X94928713Y-93154500D01*
X94880042Y-93162208D01*
X94718760Y-93187753D01*
X94516585Y-93253444D01*
X94327179Y-93349951D01*
X94155213Y-93474890D01*
X94004890Y-93625213D01*
X93879951Y-93797179D01*
X93783444Y-93986585D01*
X93717753Y-94188760D01*
X93717753Y-94188762D01*
X93684500Y-94398713D01*
X66500500Y-94398713D01*
X66500500Y-76192135D01*
X82915500Y-76192135D01*
X82915500Y-78187870D01*
X82915501Y-78187876D01*
X82921908Y-78247483D01*
X82972202Y-78382328D01*
X82972206Y-78382335D01*
X83058452Y-78497544D01*
X83058455Y-78497547D01*
X83173664Y-78583793D01*
X83173669Y-78583796D01*
X83203432Y-78594896D01*
X83259366Y-78636767D01*
X83283784Y-78702230D01*
X83268933Y-78770504D01*
X83260418Y-78783964D01*
X83125423Y-78969768D01*
X83021770Y-79173196D01*
X82951215Y-79390339D01*
X82915500Y-79615837D01*
X82915500Y-79844162D01*
X82951215Y-80069660D01*
X83021770Y-80286803D01*
X83125421Y-80490228D01*
X83259621Y-80674937D01*
X83421063Y-80836379D01*
X83508616Y-80899990D01*
X83551280Y-80955319D01*
X83557259Y-81024933D01*
X83533766Y-81069456D01*
X83532689Y-81083136D01*
X84236591Y-81787037D01*
X84173007Y-81804075D01*
X84058993Y-81869901D01*
X83965901Y-81962993D01*
X83900075Y-82077007D01*
X83883037Y-82140590D01*
X83179136Y-81436689D01*
X83179135Y-81436689D01*
X83125849Y-81510033D01*
X83125848Y-81510035D01*
X83022230Y-81713395D01*
X82951704Y-81930455D01*
X82916000Y-82155883D01*
X82916000Y-82384116D01*
X82951704Y-82609544D01*
X83022230Y-82826604D01*
X83125851Y-83029969D01*
X83179135Y-83103309D01*
X83179137Y-83103309D01*
X83883037Y-82399408D01*
X83900075Y-82462993D01*
X83965901Y-82577007D01*
X84058993Y-82670099D01*
X84173007Y-82735925D01*
X84236590Y-82752962D01*
X83541481Y-83448069D01*
X83556673Y-83510822D01*
X83555377Y-83537755D01*
X83557685Y-83564623D01*
X83553722Y-83572131D01*
X83553315Y-83580611D01*
X83537662Y-83602568D01*
X83533720Y-83610041D01*
X83532689Y-83623136D01*
X84236591Y-84327037D01*
X84173007Y-84344075D01*
X84058993Y-84409901D01*
X83965901Y-84502993D01*
X83900075Y-84617007D01*
X83883037Y-84680590D01*
X83179136Y-83976689D01*
X83179135Y-83976689D01*
X83125849Y-84050033D01*
X83125848Y-84050035D01*
X83022230Y-84253395D01*
X82951704Y-84470455D01*
X82916000Y-84695883D01*
X82916000Y-84924116D01*
X82951704Y-85149544D01*
X83022230Y-85366604D01*
X83125851Y-85569969D01*
X83179135Y-85643309D01*
X83179137Y-85643309D01*
X83883037Y-84939408D01*
X83900075Y-85002993D01*
X83965901Y-85117007D01*
X84058993Y-85210099D01*
X84173007Y-85275925D01*
X84236590Y-85292962D01*
X83532688Y-85996862D01*
X83532689Y-85996863D01*
X83606030Y-86050148D01*
X83809395Y-86153769D01*
X84026455Y-86224295D01*
X84251884Y-86260000D01*
X84480116Y-86260000D01*
X84705544Y-86224295D01*
X84922604Y-86153769D01*
X85125966Y-86050150D01*
X85199309Y-85996862D01*
X85199310Y-85996862D01*
X84495409Y-85292962D01*
X84558993Y-85275925D01*
X84673007Y-85210099D01*
X84766099Y-85117007D01*
X84831925Y-85002993D01*
X84848962Y-84939410D01*
X85552862Y-85643310D01*
X85552862Y-85643309D01*
X85606150Y-85569966D01*
X85709769Y-85366604D01*
X85780295Y-85149544D01*
X85816000Y-84924116D01*
X85816000Y-84695883D01*
X85780295Y-84470455D01*
X85709769Y-84253395D01*
X85606148Y-84050030D01*
X85552863Y-83976689D01*
X85552862Y-83976688D01*
X84848962Y-84680589D01*
X84831925Y-84617007D01*
X84766099Y-84502993D01*
X84673007Y-84409901D01*
X84558993Y-84344075D01*
X84495408Y-84327037D01*
X85199309Y-83623137D01*
X85198127Y-83608116D01*
X85180292Y-83584988D01*
X85174313Y-83515374D01*
X85198279Y-83469950D01*
X85199310Y-83456862D01*
X84495409Y-82752962D01*
X84558993Y-82735925D01*
X84673007Y-82670099D01*
X84766099Y-82577007D01*
X84831925Y-82462993D01*
X84848962Y-82399410D01*
X85552862Y-83103310D01*
X85552862Y-83103309D01*
X85606150Y-83029966D01*
X85709769Y-82826604D01*
X85780295Y-82609544D01*
X85816000Y-82384116D01*
X85816000Y-82155883D01*
X85780295Y-81930455D01*
X85709769Y-81713395D01*
X85606148Y-81510030D01*
X85552863Y-81436689D01*
X85552862Y-81436688D01*
X84848962Y-82140589D01*
X84831925Y-82077007D01*
X84766099Y-81962993D01*
X84673007Y-81869901D01*
X84558993Y-81804075D01*
X84495408Y-81787037D01*
X85199309Y-81083137D01*
X85198105Y-81067845D01*
X85180717Y-81045295D01*
X85174739Y-80975681D01*
X85207346Y-80913887D01*
X85223380Y-80899992D01*
X85310937Y-80836379D01*
X85472379Y-80674937D01*
X85606579Y-80490228D01*
X85710231Y-80286799D01*
X85780784Y-80069660D01*
X85816500Y-79844162D01*
X85816500Y-79615837D01*
X85780784Y-79390339D01*
X85710229Y-79173196D01*
X85606578Y-78969771D01*
X85471581Y-78783965D01*
X85448101Y-78718159D01*
X85463926Y-78650105D01*
X85514032Y-78601410D01*
X85528562Y-78594898D01*
X85558331Y-78583796D01*
X85673546Y-78497546D01*
X85759796Y-78382331D01*
X85810091Y-78247483D01*
X85816500Y-78187873D01*
X85816499Y-76618713D01*
X93684500Y-76618713D01*
X93684500Y-76831286D01*
X93717753Y-77041239D01*
X93783444Y-77243414D01*
X93879951Y-77432820D01*
X94004890Y-77604786D01*
X94155213Y-77755109D01*
X94327179Y-77880048D01*
X94327181Y-77880049D01*
X94327184Y-77880051D01*
X94516588Y-77976557D01*
X94718757Y-78042246D01*
X94928713Y-78075500D01*
X94928714Y-78075500D01*
X95141286Y-78075500D01*
X95141287Y-78075500D01*
X95351243Y-78042246D01*
X95553412Y-77976557D01*
X95742816Y-77880051D01*
X95829138Y-77817335D01*
X95914786Y-77755109D01*
X95914788Y-77755106D01*
X95914792Y-77755104D01*
X96065104Y-77604792D01*
X96065106Y-77604788D01*
X96065109Y-77604786D01*
X96150890Y-77486717D01*
X96190051Y-77432816D01*
X96194793Y-77423508D01*
X96242763Y-77372711D01*
X96310583Y-77355911D01*
X96376719Y-77378445D01*
X96415763Y-77423500D01*
X96420373Y-77432547D01*
X96459728Y-77486716D01*
X97092037Y-76854408D01*
X97109075Y-76917993D01*
X97174901Y-77032007D01*
X97267993Y-77125099D01*
X97382007Y-77190925D01*
X97445590Y-77207962D01*
X96813282Y-77840269D01*
X96813282Y-77840270D01*
X96867449Y-77879624D01*
X97056782Y-77976095D01*
X97258870Y-78041757D01*
X97468754Y-78075000D01*
X97681246Y-78075000D01*
X97891127Y-78041757D01*
X97891130Y-78041757D01*
X98093217Y-77976095D01*
X98282554Y-77879622D01*
X98336716Y-77840270D01*
X98336717Y-77840270D01*
X97704408Y-77207962D01*
X97767993Y-77190925D01*
X97882007Y-77125099D01*
X97975099Y-77032007D01*
X98040925Y-76917993D01*
X98057962Y-76854409D01*
X98690270Y-77486717D01*
X98690270Y-77486716D01*
X98729622Y-77432555D01*
X98734232Y-77423507D01*
X98782205Y-77372709D01*
X98850025Y-77355912D01*
X98916161Y-77378447D01*
X98955204Y-77423504D01*
X98959949Y-77432817D01*
X99084890Y-77604786D01*
X99235213Y-77755109D01*
X99407179Y-77880048D01*
X99407181Y-77880049D01*
X99407184Y-77880051D01*
X99596588Y-77976557D01*
X99798757Y-78042246D01*
X100008713Y-78075500D01*
X100008714Y-78075500D01*
X100221286Y-78075500D01*
X100221287Y-78075500D01*
X100431243Y-78042246D01*
X100633412Y-77976557D01*
X100822816Y-77880051D01*
X100909138Y-77817335D01*
X100994786Y-77755109D01*
X100994788Y-77755106D01*
X100994792Y-77755104D01*
X101145104Y-77604792D01*
X101145106Y-77604788D01*
X101145109Y-77604786D01*
X101270048Y-77432820D01*
X101270047Y-77432820D01*
X101270051Y-77432816D01*
X101274514Y-77424054D01*
X101322488Y-77373259D01*
X101390308Y-77356463D01*
X101456444Y-77378999D01*
X101495486Y-77424056D01*
X101499951Y-77432820D01*
X101624890Y-77604786D01*
X101775213Y-77755109D01*
X101947179Y-77880048D01*
X101947181Y-77880049D01*
X101947184Y-77880051D01*
X102136588Y-77976557D01*
X102338757Y-78042246D01*
X102548713Y-78075500D01*
X102548714Y-78075500D01*
X102761286Y-78075500D01*
X102761287Y-78075500D01*
X102971243Y-78042246D01*
X103173412Y-77976557D01*
X103362816Y-77880051D01*
X103449138Y-77817335D01*
X103534786Y-77755109D01*
X103534788Y-77755106D01*
X103534792Y-77755104D01*
X103685104Y-77604792D01*
X103685106Y-77604788D01*
X103685109Y-77604786D01*
X103810048Y-77432820D01*
X103810047Y-77432820D01*
X103810051Y-77432816D01*
X103814514Y-77424054D01*
X103862488Y-77373259D01*
X103930308Y-77356463D01*
X103996444Y-77378999D01*
X104035486Y-77424056D01*
X104039951Y-77432820D01*
X104164890Y-77604786D01*
X104315213Y-77755109D01*
X104487179Y-77880048D01*
X104487181Y-77880049D01*
X104487184Y-77880051D01*
X104676588Y-77976557D01*
X104878757Y-78042246D01*
X105088713Y-78075500D01*
X105088714Y-78075500D01*
X105301286Y-78075500D01*
X105301287Y-78075500D01*
X105511243Y-78042246D01*
X105713412Y-77976557D01*
X105902816Y-77880051D01*
X106074792Y-77755104D01*
X106188329Y-77641566D01*
X106249648Y-77608084D01*
X106319340Y-77613068D01*
X106375274Y-77654939D01*
X106392189Y-77685917D01*
X106441202Y-77817328D01*
X106441206Y-77817335D01*
X106527452Y-77932544D01*
X106527455Y-77932547D01*
X106642664Y-78018793D01*
X106642671Y-78018797D01*
X106777517Y-78069091D01*
X106777516Y-78069091D01*
X106784444Y-78069835D01*
X106837127Y-78075500D01*
X108632872Y-78075499D01*
X108692483Y-78069091D01*
X108827331Y-78018796D01*
X108942546Y-77932546D01*
X109028796Y-77817331D01*
X109079091Y-77682483D01*
X109085500Y-77622873D01*
X109085499Y-75827128D01*
X109079091Y-75767517D01*
X109077810Y-75764083D01*
X109028797Y-75632671D01*
X109028793Y-75632664D01*
X108942547Y-75517455D01*
X108942544Y-75517452D01*
X108827335Y-75431206D01*
X108827328Y-75431202D01*
X108692482Y-75380908D01*
X108692483Y-75380908D01*
X108632883Y-75374501D01*
X108632881Y-75374500D01*
X108632873Y-75374500D01*
X108632864Y-75374500D01*
X106837129Y-75374500D01*
X106837123Y-75374501D01*
X106777516Y-75380908D01*
X106642671Y-75431202D01*
X106642664Y-75431206D01*
X106527455Y-75517452D01*
X106527452Y-75517455D01*
X106441206Y-75632664D01*
X106441203Y-75632669D01*
X106392189Y-75764083D01*
X106350317Y-75820016D01*
X106284853Y-75844433D01*
X106216580Y-75829581D01*
X106188326Y-75808430D01*
X106074786Y-75694890D01*
X105902820Y-75569951D01*
X105713414Y-75473444D01*
X105713413Y-75473443D01*
X105713412Y-75473443D01*
X105511243Y-75407754D01*
X105511241Y-75407753D01*
X105511240Y-75407753D01*
X105349957Y-75382208D01*
X105301287Y-75374500D01*
X105088713Y-75374500D01*
X105040042Y-75382208D01*
X104878760Y-75407753D01*
X104676585Y-75473444D01*
X104487179Y-75569951D01*
X104315213Y-75694890D01*
X104164890Y-75845213D01*
X104039949Y-76017182D01*
X104035484Y-76025946D01*
X103987509Y-76076742D01*
X103919688Y-76093536D01*
X103853553Y-76070998D01*
X103814516Y-76025946D01*
X103810050Y-76017182D01*
X103685109Y-75845213D01*
X103534786Y-75694890D01*
X103362820Y-75569951D01*
X103173414Y-75473444D01*
X103173413Y-75473443D01*
X103173412Y-75473443D01*
X102971243Y-75407754D01*
X102971241Y-75407753D01*
X102971240Y-75407753D01*
X102809957Y-75382208D01*
X102761287Y-75374500D01*
X102548713Y-75374500D01*
X102500042Y-75382208D01*
X102338760Y-75407753D01*
X102136585Y-75473444D01*
X101947179Y-75569951D01*
X101775213Y-75694890D01*
X101624890Y-75845213D01*
X101499949Y-76017182D01*
X101495484Y-76025946D01*
X101447509Y-76076742D01*
X101379688Y-76093536D01*
X101313553Y-76070998D01*
X101274516Y-76025946D01*
X101270050Y-76017182D01*
X101145109Y-75845213D01*
X100994786Y-75694890D01*
X100822820Y-75569951D01*
X100633414Y-75473444D01*
X100633413Y-75473443D01*
X100633412Y-75473443D01*
X100431243Y-75407754D01*
X100431241Y-75407753D01*
X100431240Y-75407753D01*
X100269957Y-75382208D01*
X100221287Y-75374500D01*
X100008713Y-75374500D01*
X99960042Y-75382208D01*
X99798760Y-75407753D01*
X99596585Y-75473444D01*
X99407179Y-75569951D01*
X99235213Y-75694890D01*
X99084890Y-75845213D01*
X98959949Y-76017182D01*
X98955202Y-76026499D01*
X98907227Y-76077293D01*
X98839405Y-76094087D01*
X98773271Y-76071548D01*
X98734234Y-76026495D01*
X98729626Y-76017452D01*
X98690270Y-75963282D01*
X98690269Y-75963282D01*
X98057962Y-76595590D01*
X98040925Y-76532007D01*
X97975099Y-76417993D01*
X97882007Y-76324901D01*
X97767993Y-76259075D01*
X97704409Y-76242037D01*
X98336716Y-75609728D01*
X98282550Y-75570375D01*
X98093217Y-75473904D01*
X97891129Y-75408242D01*
X97681246Y-75375000D01*
X97468754Y-75375000D01*
X97258872Y-75408242D01*
X97258869Y-75408242D01*
X97056782Y-75473904D01*
X96867439Y-75570380D01*
X96813282Y-75609727D01*
X96813282Y-75609728D01*
X97445591Y-76242037D01*
X97382007Y-76259075D01*
X97267993Y-76324901D01*
X97174901Y-76417993D01*
X97109075Y-76532007D01*
X97092037Y-76595591D01*
X96459728Y-75963282D01*
X96459727Y-75963282D01*
X96420380Y-76017440D01*
X96420376Y-76017446D01*
X96415760Y-76026505D01*
X96367781Y-76077297D01*
X96299959Y-76094087D01*
X96233826Y-76071543D01*
X96194794Y-76026493D01*
X96190051Y-76017184D01*
X96190049Y-76017181D01*
X96190048Y-76017179D01*
X96065109Y-75845213D01*
X95914786Y-75694890D01*
X95742820Y-75569951D01*
X95553414Y-75473444D01*
X95553413Y-75473443D01*
X95553412Y-75473443D01*
X95351243Y-75407754D01*
X95351241Y-75407753D01*
X95351240Y-75407753D01*
X95189957Y-75382208D01*
X95141287Y-75374500D01*
X94928713Y-75374500D01*
X94880042Y-75382208D01*
X94718760Y-75407753D01*
X94516585Y-75473444D01*
X94327179Y-75569951D01*
X94155213Y-75694890D01*
X94004890Y-75845213D01*
X93879951Y-76017179D01*
X93783444Y-76206585D01*
X93717753Y-76408760D01*
X93684500Y-76618713D01*
X85816499Y-76618713D01*
X85816499Y-76192128D01*
X85810091Y-76132517D01*
X85792291Y-76084794D01*
X85759797Y-75997671D01*
X85759793Y-75997664D01*
X85673547Y-75882455D01*
X85673544Y-75882452D01*
X85558335Y-75796206D01*
X85558328Y-75796202D01*
X85423482Y-75745908D01*
X85423483Y-75745908D01*
X85363883Y-75739501D01*
X85363881Y-75739500D01*
X85363873Y-75739500D01*
X85363864Y-75739500D01*
X83368129Y-75739500D01*
X83368123Y-75739501D01*
X83308516Y-75745908D01*
X83173671Y-75796202D01*
X83173664Y-75796206D01*
X83058455Y-75882452D01*
X83058452Y-75882455D01*
X82972206Y-75997664D01*
X82972202Y-75997671D01*
X82921908Y-76132517D01*
X82915501Y-76192116D01*
X82915501Y-76192123D01*
X82915500Y-76192135D01*
X66500500Y-76192135D01*
X66500500Y-70676213D01*
X122029500Y-70676213D01*
X122029500Y-70888786D01*
X122062753Y-71098739D01*
X122128444Y-71300914D01*
X122224951Y-71490320D01*
X122349890Y-71662286D01*
X122500213Y-71812609D01*
X122672179Y-71937548D01*
X122672181Y-71937549D01*
X122672184Y-71937551D01*
X122861588Y-72034057D01*
X123063757Y-72099746D01*
X123273713Y-72133000D01*
X123273714Y-72133000D01*
X123486286Y-72133000D01*
X123486287Y-72133000D01*
X123696243Y-72099746D01*
X123898412Y-72034057D01*
X124087816Y-71937551D01*
X124142572Y-71897769D01*
X124259786Y-71812609D01*
X124259788Y-71812606D01*
X124259792Y-71812604D01*
X124410104Y-71662292D01*
X124410106Y-71662288D01*
X124410109Y-71662286D01*
X124535048Y-71490320D01*
X124535047Y-71490320D01*
X124535051Y-71490316D01*
X124539514Y-71481554D01*
X124587488Y-71430759D01*
X124655308Y-71413963D01*
X124721444Y-71436499D01*
X124760486Y-71481556D01*
X124764951Y-71490320D01*
X124889890Y-71662286D01*
X125040213Y-71812609D01*
X125212179Y-71937548D01*
X125212181Y-71937549D01*
X125212184Y-71937551D01*
X125401588Y-72034057D01*
X125603757Y-72099746D01*
X125813713Y-72133000D01*
X125813714Y-72133000D01*
X126026286Y-72133000D01*
X126026287Y-72133000D01*
X126236243Y-72099746D01*
X126438412Y-72034057D01*
X126627816Y-71937551D01*
X126682572Y-71897769D01*
X126799786Y-71812609D01*
X126799788Y-71812606D01*
X126799792Y-71812604D01*
X126950104Y-71662292D01*
X126950106Y-71662288D01*
X126950109Y-71662286D01*
X127075048Y-71490320D01*
X127075047Y-71490320D01*
X127075051Y-71490316D01*
X127079514Y-71481554D01*
X127127488Y-71430759D01*
X127195308Y-71413963D01*
X127261444Y-71436499D01*
X127300486Y-71481556D01*
X127304951Y-71490320D01*
X127429890Y-71662286D01*
X127580213Y-71812609D01*
X127752179Y-71937548D01*
X127752181Y-71937549D01*
X127752184Y-71937551D01*
X127941588Y-72034057D01*
X128143757Y-72099746D01*
X128353713Y-72133000D01*
X128353714Y-72133000D01*
X128566286Y-72133000D01*
X128566287Y-72133000D01*
X128776243Y-72099746D01*
X128978412Y-72034057D01*
X129167816Y-71937551D01*
X129222572Y-71897769D01*
X129339786Y-71812609D01*
X129339788Y-71812606D01*
X129339792Y-71812604D01*
X129490104Y-71662292D01*
X129490106Y-71662288D01*
X129490109Y-71662286D01*
X129615048Y-71490320D01*
X129615047Y-71490320D01*
X129615051Y-71490316D01*
X129619514Y-71481554D01*
X129667488Y-71430759D01*
X129735308Y-71413963D01*
X129801444Y-71436499D01*
X129840486Y-71481556D01*
X129844951Y-71490320D01*
X129969890Y-71662286D01*
X130120213Y-71812609D01*
X130292179Y-71937548D01*
X130292181Y-71937549D01*
X130292184Y-71937551D01*
X130481588Y-72034057D01*
X130683757Y-72099746D01*
X130893713Y-72133000D01*
X130893714Y-72133000D01*
X131106286Y-72133000D01*
X131106287Y-72133000D01*
X131316243Y-72099746D01*
X131518412Y-72034057D01*
X131707816Y-71937551D01*
X131762572Y-71897769D01*
X131879786Y-71812609D01*
X131879788Y-71812606D01*
X131879792Y-71812604D01*
X132030104Y-71662292D01*
X132030106Y-71662288D01*
X132030109Y-71662286D01*
X132155048Y-71490320D01*
X132155047Y-71490320D01*
X132155051Y-71490316D01*
X132159514Y-71481554D01*
X132207488Y-71430759D01*
X132275308Y-71413963D01*
X132341444Y-71436499D01*
X132380486Y-71481556D01*
X132384951Y-71490320D01*
X132509890Y-71662286D01*
X132660213Y-71812609D01*
X132832179Y-71937548D01*
X132832181Y-71937549D01*
X132832184Y-71937551D01*
X133021588Y-72034057D01*
X133223757Y-72099746D01*
X133433713Y-72133000D01*
X133433714Y-72133000D01*
X133646286Y-72133000D01*
X133646287Y-72133000D01*
X133856243Y-72099746D01*
X134058412Y-72034057D01*
X134247816Y-71937551D01*
X134302572Y-71897769D01*
X134419786Y-71812609D01*
X134419788Y-71812606D01*
X134419792Y-71812604D01*
X134570104Y-71662292D01*
X134570106Y-71662288D01*
X134570109Y-71662286D01*
X134655890Y-71544217D01*
X134695051Y-71490316D01*
X134699793Y-71481008D01*
X134747763Y-71430211D01*
X134815583Y-71413411D01*
X134881719Y-71435945D01*
X134920763Y-71481000D01*
X134925373Y-71490047D01*
X134964728Y-71544216D01*
X135597037Y-70911908D01*
X135614075Y-70975493D01*
X135679901Y-71089507D01*
X135772993Y-71182599D01*
X135887007Y-71248425D01*
X135950590Y-71265462D01*
X135318282Y-71897769D01*
X135318282Y-71897770D01*
X135372449Y-71937124D01*
X135561782Y-72033595D01*
X135763870Y-72099257D01*
X135973754Y-72132500D01*
X136186246Y-72132500D01*
X136396127Y-72099257D01*
X136396130Y-72099257D01*
X136598217Y-72033595D01*
X136787554Y-71937122D01*
X136841716Y-71897770D01*
X136841717Y-71897770D01*
X136209408Y-71265462D01*
X136272993Y-71248425D01*
X136387007Y-71182599D01*
X136480099Y-71089507D01*
X136545925Y-70975493D01*
X136562962Y-70911909D01*
X137195270Y-71544217D01*
X137195270Y-71544216D01*
X137234622Y-71490054D01*
X137244233Y-71471192D01*
X137292207Y-71420395D01*
X137360027Y-71403599D01*
X137426163Y-71426135D01*
X137465204Y-71471190D01*
X137474951Y-71490320D01*
X137599890Y-71662286D01*
X137750213Y-71812609D01*
X137922179Y-71937548D01*
X137922181Y-71937549D01*
X137922184Y-71937551D01*
X138111588Y-72034057D01*
X138313757Y-72099746D01*
X138523713Y-72133000D01*
X138523714Y-72133000D01*
X138736286Y-72133000D01*
X138736287Y-72133000D01*
X138946243Y-72099746D01*
X139148412Y-72034057D01*
X139337816Y-71937551D01*
X139392572Y-71897769D01*
X139509786Y-71812609D01*
X139509788Y-71812606D01*
X139509792Y-71812604D01*
X139660104Y-71662292D01*
X139660106Y-71662288D01*
X139660109Y-71662286D01*
X139785048Y-71490320D01*
X139785047Y-71490320D01*
X139785051Y-71490316D01*
X139881557Y-71300912D01*
X139947246Y-71098743D01*
X139980500Y-70888787D01*
X139980500Y-70676213D01*
X149029500Y-70676213D01*
X149029500Y-70888786D01*
X149062753Y-71098739D01*
X149128444Y-71300914D01*
X149224951Y-71490320D01*
X149349890Y-71662286D01*
X149500213Y-71812609D01*
X149672179Y-71937548D01*
X149672181Y-71937549D01*
X149672184Y-71937551D01*
X149861588Y-72034057D01*
X150063757Y-72099746D01*
X150273713Y-72133000D01*
X150273714Y-72133000D01*
X150486286Y-72133000D01*
X150486287Y-72133000D01*
X150696243Y-72099746D01*
X150898412Y-72034057D01*
X151087816Y-71937551D01*
X151142572Y-71897769D01*
X151259786Y-71812609D01*
X151259788Y-71812606D01*
X151259792Y-71812604D01*
X151410104Y-71662292D01*
X151410106Y-71662288D01*
X151410109Y-71662286D01*
X151535048Y-71490320D01*
X151535047Y-71490320D01*
X151535051Y-71490316D01*
X151539514Y-71481554D01*
X151587488Y-71430759D01*
X151655308Y-71413963D01*
X151721444Y-71436499D01*
X151760486Y-71481556D01*
X151764951Y-71490320D01*
X151889890Y-71662286D01*
X152040213Y-71812609D01*
X152212179Y-71937548D01*
X152212181Y-71937549D01*
X152212184Y-71937551D01*
X152401588Y-72034057D01*
X152603757Y-72099746D01*
X152813713Y-72133000D01*
X152813714Y-72133000D01*
X153026286Y-72133000D01*
X153026287Y-72133000D01*
X153236243Y-72099746D01*
X153438412Y-72034057D01*
X153627816Y-71937551D01*
X153682572Y-71897769D01*
X153799786Y-71812609D01*
X153799788Y-71812606D01*
X153799792Y-71812604D01*
X153950104Y-71662292D01*
X153950106Y-71662288D01*
X153950109Y-71662286D01*
X154075048Y-71490320D01*
X154075047Y-71490320D01*
X154075051Y-71490316D01*
X154079514Y-71481554D01*
X154127488Y-71430759D01*
X154195308Y-71413963D01*
X154261444Y-71436499D01*
X154300486Y-71481556D01*
X154304951Y-71490320D01*
X154429890Y-71662286D01*
X154580213Y-71812609D01*
X154752179Y-71937548D01*
X154752181Y-71937549D01*
X154752184Y-71937551D01*
X154941588Y-72034057D01*
X155143757Y-72099746D01*
X155353713Y-72133000D01*
X155353714Y-72133000D01*
X155566286Y-72133000D01*
X155566287Y-72133000D01*
X155776243Y-72099746D01*
X155978412Y-72034057D01*
X156167816Y-71937551D01*
X156222572Y-71897769D01*
X156339786Y-71812609D01*
X156339788Y-71812606D01*
X156339792Y-71812604D01*
X156490104Y-71662292D01*
X156490106Y-71662288D01*
X156490109Y-71662286D01*
X156615048Y-71490320D01*
X156615047Y-71490320D01*
X156615051Y-71490316D01*
X156619514Y-71481554D01*
X156667488Y-71430759D01*
X156735308Y-71413963D01*
X156801444Y-71436499D01*
X156840486Y-71481556D01*
X156844951Y-71490320D01*
X156969890Y-71662286D01*
X157120213Y-71812609D01*
X157292179Y-71937548D01*
X157292181Y-71937549D01*
X157292184Y-71937551D01*
X157481588Y-72034057D01*
X157683757Y-72099746D01*
X157893713Y-72133000D01*
X157893714Y-72133000D01*
X158106286Y-72133000D01*
X158106287Y-72133000D01*
X158316243Y-72099746D01*
X158518412Y-72034057D01*
X158707816Y-71937551D01*
X158762572Y-71897769D01*
X158879786Y-71812609D01*
X158879788Y-71812606D01*
X158879792Y-71812604D01*
X159030104Y-71662292D01*
X159030106Y-71662288D01*
X159030109Y-71662286D01*
X159155048Y-71490320D01*
X159155047Y-71490320D01*
X159155051Y-71490316D01*
X159159514Y-71481554D01*
X159207488Y-71430759D01*
X159275308Y-71413963D01*
X159341444Y-71436499D01*
X159380486Y-71481556D01*
X159384951Y-71490320D01*
X159509890Y-71662286D01*
X159660213Y-71812609D01*
X159832179Y-71937548D01*
X159832181Y-71937549D01*
X159832184Y-71937551D01*
X160021588Y-72034057D01*
X160223757Y-72099746D01*
X160433713Y-72133000D01*
X160433714Y-72133000D01*
X160646286Y-72133000D01*
X160646287Y-72133000D01*
X160856243Y-72099746D01*
X161058412Y-72034057D01*
X161247816Y-71937551D01*
X161302572Y-71897769D01*
X161419786Y-71812609D01*
X161419788Y-71812606D01*
X161419792Y-71812604D01*
X161570104Y-71662292D01*
X161570106Y-71662288D01*
X161570109Y-71662286D01*
X161655890Y-71544217D01*
X161695051Y-71490316D01*
X161699793Y-71481008D01*
X161747763Y-71430211D01*
X161815583Y-71413411D01*
X161881719Y-71435945D01*
X161920763Y-71481000D01*
X161925373Y-71490047D01*
X161964728Y-71544216D01*
X162597037Y-70911908D01*
X162614075Y-70975493D01*
X162679901Y-71089507D01*
X162772993Y-71182599D01*
X162887007Y-71248425D01*
X162950590Y-71265462D01*
X162318282Y-71897769D01*
X162318282Y-71897770D01*
X162372449Y-71937124D01*
X162561782Y-72033595D01*
X162763870Y-72099257D01*
X162973754Y-72132500D01*
X163186246Y-72132500D01*
X163396127Y-72099257D01*
X163396130Y-72099257D01*
X163598217Y-72033595D01*
X163787554Y-71937122D01*
X163841716Y-71897770D01*
X163841717Y-71897770D01*
X163209408Y-71265462D01*
X163272993Y-71248425D01*
X163387007Y-71182599D01*
X163480099Y-71089507D01*
X163545925Y-70975493D01*
X163562962Y-70911909D01*
X164195270Y-71544217D01*
X164195270Y-71544216D01*
X164234622Y-71490054D01*
X164244233Y-71471192D01*
X164292207Y-71420395D01*
X164360027Y-71403599D01*
X164426163Y-71426135D01*
X164465204Y-71471190D01*
X164474951Y-71490320D01*
X164599890Y-71662286D01*
X164750213Y-71812609D01*
X164922179Y-71937548D01*
X164922181Y-71937549D01*
X164922184Y-71937551D01*
X165111588Y-72034057D01*
X165313757Y-72099746D01*
X165523713Y-72133000D01*
X165523714Y-72133000D01*
X165736286Y-72133000D01*
X165736287Y-72133000D01*
X165946243Y-72099746D01*
X166148412Y-72034057D01*
X166337816Y-71937551D01*
X166392572Y-71897769D01*
X166509786Y-71812609D01*
X166509788Y-71812606D01*
X166509792Y-71812604D01*
X166660104Y-71662292D01*
X166660106Y-71662288D01*
X166660109Y-71662286D01*
X166785048Y-71490320D01*
X166785047Y-71490320D01*
X166785051Y-71490316D01*
X166881557Y-71300912D01*
X166947246Y-71098743D01*
X166980500Y-70888787D01*
X166980500Y-70676213D01*
X166947246Y-70466257D01*
X166881557Y-70264088D01*
X166785051Y-70074684D01*
X166785049Y-70074681D01*
X166785048Y-70074679D01*
X166660109Y-69902713D01*
X166509786Y-69752390D01*
X166337820Y-69627451D01*
X166148414Y-69530944D01*
X166148413Y-69530943D01*
X166148412Y-69530943D01*
X165946243Y-69465254D01*
X165946241Y-69465253D01*
X165946240Y-69465253D01*
X165784957Y-69439708D01*
X165736287Y-69432000D01*
X165523713Y-69432000D01*
X165475042Y-69439708D01*
X165313760Y-69465253D01*
X165111585Y-69530944D01*
X164922179Y-69627451D01*
X164750213Y-69752390D01*
X164599890Y-69902713D01*
X164474950Y-70074680D01*
X164465203Y-70093811D01*
X164417228Y-70144606D01*
X164349406Y-70161400D01*
X164283272Y-70138861D01*
X164244234Y-70093809D01*
X164234624Y-70074949D01*
X164195270Y-70020782D01*
X164195269Y-70020782D01*
X163562962Y-70653090D01*
X163545925Y-70589507D01*
X163480099Y-70475493D01*
X163387007Y-70382401D01*
X163272993Y-70316575D01*
X163209409Y-70299537D01*
X163841716Y-69667228D01*
X163787550Y-69627875D01*
X163598217Y-69531404D01*
X163396129Y-69465742D01*
X163186246Y-69432500D01*
X162973754Y-69432500D01*
X162763872Y-69465742D01*
X162763869Y-69465742D01*
X162561782Y-69531404D01*
X162372439Y-69627880D01*
X162318282Y-69667227D01*
X162318282Y-69667228D01*
X162950591Y-70299537D01*
X162887007Y-70316575D01*
X162772993Y-70382401D01*
X162679901Y-70475493D01*
X162614075Y-70589507D01*
X162597037Y-70653091D01*
X161964728Y-70020782D01*
X161964727Y-70020782D01*
X161925380Y-70074940D01*
X161925376Y-70074946D01*
X161920760Y-70084005D01*
X161872781Y-70134797D01*
X161804959Y-70151587D01*
X161738826Y-70129043D01*
X161699794Y-70083993D01*
X161695051Y-70074684D01*
X161695049Y-70074681D01*
X161695048Y-70074679D01*
X161570109Y-69902713D01*
X161419786Y-69752390D01*
X161247820Y-69627451D01*
X161058414Y-69530944D01*
X161058413Y-69530943D01*
X161058412Y-69530943D01*
X160856243Y-69465254D01*
X160856241Y-69465253D01*
X160856240Y-69465253D01*
X160694957Y-69439708D01*
X160646287Y-69432000D01*
X160433713Y-69432000D01*
X160385042Y-69439708D01*
X160223760Y-69465253D01*
X160021585Y-69530944D01*
X159832179Y-69627451D01*
X159660213Y-69752390D01*
X159509890Y-69902713D01*
X159384949Y-70074682D01*
X159380484Y-70083446D01*
X159332509Y-70134242D01*
X159264688Y-70151036D01*
X159198553Y-70128498D01*
X159159516Y-70083446D01*
X159155050Y-70074682D01*
X159030109Y-69902713D01*
X158879786Y-69752390D01*
X158707820Y-69627451D01*
X158518414Y-69530944D01*
X158518413Y-69530943D01*
X158518412Y-69530943D01*
X158316243Y-69465254D01*
X158316241Y-69465253D01*
X158316240Y-69465253D01*
X158154957Y-69439708D01*
X158106287Y-69432000D01*
X157893713Y-69432000D01*
X157845042Y-69439708D01*
X157683760Y-69465253D01*
X157481585Y-69530944D01*
X157292179Y-69627451D01*
X157120213Y-69752390D01*
X156969890Y-69902713D01*
X156844949Y-70074682D01*
X156840484Y-70083446D01*
X156792509Y-70134242D01*
X156724688Y-70151036D01*
X156658553Y-70128498D01*
X156619516Y-70083446D01*
X156615050Y-70074682D01*
X156490109Y-69902713D01*
X156339786Y-69752390D01*
X156167820Y-69627451D01*
X155978414Y-69530944D01*
X155978413Y-69530943D01*
X155978412Y-69530943D01*
X155776243Y-69465254D01*
X155776241Y-69465253D01*
X155776240Y-69465253D01*
X155614957Y-69439708D01*
X155566287Y-69432000D01*
X155353713Y-69432000D01*
X155305042Y-69439708D01*
X155143760Y-69465253D01*
X154941585Y-69530944D01*
X154752179Y-69627451D01*
X154580213Y-69752390D01*
X154429890Y-69902713D01*
X154304949Y-70074682D01*
X154300484Y-70083446D01*
X154252509Y-70134242D01*
X154184688Y-70151036D01*
X154118553Y-70128498D01*
X154079516Y-70083446D01*
X154075050Y-70074682D01*
X153950109Y-69902713D01*
X153799786Y-69752390D01*
X153627820Y-69627451D01*
X153438414Y-69530944D01*
X153438413Y-69530943D01*
X153438412Y-69530943D01*
X153236243Y-69465254D01*
X153236241Y-69465253D01*
X153236240Y-69465253D01*
X153074957Y-69439708D01*
X153026287Y-69432000D01*
X152813713Y-69432000D01*
X152765042Y-69439708D01*
X152603760Y-69465253D01*
X152401585Y-69530944D01*
X152212179Y-69627451D01*
X152040213Y-69752390D01*
X151889890Y-69902713D01*
X151764949Y-70074682D01*
X151760484Y-70083446D01*
X151712509Y-70134242D01*
X151644688Y-70151036D01*
X151578553Y-70128498D01*
X151539516Y-70083446D01*
X151535050Y-70074682D01*
X151410109Y-69902713D01*
X151259786Y-69752390D01*
X151087820Y-69627451D01*
X150898414Y-69530944D01*
X150898413Y-69530943D01*
X150898412Y-69530943D01*
X150696243Y-69465254D01*
X150696241Y-69465253D01*
X150696240Y-69465253D01*
X150534957Y-69439708D01*
X150486287Y-69432000D01*
X150273713Y-69432000D01*
X150225042Y-69439708D01*
X150063760Y-69465253D01*
X149861585Y-69530944D01*
X149672179Y-69627451D01*
X149500213Y-69752390D01*
X149349890Y-69902713D01*
X149224951Y-70074679D01*
X149128444Y-70264085D01*
X149062753Y-70466260D01*
X149029500Y-70676213D01*
X139980500Y-70676213D01*
X139947246Y-70466257D01*
X139881557Y-70264088D01*
X139785051Y-70074684D01*
X139785049Y-70074681D01*
X139785048Y-70074679D01*
X139660109Y-69902713D01*
X139509786Y-69752390D01*
X139337820Y-69627451D01*
X139148414Y-69530944D01*
X139148413Y-69530943D01*
X139148412Y-69530943D01*
X138946243Y-69465254D01*
X138946241Y-69465253D01*
X138946240Y-69465253D01*
X138784957Y-69439708D01*
X138736287Y-69432000D01*
X138523713Y-69432000D01*
X138475042Y-69439708D01*
X138313760Y-69465253D01*
X138111585Y-69530944D01*
X137922179Y-69627451D01*
X137750213Y-69752390D01*
X137599890Y-69902713D01*
X137474950Y-70074680D01*
X137465203Y-70093811D01*
X137417228Y-70144606D01*
X137349406Y-70161400D01*
X137283272Y-70138861D01*
X137244234Y-70093809D01*
X137234624Y-70074949D01*
X137195270Y-70020782D01*
X137195269Y-70020782D01*
X136562962Y-70653090D01*
X136545925Y-70589507D01*
X136480099Y-70475493D01*
X136387007Y-70382401D01*
X136272993Y-70316575D01*
X136209409Y-70299537D01*
X136841716Y-69667228D01*
X136787550Y-69627875D01*
X136598217Y-69531404D01*
X136396129Y-69465742D01*
X136186246Y-69432500D01*
X135973754Y-69432500D01*
X135763872Y-69465742D01*
X135763869Y-69465742D01*
X135561782Y-69531404D01*
X135372439Y-69627880D01*
X135318282Y-69667227D01*
X135318282Y-69667228D01*
X135950591Y-70299537D01*
X135887007Y-70316575D01*
X135772993Y-70382401D01*
X135679901Y-70475493D01*
X135614075Y-70589507D01*
X135597037Y-70653091D01*
X134964728Y-70020782D01*
X134964727Y-70020782D01*
X134925380Y-70074940D01*
X134925376Y-70074946D01*
X134920760Y-70084005D01*
X134872781Y-70134797D01*
X134804959Y-70151587D01*
X134738826Y-70129043D01*
X134699794Y-70083993D01*
X134695051Y-70074684D01*
X134695049Y-70074681D01*
X134695048Y-70074679D01*
X134570109Y-69902713D01*
X134419786Y-69752390D01*
X134247820Y-69627451D01*
X134058414Y-69530944D01*
X134058413Y-69530943D01*
X134058412Y-69530943D01*
X133856243Y-69465254D01*
X133856241Y-69465253D01*
X133856240Y-69465253D01*
X133694957Y-69439708D01*
X133646287Y-69432000D01*
X133433713Y-69432000D01*
X133385042Y-69439708D01*
X133223760Y-69465253D01*
X133021585Y-69530944D01*
X132832179Y-69627451D01*
X132660213Y-69752390D01*
X132509890Y-69902713D01*
X132384949Y-70074682D01*
X132380484Y-70083446D01*
X132332509Y-70134242D01*
X132264688Y-70151036D01*
X132198553Y-70128498D01*
X132159516Y-70083446D01*
X132155050Y-70074682D01*
X132030109Y-69902713D01*
X131879786Y-69752390D01*
X131707820Y-69627451D01*
X131518414Y-69530944D01*
X131518413Y-69530943D01*
X131518412Y-69530943D01*
X131316243Y-69465254D01*
X131316241Y-69465253D01*
X131316240Y-69465253D01*
X131154957Y-69439708D01*
X131106287Y-69432000D01*
X130893713Y-69432000D01*
X130845042Y-69439708D01*
X130683760Y-69465253D01*
X130481585Y-69530944D01*
X130292179Y-69627451D01*
X130120213Y-69752390D01*
X129969890Y-69902713D01*
X129844949Y-70074682D01*
X129840484Y-70083446D01*
X129792509Y-70134242D01*
X129724688Y-70151036D01*
X129658553Y-70128498D01*
X129619516Y-70083446D01*
X129615050Y-70074682D01*
X129490109Y-69902713D01*
X129339786Y-69752390D01*
X129167820Y-69627451D01*
X128978414Y-69530944D01*
X128978413Y-69530943D01*
X128978412Y-69530943D01*
X128776243Y-69465254D01*
X128776241Y-69465253D01*
X128776240Y-69465253D01*
X128614957Y-69439708D01*
X128566287Y-69432000D01*
X128353713Y-69432000D01*
X128305042Y-69439708D01*
X128143760Y-69465253D01*
X127941585Y-69530944D01*
X127752179Y-69627451D01*
X127580213Y-69752390D01*
X127429890Y-69902713D01*
X127304949Y-70074682D01*
X127300484Y-70083446D01*
X127252509Y-70134242D01*
X127184688Y-70151036D01*
X127118553Y-70128498D01*
X127079516Y-70083446D01*
X127075050Y-70074682D01*
X126950109Y-69902713D01*
X126799786Y-69752390D01*
X126627820Y-69627451D01*
X126438414Y-69530944D01*
X126438413Y-69530943D01*
X126438412Y-69530943D01*
X126236243Y-69465254D01*
X126236241Y-69465253D01*
X126236240Y-69465253D01*
X126074957Y-69439708D01*
X126026287Y-69432000D01*
X125813713Y-69432000D01*
X125765042Y-69439708D01*
X125603760Y-69465253D01*
X125401585Y-69530944D01*
X125212179Y-69627451D01*
X125040213Y-69752390D01*
X124889890Y-69902713D01*
X124764949Y-70074682D01*
X124760484Y-70083446D01*
X124712509Y-70134242D01*
X124644688Y-70151036D01*
X124578553Y-70128498D01*
X124539516Y-70083446D01*
X124535050Y-70074682D01*
X124410109Y-69902713D01*
X124259786Y-69752390D01*
X124087820Y-69627451D01*
X123898414Y-69530944D01*
X123898413Y-69530943D01*
X123898412Y-69530943D01*
X123696243Y-69465254D01*
X123696241Y-69465253D01*
X123696240Y-69465253D01*
X123534957Y-69439708D01*
X123486287Y-69432000D01*
X123273713Y-69432000D01*
X123225042Y-69439708D01*
X123063760Y-69465253D01*
X122861585Y-69530944D01*
X122672179Y-69627451D01*
X122500213Y-69752390D01*
X122349890Y-69902713D01*
X122224951Y-70074679D01*
X122128444Y-70264085D01*
X122062753Y-70466260D01*
X122029500Y-70676213D01*
X66500500Y-70676213D01*
X66500500Y-62973753D01*
X82220000Y-62973753D01*
X82220000Y-63186246D01*
X82253242Y-63396127D01*
X82253242Y-63396130D01*
X82318904Y-63598217D01*
X82415375Y-63787550D01*
X82454728Y-63841716D01*
X83087037Y-63209408D01*
X83104075Y-63272993D01*
X83169901Y-63387007D01*
X83262993Y-63480099D01*
X83377007Y-63545925D01*
X83440591Y-63562962D01*
X82839971Y-64163581D01*
X82918711Y-64280895D01*
X82919920Y-64284729D01*
X82922844Y-64287491D01*
X82930343Y-64317778D01*
X82939727Y-64347529D01*
X82938671Y-64351408D01*
X82939638Y-64355312D01*
X82929573Y-64384844D01*
X82921383Y-64414947D01*
X82918397Y-64417640D01*
X82917100Y-64421447D01*
X82872051Y-64460483D01*
X82862440Y-64465380D01*
X82808282Y-64504727D01*
X82808282Y-64504728D01*
X83440591Y-65137037D01*
X83377007Y-65154075D01*
X83262993Y-65219901D01*
X83169901Y-65312993D01*
X83104075Y-65427007D01*
X83087037Y-65490591D01*
X82454728Y-64858282D01*
X82454727Y-64858282D01*
X82415380Y-64912439D01*
X82318904Y-65101782D01*
X82253242Y-65303869D01*
X82253242Y-65303872D01*
X82220000Y-65513753D01*
X82220000Y-65726246D01*
X82253242Y-65936127D01*
X82253242Y-65936130D01*
X82318904Y-66138217D01*
X82415375Y-66327550D01*
X82454728Y-66381716D01*
X83087037Y-65749408D01*
X83104075Y-65812993D01*
X83169901Y-65927007D01*
X83262993Y-66020099D01*
X83377007Y-66085925D01*
X83440590Y-66102962D01*
X82808282Y-66735269D01*
X82808282Y-66735270D01*
X82862449Y-66774624D01*
X83051782Y-66871095D01*
X83253870Y-66936757D01*
X83463754Y-66970000D01*
X83676246Y-66970000D01*
X83886127Y-66936757D01*
X83886130Y-66936757D01*
X84088217Y-66871095D01*
X84277554Y-66774622D01*
X84331716Y-66735270D01*
X84331717Y-66735270D01*
X83699408Y-66102962D01*
X83762993Y-66085925D01*
X83877007Y-66020099D01*
X83970099Y-65927007D01*
X84035925Y-65812993D01*
X84052962Y-65749408D01*
X84685270Y-66381717D01*
X84685270Y-66381716D01*
X84724622Y-66327554D01*
X84821095Y-66138217D01*
X84886757Y-65936130D01*
X84886757Y-65936127D01*
X84920000Y-65726246D01*
X84920000Y-65513753D01*
X84886757Y-65303872D01*
X84886757Y-65303869D01*
X84821095Y-65101782D01*
X84724624Y-64912449D01*
X84685270Y-64858282D01*
X84685269Y-64858282D01*
X84052962Y-65490590D01*
X84035925Y-65427007D01*
X83970099Y-65312993D01*
X83877007Y-65219901D01*
X83762993Y-65154075D01*
X83699409Y-65137037D01*
X84331716Y-64504728D01*
X84277550Y-64465375D01*
X84267954Y-64460486D01*
X84217157Y-64412512D01*
X84200361Y-64344692D01*
X84221288Y-64280895D01*
X84300027Y-64163581D01*
X83699408Y-63562962D01*
X83762993Y-63545925D01*
X83877007Y-63480099D01*
X83970099Y-63387007D01*
X84035925Y-63272993D01*
X84052962Y-63209408D01*
X84685270Y-63841717D01*
X84685270Y-63841716D01*
X84724622Y-63787554D01*
X84821095Y-63598217D01*
X84886757Y-63396130D01*
X84886757Y-63396127D01*
X84920000Y-63186246D01*
X84920000Y-62973753D01*
X105080000Y-62973753D01*
X105080000Y-63186246D01*
X105113242Y-63396127D01*
X105113242Y-63396130D01*
X105178904Y-63598217D01*
X105275375Y-63787550D01*
X105314728Y-63841716D01*
X105947037Y-63209408D01*
X105964075Y-63272993D01*
X106029901Y-63387007D01*
X106122993Y-63480099D01*
X106237007Y-63545925D01*
X106300590Y-63562962D01*
X105668282Y-64195269D01*
X105668282Y-64195270D01*
X105722452Y-64234626D01*
X105732048Y-64239516D01*
X105782844Y-64287491D01*
X105799638Y-64355312D01*
X105777100Y-64421447D01*
X105732051Y-64460483D01*
X105722440Y-64465380D01*
X105668282Y-64504727D01*
X105668282Y-64504728D01*
X106300591Y-65137037D01*
X106237007Y-65154075D01*
X106122993Y-65219901D01*
X106029901Y-65312993D01*
X105964075Y-65427007D01*
X105947037Y-65490591D01*
X105314728Y-64858282D01*
X105314727Y-64858282D01*
X105275380Y-64912439D01*
X105178904Y-65101782D01*
X105113242Y-65303869D01*
X105113242Y-65303872D01*
X105080000Y-65513753D01*
X105080000Y-65726246D01*
X105113242Y-65936127D01*
X105113242Y-65936130D01*
X105178904Y-66138217D01*
X105275375Y-66327550D01*
X105314728Y-66381716D01*
X105947037Y-65749408D01*
X105964075Y-65812993D01*
X106029901Y-65927007D01*
X106122993Y-66020099D01*
X106237007Y-66085925D01*
X106300590Y-66102962D01*
X105668282Y-66735269D01*
X105668282Y-66735270D01*
X105722449Y-66774624D01*
X105911782Y-66871095D01*
X106113870Y-66936757D01*
X106323754Y-66970000D01*
X106536246Y-66970000D01*
X106746127Y-66936757D01*
X106746130Y-66936757D01*
X106948217Y-66871095D01*
X107137554Y-66774622D01*
X107191716Y-66735270D01*
X107191717Y-66735270D01*
X106559408Y-66102962D01*
X106622993Y-66085925D01*
X106737007Y-66020099D01*
X106830099Y-65927007D01*
X106895925Y-65812993D01*
X106912962Y-65749409D01*
X107545270Y-66381717D01*
X107545270Y-66381716D01*
X107584622Y-66327554D01*
X107681095Y-66138217D01*
X107746757Y-65936130D01*
X107746757Y-65936127D01*
X107780000Y-65726246D01*
X107780000Y-65513753D01*
X107746757Y-65303872D01*
X107746757Y-65303869D01*
X107681095Y-65101782D01*
X107584624Y-64912449D01*
X107545270Y-64858282D01*
X107545269Y-64858282D01*
X106912962Y-65490590D01*
X106895925Y-65427007D01*
X106830099Y-65312993D01*
X106737007Y-65219901D01*
X106622993Y-65154075D01*
X106559409Y-65137037D01*
X107191716Y-64504728D01*
X107137550Y-64465375D01*
X107127954Y-64460486D01*
X107077157Y-64412512D01*
X107060361Y-64344692D01*
X107082897Y-64278556D01*
X107127954Y-64239514D01*
X107137554Y-64234622D01*
X107191716Y-64195270D01*
X107191717Y-64195270D01*
X106559408Y-63562962D01*
X106622993Y-63545925D01*
X106737007Y-63480099D01*
X106830099Y-63387007D01*
X106895925Y-63272993D01*
X106912962Y-63209409D01*
X107545270Y-63841717D01*
X107545270Y-63841716D01*
X107584622Y-63787554D01*
X107681095Y-63598217D01*
X107746757Y-63396130D01*
X107746757Y-63396127D01*
X107780000Y-63186246D01*
X107780000Y-62973753D01*
X107746757Y-62763872D01*
X107746757Y-62763869D01*
X107681095Y-62561782D01*
X107584624Y-62372449D01*
X107545270Y-62318282D01*
X107545269Y-62318282D01*
X106912962Y-62950590D01*
X106895925Y-62887007D01*
X106830099Y-62772993D01*
X106737007Y-62679901D01*
X106622993Y-62614075D01*
X106559409Y-62597037D01*
X107191716Y-61964728D01*
X107137550Y-61925375D01*
X106948217Y-61828904D01*
X106746129Y-61763242D01*
X106536246Y-61730000D01*
X106323754Y-61730000D01*
X106113872Y-61763242D01*
X106113869Y-61763242D01*
X105911782Y-61828904D01*
X105722439Y-61925380D01*
X105668282Y-61964727D01*
X105668282Y-61964728D01*
X106300591Y-62597037D01*
X106237007Y-62614075D01*
X106122993Y-62679901D01*
X106029901Y-62772993D01*
X105964075Y-62887007D01*
X105947037Y-62950591D01*
X105314728Y-62318282D01*
X105314727Y-62318282D01*
X105275380Y-62372439D01*
X105178904Y-62561782D01*
X105113242Y-62763869D01*
X105113242Y-62763872D01*
X105080000Y-62973753D01*
X84920000Y-62973753D01*
X84886757Y-62763872D01*
X84886757Y-62763869D01*
X84821095Y-62561782D01*
X84724624Y-62372449D01*
X84685270Y-62318282D01*
X84685269Y-62318282D01*
X84052962Y-62950590D01*
X84035925Y-62887007D01*
X83970099Y-62772993D01*
X83877007Y-62679901D01*
X83762993Y-62614075D01*
X83699409Y-62597037D01*
X84331716Y-61964728D01*
X84277550Y-61925375D01*
X84088217Y-61828904D01*
X83886129Y-61763242D01*
X83676246Y-61730000D01*
X83463754Y-61730000D01*
X83253872Y-61763242D01*
X83253869Y-61763242D01*
X83051782Y-61828904D01*
X82862439Y-61925380D01*
X82808282Y-61964727D01*
X82808282Y-61964728D01*
X83440591Y-62597037D01*
X83377007Y-62614075D01*
X83262993Y-62679901D01*
X83169901Y-62772993D01*
X83104075Y-62887007D01*
X83087037Y-62950591D01*
X82454728Y-62318282D01*
X82454727Y-62318282D01*
X82415380Y-62372439D01*
X82318904Y-62561782D01*
X82253242Y-62763869D01*
X82253242Y-62763872D01*
X82220000Y-62973753D01*
X66500500Y-62973753D01*
X66500500Y-58088389D01*
X118899500Y-58088389D01*
X118899500Y-58811611D01*
X118926598Y-58982701D01*
X118980127Y-59147445D01*
X119058768Y-59301788D01*
X119160586Y-59441928D01*
X119283072Y-59564414D01*
X119423212Y-59666232D01*
X119577555Y-59744873D01*
X119742299Y-59798402D01*
X119913389Y-59825500D01*
X119913390Y-59825500D01*
X120086610Y-59825500D01*
X120086611Y-59825500D01*
X120257701Y-59798402D01*
X120422445Y-59744873D01*
X120576788Y-59666232D01*
X120716928Y-59564414D01*
X120824472Y-59456869D01*
X120885791Y-59423387D01*
X120955483Y-59428371D01*
X121011417Y-59470242D01*
X121017688Y-59479456D01*
X121057285Y-59543652D01*
X121057288Y-59543656D01*
X121181344Y-59667712D01*
X121330666Y-59759814D01*
X121497203Y-59814999D01*
X121599991Y-59825500D01*
X122400008Y-59825499D01*
X122400016Y-59825498D01*
X122400019Y-59825498D01*
X122456302Y-59819748D01*
X122502797Y-59814999D01*
X122669334Y-59759814D01*
X122818656Y-59667712D01*
X122942712Y-59543656D01*
X123034814Y-59394334D01*
X123089999Y-59227797D01*
X123100500Y-59125009D01*
X123100499Y-57774992D01*
X123089999Y-57672203D01*
X123034814Y-57505666D01*
X122942712Y-57356344D01*
X122818656Y-57232288D01*
X122693559Y-57155128D01*
X122669336Y-57140187D01*
X122669331Y-57140185D01*
X122667862Y-57139698D01*
X122502797Y-57085001D01*
X122502795Y-57085000D01*
X122400010Y-57074500D01*
X121599998Y-57074500D01*
X121599980Y-57074501D01*
X121497203Y-57085000D01*
X121497200Y-57085001D01*
X121330668Y-57140185D01*
X121330663Y-57140187D01*
X121181342Y-57232289D01*
X121057287Y-57356344D01*
X121017688Y-57420544D01*
X120965739Y-57467268D01*
X120896777Y-57478489D01*
X120832695Y-57450645D01*
X120824469Y-57443127D01*
X120716930Y-57335588D01*
X120716928Y-57335586D01*
X120576788Y-57233768D01*
X120422445Y-57155127D01*
X120257701Y-57101598D01*
X120257699Y-57101597D01*
X120257698Y-57101597D01*
X120126271Y-57080781D01*
X120086611Y-57074500D01*
X119913389Y-57074500D01*
X119873728Y-57080781D01*
X119742302Y-57101597D01*
X119577552Y-57155128D01*
X119423211Y-57233768D01*
X119343256Y-57291859D01*
X119283072Y-57335586D01*
X119283070Y-57335588D01*
X119283069Y-57335588D01*
X119160588Y-57458069D01*
X119160588Y-57458070D01*
X119160586Y-57458072D01*
X119153905Y-57467268D01*
X119058768Y-57598211D01*
X118980128Y-57752552D01*
X118926597Y-57917302D01*
X118899500Y-58088389D01*
X66500500Y-58088389D01*
X66500500Y-55775013D01*
X146900000Y-55775013D01*
X146900000Y-56200000D01*
X147719670Y-56200000D01*
X147699925Y-56219745D01*
X147650556Y-56305255D01*
X147625000Y-56400630D01*
X147625000Y-56499370D01*
X147650556Y-56594745D01*
X147699925Y-56680255D01*
X147719670Y-56700000D01*
X146900001Y-56700000D01*
X146900001Y-57124986D01*
X146910494Y-57227697D01*
X146965641Y-57394119D01*
X146965643Y-57394124D01*
X147057684Y-57543345D01*
X147181654Y-57667315D01*
X147330875Y-57759356D01*
X147330880Y-57759358D01*
X147497302Y-57814505D01*
X147497309Y-57814506D01*
X147600019Y-57824999D01*
X147749999Y-57824999D01*
X147750000Y-57824998D01*
X147750000Y-56730330D01*
X147769745Y-56750075D01*
X147855255Y-56799444D01*
X147950630Y-56825000D01*
X148049370Y-56825000D01*
X148144745Y-56799444D01*
X148230255Y-56750075D01*
X148250000Y-56730330D01*
X148250000Y-57824999D01*
X148399972Y-57824999D01*
X148399986Y-57824998D01*
X148502697Y-57814505D01*
X148669119Y-57759358D01*
X148669124Y-57759356D01*
X148818345Y-57667315D01*
X148942315Y-57543345D01*
X148981945Y-57479094D01*
X149033893Y-57432368D01*
X149102855Y-57421145D01*
X149166937Y-57448988D01*
X149175166Y-57456508D01*
X149283072Y-57564414D01*
X149423212Y-57666232D01*
X149577555Y-57744873D01*
X149742299Y-57798402D01*
X149913389Y-57825500D01*
X149913390Y-57825500D01*
X150086610Y-57825500D01*
X150086611Y-57825500D01*
X150257701Y-57798402D01*
X150422445Y-57744873D01*
X150576788Y-57666232D01*
X150716928Y-57564414D01*
X150839414Y-57441928D01*
X150899682Y-57358975D01*
X150955012Y-57316311D01*
X151024626Y-57310332D01*
X151086421Y-57342938D01*
X151100315Y-57358973D01*
X151160586Y-57441928D01*
X151283072Y-57564414D01*
X151423212Y-57666232D01*
X151577555Y-57744873D01*
X151742299Y-57798402D01*
X151913389Y-57825500D01*
X151913390Y-57825500D01*
X152086610Y-57825500D01*
X152086611Y-57825500D01*
X152257701Y-57798402D01*
X152422445Y-57744873D01*
X152576788Y-57666232D01*
X152716928Y-57564414D01*
X152839414Y-57441928D01*
X152899682Y-57358975D01*
X152955012Y-57316311D01*
X153024626Y-57310332D01*
X153086421Y-57342938D01*
X153100315Y-57358973D01*
X153160586Y-57441928D01*
X153283072Y-57564414D01*
X153423212Y-57666232D01*
X153577555Y-57744873D01*
X153742299Y-57798402D01*
X153913389Y-57825500D01*
X153913390Y-57825500D01*
X154086610Y-57825500D01*
X154086611Y-57825500D01*
X154257701Y-57798402D01*
X154422445Y-57744873D01*
X154576788Y-57666232D01*
X154716928Y-57564414D01*
X154839414Y-57441928D01*
X154941232Y-57301788D01*
X155019873Y-57147445D01*
X155073402Y-56982701D01*
X155100500Y-56811611D01*
X155100500Y-56088389D01*
X155073402Y-55917299D01*
X155019873Y-55752555D01*
X154941232Y-55598212D01*
X154839414Y-55458072D01*
X154716928Y-55335586D01*
X154576788Y-55233768D01*
X154422445Y-55155127D01*
X154257701Y-55101598D01*
X154257699Y-55101597D01*
X154257698Y-55101597D01*
X154126271Y-55080781D01*
X154086611Y-55074500D01*
X153913389Y-55074500D01*
X153873728Y-55080781D01*
X153742302Y-55101597D01*
X153577552Y-55155128D01*
X153423211Y-55233768D01*
X153343256Y-55291859D01*
X153283072Y-55335586D01*
X153283070Y-55335588D01*
X153283069Y-55335588D01*
X153160588Y-55458069D01*
X153160581Y-55458078D01*
X153100317Y-55541023D01*
X153044987Y-55583689D01*
X152975374Y-55589667D01*
X152913579Y-55557061D01*
X152899683Y-55541023D01*
X152851899Y-55475257D01*
X152839414Y-55458072D01*
X152716928Y-55335586D01*
X152576788Y-55233768D01*
X152422445Y-55155127D01*
X152257701Y-55101598D01*
X152257699Y-55101597D01*
X152257698Y-55101597D01*
X152126271Y-55080781D01*
X152086611Y-55074500D01*
X151913389Y-55074500D01*
X151873728Y-55080781D01*
X151742302Y-55101597D01*
X151577552Y-55155128D01*
X151423211Y-55233768D01*
X151343256Y-55291859D01*
X151283072Y-55335586D01*
X151283070Y-55335588D01*
X151283069Y-55335588D01*
X151160588Y-55458069D01*
X151160581Y-55458078D01*
X151100317Y-55541023D01*
X151044987Y-55583689D01*
X150975374Y-55589667D01*
X150913579Y-55557061D01*
X150899683Y-55541023D01*
X150851899Y-55475257D01*
X150839414Y-55458072D01*
X150716928Y-55335586D01*
X150576788Y-55233768D01*
X150422445Y-55155127D01*
X150257701Y-55101598D01*
X150257699Y-55101597D01*
X150257698Y-55101597D01*
X150126271Y-55080781D01*
X150086611Y-55074500D01*
X149913389Y-55074500D01*
X149873728Y-55080781D01*
X149742302Y-55101597D01*
X149577552Y-55155128D01*
X149423211Y-55233768D01*
X149283073Y-55335585D01*
X149175166Y-55443492D01*
X149113843Y-55476976D01*
X149044151Y-55471992D01*
X148988218Y-55430120D01*
X148981946Y-55420906D01*
X148942317Y-55356656D01*
X148818345Y-55232684D01*
X148669124Y-55140643D01*
X148669119Y-55140641D01*
X148502697Y-55085494D01*
X148502690Y-55085493D01*
X148399986Y-55075000D01*
X148250000Y-55075000D01*
X148250000Y-56169670D01*
X148230255Y-56149925D01*
X148144745Y-56100556D01*
X148049370Y-56075000D01*
X147950630Y-56075000D01*
X147855255Y-56100556D01*
X147769745Y-56149925D01*
X147750000Y-56169670D01*
X147750000Y-55075000D01*
X147600027Y-55075000D01*
X147600012Y-55075001D01*
X147497302Y-55085494D01*
X147330880Y-55140641D01*
X147330875Y-55140643D01*
X147181654Y-55232684D01*
X147057684Y-55356654D01*
X146965643Y-55505875D01*
X146965641Y-55505880D01*
X146910494Y-55672302D01*
X146910493Y-55672309D01*
X146900000Y-55775013D01*
X66500500Y-55775013D01*
X66500500Y-50878711D01*
X72149500Y-50878711D01*
X72149500Y-51121288D01*
X72181161Y-51361785D01*
X72243947Y-51596104D01*
X72313885Y-51764949D01*
X72336776Y-51820212D01*
X72458064Y-52030289D01*
X72458066Y-52030292D01*
X72458067Y-52030293D01*
X72605733Y-52222736D01*
X72605739Y-52222743D01*
X72777256Y-52394260D01*
X72777263Y-52394266D01*
X72890321Y-52481018D01*
X72969711Y-52541936D01*
X73179788Y-52663224D01*
X73403900Y-52756054D01*
X73638211Y-52818838D01*
X73818586Y-52842584D01*
X73878711Y-52850500D01*
X73878712Y-52850500D01*
X74121289Y-52850500D01*
X74169388Y-52844167D01*
X74361789Y-52818838D01*
X74596100Y-52756054D01*
X74820212Y-52663224D01*
X75030289Y-52541936D01*
X75222738Y-52394265D01*
X75394265Y-52222738D01*
X75541936Y-52030289D01*
X75663224Y-51820212D01*
X75756054Y-51596100D01*
X75818838Y-51361789D01*
X75850500Y-51121288D01*
X75850500Y-50878712D01*
X75818838Y-50638211D01*
X75756054Y-50403900D01*
X75663224Y-50179788D01*
X75541936Y-49969711D01*
X75481018Y-49890321D01*
X75394266Y-49777263D01*
X75394260Y-49777256D01*
X75222743Y-49605739D01*
X75185527Y-49577182D01*
X75185525Y-49577180D01*
X75061659Y-49482135D01*
X82219500Y-49482135D01*
X82219500Y-51277870D01*
X82219501Y-51277876D01*
X82225908Y-51337483D01*
X82276202Y-51472328D01*
X82276203Y-51472330D01*
X82353578Y-51575689D01*
X82377995Y-51641153D01*
X82363144Y-51709426D01*
X82353578Y-51724311D01*
X82276203Y-51827669D01*
X82276202Y-51827671D01*
X82225908Y-51962517D01*
X82219501Y-52022116D01*
X82219501Y-52022123D01*
X82219500Y-52022135D01*
X82219500Y-53817870D01*
X82219501Y-53817876D01*
X82225908Y-53877483D01*
X82276202Y-54012328D01*
X82276206Y-54012335D01*
X82362452Y-54127544D01*
X82362455Y-54127547D01*
X82477664Y-54213793D01*
X82477671Y-54213797D01*
X82612517Y-54264091D01*
X82612516Y-54264091D01*
X82619444Y-54264835D01*
X82672127Y-54270500D01*
X84467872Y-54270499D01*
X84527483Y-54264091D01*
X84662331Y-54213796D01*
X84777546Y-54127546D01*
X84863796Y-54012331D01*
X84914091Y-53877483D01*
X84920500Y-53817873D01*
X84920499Y-52022128D01*
X84914091Y-51962517D01*
X84863796Y-51827669D01*
X84786421Y-51724309D01*
X84762004Y-51658848D01*
X84776855Y-51590575D01*
X84786416Y-51575696D01*
X84863796Y-51472331D01*
X84914091Y-51337483D01*
X84920500Y-51277873D01*
X84920499Y-50273713D01*
X105079500Y-50273713D01*
X105079500Y-50486286D01*
X105112753Y-50696239D01*
X105112753Y-50696241D01*
X105112754Y-50696243D01*
X105158272Y-50836333D01*
X105178444Y-50898414D01*
X105274951Y-51087820D01*
X105399890Y-51259786D01*
X105550213Y-51410109D01*
X105722182Y-51535050D01*
X105730946Y-51539516D01*
X105781742Y-51587491D01*
X105798536Y-51655312D01*
X105775998Y-51721447D01*
X105730946Y-51760484D01*
X105722182Y-51764949D01*
X105550213Y-51889890D01*
X105399890Y-52040213D01*
X105274951Y-52212179D01*
X105178444Y-52401585D01*
X105112753Y-52603760D01*
X105079500Y-52813713D01*
X105079500Y-53026286D01*
X105112753Y-53236239D01*
X105178444Y-53438414D01*
X105274951Y-53627820D01*
X105399890Y-53799786D01*
X105550213Y-53950109D01*
X105722179Y-54075048D01*
X105722181Y-54075049D01*
X105722184Y-54075051D01*
X105911588Y-54171557D01*
X106113757Y-54237246D01*
X106323713Y-54270500D01*
X106323714Y-54270500D01*
X106536286Y-54270500D01*
X106536287Y-54270500D01*
X106746243Y-54237246D01*
X106948412Y-54171557D01*
X107137816Y-54075051D01*
X107224138Y-54012335D01*
X107309786Y-53950109D01*
X107309788Y-53950106D01*
X107309792Y-53950104D01*
X107460104Y-53799792D01*
X107460106Y-53799788D01*
X107460109Y-53799786D01*
X107585048Y-53627820D01*
X107585047Y-53627820D01*
X107585051Y-53627816D01*
X107681557Y-53438412D01*
X107747246Y-53236243D01*
X107780500Y-53026287D01*
X107780500Y-52813713D01*
X107747246Y-52603757D01*
X107681557Y-52401588D01*
X107585051Y-52212184D01*
X107585049Y-52212181D01*
X107585048Y-52212179D01*
X107460109Y-52040213D01*
X107309786Y-51889890D01*
X107137820Y-51764951D01*
X107137115Y-51764591D01*
X107129054Y-51760485D01*
X107078259Y-51712512D01*
X107061463Y-51644692D01*
X107083999Y-51578556D01*
X107129054Y-51539515D01*
X107137816Y-51535051D01*
X107159789Y-51519086D01*
X107309786Y-51410109D01*
X107309788Y-51410106D01*
X107309792Y-51410104D01*
X107460104Y-51259792D01*
X107460106Y-51259788D01*
X107460109Y-51259786D01*
X107585048Y-51087820D01*
X107585047Y-51087820D01*
X107585051Y-51087816D01*
X107681557Y-50898412D01*
X107687958Y-50878711D01*
X161149500Y-50878711D01*
X161149500Y-51121288D01*
X161181161Y-51361785D01*
X161243947Y-51596104D01*
X161313885Y-51764949D01*
X161336776Y-51820212D01*
X161458064Y-52030289D01*
X161458066Y-52030292D01*
X161458067Y-52030293D01*
X161605733Y-52222736D01*
X161605739Y-52222743D01*
X161777256Y-52394260D01*
X161777263Y-52394266D01*
X161890321Y-52481018D01*
X161969711Y-52541936D01*
X162179788Y-52663224D01*
X162403900Y-52756054D01*
X162638211Y-52818838D01*
X162818586Y-52842584D01*
X162878711Y-52850500D01*
X162878712Y-52850500D01*
X163121289Y-52850500D01*
X163169388Y-52844167D01*
X163361789Y-52818838D01*
X163596100Y-52756054D01*
X163820212Y-52663224D01*
X164030289Y-52541936D01*
X164222738Y-52394265D01*
X164394265Y-52222738D01*
X164541936Y-52030289D01*
X164663224Y-51820212D01*
X164756054Y-51596100D01*
X164818838Y-51361789D01*
X164850500Y-51121288D01*
X164850500Y-50878712D01*
X164818838Y-50638211D01*
X164756054Y-50403900D01*
X164663224Y-50179788D01*
X164541936Y-49969711D01*
X164481018Y-49890321D01*
X164394266Y-49777263D01*
X164394260Y-49777256D01*
X164222743Y-49605739D01*
X164222736Y-49605733D01*
X164030293Y-49458067D01*
X164030292Y-49458066D01*
X164030289Y-49458064D01*
X163820212Y-49336776D01*
X163820205Y-49336773D01*
X163596104Y-49243947D01*
X163361785Y-49181161D01*
X163121289Y-49149500D01*
X163121288Y-49149500D01*
X162878712Y-49149500D01*
X162878711Y-49149500D01*
X162638214Y-49181161D01*
X162403895Y-49243947D01*
X162179794Y-49336773D01*
X162179785Y-49336777D01*
X161969706Y-49458067D01*
X161777263Y-49605733D01*
X161777256Y-49605739D01*
X161605739Y-49777256D01*
X161605733Y-49777263D01*
X161458067Y-49969706D01*
X161336777Y-50179785D01*
X161336773Y-50179794D01*
X161243947Y-50403895D01*
X161181161Y-50638214D01*
X161149500Y-50878711D01*
X107687958Y-50878711D01*
X107747246Y-50696243D01*
X107780500Y-50486287D01*
X107780500Y-50273713D01*
X107747246Y-50063757D01*
X107681557Y-49861588D01*
X107585051Y-49672184D01*
X107585049Y-49672181D01*
X107585048Y-49672179D01*
X107460109Y-49500213D01*
X107309786Y-49349890D01*
X107137820Y-49224951D01*
X106948414Y-49128444D01*
X106948413Y-49128443D01*
X106948412Y-49128443D01*
X106746243Y-49062754D01*
X106746241Y-49062753D01*
X106746240Y-49062753D01*
X106584957Y-49037208D01*
X106536287Y-49029500D01*
X106323713Y-49029500D01*
X106275042Y-49037208D01*
X106113760Y-49062753D01*
X105911585Y-49128444D01*
X105722179Y-49224951D01*
X105550213Y-49349890D01*
X105399890Y-49500213D01*
X105274951Y-49672179D01*
X105178444Y-49861585D01*
X105112753Y-50063760D01*
X105079500Y-50273713D01*
X84920499Y-50273713D01*
X84920499Y-49482128D01*
X84914091Y-49422517D01*
X84863796Y-49287669D01*
X84863795Y-49287668D01*
X84863793Y-49287664D01*
X84777547Y-49172455D01*
X84777544Y-49172452D01*
X84662335Y-49086206D01*
X84662328Y-49086202D01*
X84527482Y-49035908D01*
X84527483Y-49035908D01*
X84467883Y-49029501D01*
X84467881Y-49029500D01*
X84467873Y-49029500D01*
X84467864Y-49029500D01*
X82672129Y-49029500D01*
X82672123Y-49029501D01*
X82612516Y-49035908D01*
X82477671Y-49086202D01*
X82477664Y-49086206D01*
X82362455Y-49172452D01*
X82362452Y-49172455D01*
X82276206Y-49287664D01*
X82276202Y-49287671D01*
X82225908Y-49422517D01*
X82219501Y-49482116D01*
X82219501Y-49482123D01*
X82219500Y-49482135D01*
X75061659Y-49482135D01*
X75030293Y-49458067D01*
X75030292Y-49458066D01*
X75030289Y-49458064D01*
X74820212Y-49336776D01*
X74820205Y-49336773D01*
X74596104Y-49243947D01*
X74361785Y-49181161D01*
X74121289Y-49149500D01*
X74121288Y-49149500D01*
X73878712Y-49149500D01*
X73878711Y-49149500D01*
X73638214Y-49181161D01*
X73403895Y-49243947D01*
X73179794Y-49336773D01*
X73179785Y-49336777D01*
X72969706Y-49458067D01*
X72777263Y-49605733D01*
X72777256Y-49605739D01*
X72605739Y-49777256D01*
X72605733Y-49777263D01*
X72458067Y-49969706D01*
X72336777Y-50179785D01*
X72336773Y-50179794D01*
X72243947Y-50403895D01*
X72181161Y-50638214D01*
X72149500Y-50878711D01*
X66500500Y-50878711D01*
X66500500Y-46003750D01*
X66500726Y-45996263D01*
X66518271Y-45706201D01*
X66520076Y-45691340D01*
X66571780Y-45409202D01*
X66575364Y-45394664D01*
X66588130Y-45353696D01*
X66660699Y-45120812D01*
X66665997Y-45106842D01*
X66783727Y-44845258D01*
X66790680Y-44832012D01*
X66830959Y-44765381D01*
X66939075Y-44586534D01*
X66947567Y-44574230D01*
X67124481Y-44348417D01*
X67134396Y-44337226D01*
X67337226Y-44134396D01*
X67348417Y-44124481D01*
X67574230Y-43947567D01*
X67586534Y-43939075D01*
X67832012Y-43790680D01*
X67845258Y-43783727D01*
X68106842Y-43665997D01*
X68120812Y-43660699D01*
X68394668Y-43575362D01*
X68409198Y-43571780D01*
X68691344Y-43520075D01*
X68706201Y-43518271D01*
X68996264Y-43500726D01*
X69003751Y-43500500D01*
X69065892Y-43500500D01*
X115424951Y-43500500D01*
X115491990Y-43520185D01*
G37*
%TD.AperFunction*%
%TD*%
M02*
