M48
; DRILL file KiCad 10.0.3 date 2026-06-09T23:33:49
; FORMAT={-:-/ absolute / metric / decimal}
; #@! TF.CreationDate,2026-06-09T23:33:49+03:00
; #@! TF.GenerationSoftware,Kicad,Pcbnew,10.0.3
; #@! TF.FileFunction,Plated,1,2,PTH
FMAT,2
METRIC
; #@! TA.AperFunction,Plated,PTH,ComponentDrill
T1C0.750
; #@! TA.AperFunction,Plated,PTH,ComponentDrill
T2C1.000
%
G90
G05
T1
X119.0Y-94.55
X120.0Y-58.45
X121.0Y-94.55
X122.0Y-58.45
X130.0Y-99.45
X132.0Y-99.45
X134.0Y-99.45
X136.0Y-99.45
X148.0Y-56.45
X150.0Y-56.45
X152.0Y-56.45
X154.0Y-56.45
T2
X83.57Y-50.38
X83.57Y-52.92
X83.57Y-63.08
X83.57Y-65.62
X84.366Y-77.19
X84.366Y-79.73
X84.366Y-82.27
X84.366Y-84.81
X95.035Y-76.725
X95.035Y-94.505
X97.575Y-76.725
X97.575Y-94.505
X100.115Y-76.725
X100.115Y-94.505
X102.655Y-76.725
X102.655Y-94.505
X105.195Y-76.725
X105.195Y-94.505
X106.43Y-50.38
X106.43Y-52.92
X106.43Y-63.08
X106.43Y-65.62
X107.735Y-76.725
X107.735Y-94.505
X123.38Y-70.782
X123.38Y-86.022
X125.92Y-70.782
X125.92Y-86.022
X128.46Y-70.782
X128.46Y-86.022
X131.0Y-70.782
X131.0Y-86.022
X133.54Y-70.782
X133.54Y-86.022
X136.08Y-70.782
X136.08Y-86.022
X138.62Y-86.022
X138.63Y-70.782
X150.38Y-70.782
X150.38Y-86.022
X152.92Y-70.782
X152.92Y-86.022
X155.46Y-70.782
X155.46Y-86.022
X158.0Y-70.782
X158.0Y-86.022
X160.54Y-70.782
X160.54Y-86.022
X163.08Y-70.782
X163.08Y-86.022
X165.62Y-86.022
X165.63Y-70.782
M30
